solid CATIA STL
  facet normal  0.000000e+000  -0.000000e+000  1.000000e+000
    outer loop
      vertex  2.056133e-013 -1.278977e-013  4.000000e+000
      vertex  6.788442e+000 -4.232854e+000  4.000000e+000
      vertex  7.942478e+000  4.232854e+000  4.000000e+000
    endloop
  endfacet
  facet normal  0.000000e+000  0.000000e+000  1.000000e+000
    outer loop
      vertex  7.942478e+000  4.232854e+000  4.000000e+000
      vertex  6.788442e+000 -4.232854e+000  4.000000e+000
      vertex  1.473092e+001 -3.552714e-015  4.000000e+000
    endloop
  endfacet
  facet normal  0.000000e+000  0.000000e+000 -1.000000e+000
    outer loop
      vertex  2.056133e-013 -1.278977e-013  0.000000e+000
      vertex  7.942478e+000  4.232854e+000  0.000000e+000
      vertex  6.788442e+000 -4.232854e+000  0.000000e+000
    endloop
  endfacet
  facet normal  0.000000e+000  0.000000e+000 -1.000000e+000
    outer loop
      vertex  6.788442e+000 -4.232854e+000  0.000000e+000
      vertex  7.942478e+000  4.232854e+000  0.000000e+000
      vertex  1.473092e+001 -3.552714e-015  0.000000e+000
    endloop
  endfacet
  facet normal -4.703171e-001  8.824975e-001  0.000000e+000
    outer loop
      vertex  2.056133e-013 -1.278977e-013  4.000000e+000
      vertex  7.942478e+000  4.232854e+000  4.000000e+000
      vertex  2.056133e-013 -1.278977e-013  0.000000e+000
    endloop
  endfacet
  facet normal -4.703171e-001  8.824975e-001  0.000000e+000
    outer loop
      vertex  2.056133e-013 -1.278977e-013  0.000000e+000
      vertex  7.942478e+000  4.232854e+000  4.000000e+000
      vertex  7.942478e+000  4.232854e+000  0.000000e+000
    endloop
  endfacet
  facet normal  5.291067e-001  8.485553e-001  0.000000e+000
    outer loop
      vertex  7.942478e+000  4.232854e+000  4.000000e+000
      vertex  1.473092e+001 -3.552714e-015  4.000000e+000
      vertex  7.942478e+000  4.232854e+000  0.000000e+000
    endloop
  endfacet
  facet normal  5.291067e-001  8.485553e-001  0.000000e+000
    outer loop
      vertex  7.942478e+000  4.232854e+000  0.000000e+000
      vertex  1.473092e+001 -3.552714e-015  4.000000e+000
      vertex  1.473092e+001 -3.552714e-015  0.000000e+000
    endloop
  endfacet
  facet normal  4.703171e-001 -8.824975e-001  0.000000e+000
    outer loop
      vertex  1.473092e+001 -3.552714e-015  4.000000e+000
      vertex  6.788442e+000 -4.232854e+000  4.000000e+000
      vertex  1.473092e+001 -3.552714e-015  0.000000e+000
    endloop
  endfacet
  facet normal  4.703171e-001 -8.824975e-001  0.000000e+000
    outer loop
      vertex  1.473092e+001 -3.552714e-015  0.000000e+000
      vertex  6.788442e+000 -4.232854e+000  4.000000e+000
      vertex  6.788442e+000 -4.232854e+000  0.000000e+000
    endloop
  endfacet
  facet normal -5.291067e-001 -8.485553e-001  0.000000e+000
    outer loop
      vertex  6.788442e+000 -4.232854e+000  4.000000e+000
      vertex  2.056133e-013 -1.278977e-013  4.000000e+000
      vertex  6.788442e+000 -4.232854e+000  0.000000e+000
    endloop
  endfacet
  facet normal -5.291067e-001 -8.485553e-001  0.000000e+000
    outer loop
      vertex  6.788442e+000 -4.232854e+000  0.000000e+000
      vertex  2.056133e-013 -1.278977e-013  4.000000e+000
      vertex  2.056133e-013 -1.278977e-013  0.000000e+000
    endloop
  endfacet
endsolid CATIA STL
