  0
SECTION
  2
HEADER
  9
$ACADVER
  1
AC1018
  9
$ACADMAINTVER
 70
     0
  9
$DWGCODEPAGE
  3
ANSI_932
  9
$INSBASE
 10
0.0
 20
0.0
 30
0.0
  9
$EXTMIN
 10
1.000000000000000E+20
 20
1.000000000000000E+20
 30
1.000000000000000E+20
  9
$EXTMAX
 10
-1.000000000000000E+20
 20
-1.000000000000000E+20
 30
-1.000000000000000E+20
  9
$LIMMIN
 10
0.0
 20
0.0
  9
$LIMMAX
 10
12.0
 20
9.0
  9
$ORTHOMODE
 70
     0
  9
$REGENMODE
 70
     1
  9
$FILLMODE
 70
     1
  9
$QTEXTMODE
 70
     0
  9
$MIRRTEXT
 70
     1
  9
$LTSCALE
 40
1.0
  9
$ATTMODE
 70
     1
  9
$TEXTSIZE
 40
0.2
  9
$TRACEWID
 40
0.05
  9
$TEXTSTYLE
  7
Standard
  9
$CLAYER
  8
0
  9
$CELTYPE
  6
ByLayer
  9
$CECOLOR
 62
   256
  9
$CELTSCALE
 40
1.0
  9
$DISPSILH
 70
     0
  9
$DIMSCALE
 40
1.0
  9
$DIMASZ
 40
0.18
  9
$DIMEXO
 40
0.0625
  9
$DIMDLI
 40
0.38
  9
$DIMRND
 40
0.0
  9
$DIMDLE
 40
0.0
  9
$DIMEXE
 40
0.18
  9
$DIMTP
 40
0.0
  9
$DIMTM
 40
0.0
  9
$DIMTXT
 40
0.18
  9
$DIMCEN
 40
0.09
  9
$DIMTSZ
 40
0.0
  9
$DIMTOL
 70
     0
  9
$DIMLIM
 70
     0
  9
$DIMTIH
 70
     1
  9
$DIMTOH
 70
     1
  9
$DIMSE1
 70
     0
  9
$DIMSE2
 70
     0
  9
$DIMTAD
 70
     0
  9
$DIMZIN
 70
     0
  9
$DIMBLK
  1

  9
$DIMASO
 70
     1
  9
$DIMSHO
 70
     1
  9
$DIMPOST
  1

  9
$DIMAPOST
  1

  9
$DIMALT
 70
     0
  9
$DIMALTD
 70
     2
  9
$DIMALTF
 40
25.4
  9
$DIMLFAC
 40
1.0
  9
$DIMTOFL
 70
     0
  9
$DIMTVP
 40
0.0
  9
$DIMTIX
 70
     0
  9
$DIMSOXD
 70
     0
  9
$DIMSAH
 70
     0
  9
$DIMBLK1
  1

  9
$DIMBLK2
  1

  9
$DIMSTYLE
  2
Standard
  9
$DIMCLRD
 70
     0
  9
$DIMCLRE
 70
     0
  9
$DIMCLRT
 70
     0
  9
$DIMTFAC
 40
1.0
  9
$DIMGAP
 40
0.09
  9
$DIMJUST
 70
     0
  9
$DIMSD1
 70
     0
  9
$DIMSD2
 70
     0
  9
$DIMTOLJ
 70
     1
  9
$DIMTZIN
 70
     0
  9
$DIMALTZ
 70
     0
  9
$DIMALTTZ
 70
     0
  9
$DIMUPT
 70
     0
  9
$DIMDEC
 70
     4
  9
$DIMTDEC
 70
     4
  9
$DIMALTU
 70
     2
  9
$DIMALTTD
 70
     2
  9
$DIMTXSTY
  7
Standard
  9
$DIMAUNIT
 70
     0
  9
$DIMADEC
 70
     0
  9
$DIMALTRND
 40
0.0
  9
$DIMAZIN
 70
     0
  9
$DIMDSEP
 70
    46
  9
$DIMATFIT
 70
     3
  9
$DIMFRAC
 70
     0
  9
$DIMLDRBLK
  1

  9
$DIMLUNIT
 70
     2
  9
$DIMLWD
 70
    -2
  9
$DIMLWE
 70
    -2
  9
$DIMTMOVE
 70
     0
  9
$LUNITS
 70
     2
  9
$LUPREC
 70
     4
  9
$SKETCHINC
 40
0.1
  9
$FILLETRAD
 40
0.5
  9
$AUNITS
 70
     0
  9
$AUPREC
 70
     0
  9
$MENU
  1
.
  9
$ELEVATION
 40
0.0
  9
$PELEVATION
 40
0.0
  9
$THICKNESS
 40
0.0
  9
$LIMCHECK
 70
     0
  9
$CHAMFERA
 40
0.5
  9
$CHAMFERB
 40
0.5
  9
$CHAMFERC
 40
1.0
  9
$CHAMFERD
 40
0.0
  9
$SKPOLY
 70
     0
  9
$TDCREATE
 40
2457150.465358796
  9
$TDUCREATE
 40
2457150.42369213
  9
$TDUPDATE
 40
2457150.465358808
  9
$TDUUPDATE
 40
2457150.423692141
  9
$TDINDWG
 40
0.0000000116
  9
$TDUSRTIMER
 40
0.0000000116
  9
$USRTIMER
 70
     1
  9
$ANGBASE
 50
0.0
  9
$ANGDIR
 70
     0
  9
$PDMODE
 70
     0
  9
$PDSIZE
 40
0.0
  9
$PLINEWID
 40
0.0
  9
$SPLFRAME
 70
     0
  9
$SPLINETYPE
 70
     6
  9
$SPLINESEGS
 70
     8
  9
$HANDSEED
  5
36C
  9
$SURFTAB1
 70
     6
  9
$SURFTAB2
 70
     6
  9
$SURFTYPE
 70
     6
  9
$SURFU
 70
     6
  9
$SURFV
 70
     6
  9
$UCSBASE
  2

  9
$UCSNAME
  2

  9
$UCSORG
 10
0.0
 20
0.0
 30
0.0
  9
$UCSXDIR
 10
1.0
 20
0.0
 30
0.0
  9
$UCSYDIR
 10
0.0
 20
1.0
 30
0.0
  9
$UCSORTHOREF
  2

  9
$UCSORTHOVIEW
 70
     0
  9
$UCSORGTOP
 10
0.0
 20
0.0
 30
0.0
  9
$UCSORGBOTTOM
 10
0.0
 20
0.0
 30
0.0
  9
$UCSORGLEFT
 10
0.0
 20
0.0
 30
0.0
  9
$UCSORGRIGHT
 10
0.0
 20
0.0
 30
0.0
  9
$UCSORGFRONT
 10
0.0
 20
0.0
 30
0.0
  9
$UCSORGBACK
 10
0.0
 20
0.0
 30
0.0
  9
$PUCSBASE
  2

  9
$PUCSNAME
  2

  9
$PUCSORG
 10
0.0
 20
0.0
 30
0.0
  9
$PUCSXDIR
 10
1.0
 20
0.0
 30
0.0
  9
$PUCSYDIR
 10
0.0
 20
1.0
 30
0.0
  9
$PUCSORTHOREF
  2

  9
$PUCSORTHOVIEW
 70
     0
  9
$PUCSORGTOP
 10
0.0
 20
0.0
 30
0.0
  9
$PUCSORGBOTTOM
 10
0.0
 20
0.0
 30
0.0
  9
$PUCSORGLEFT
 10
0.0
 20
0.0
 30
0.0
  9
$PUCSORGRIGHT
 10
0.0
 20
0.0
 30
0.0
  9
$PUCSORGFRONT
 10
0.0
 20
0.0
 30
0.0
  9
$PUCSORGBACK
 10
0.0
 20
0.0
 30
0.0
  9
$USERI1
 70
     0
  9
$USERI2
 70
     0
  9
$USERI3
 70
     0
  9
$USERI4
 70
     0
  9
$USERI5
 70
     0
  9
$USERR1
 40
0.0
  9
$USERR2
 40
0.0
  9
$USERR3
 40
0.0
  9
$USERR4
 40
0.0
  9
$USERR5
 40
0.0
  9
$WORLDVIEW
 70
     1
  9
$SHADEDGE
 70
     3
  9
$SHADEDIF
 70
    70
  9
$TILEMODE
 70
     1
  9
$MAXACTVP
 70
    64
  9
$PINSBASE
 10
0.0
 20
0.0
 30
0.0
  9
$PLIMCHECK
 70
     0
  9
$PEXTMIN
 10
1.000000000000000E+20
 20
1.000000000000000E+20
 30
1.000000000000000E+20
  9
$PEXTMAX
 10
-1.000000000000000E+20
 20
-1.000000000000000E+20
 30
-1.000000000000000E+20
  9
$PLIMMIN
 10
0.0
 20
0.0
  9
$PLIMMAX
 10
12.0
 20
9.0
  9
$UNITMODE
 70
     0
  9
$VISRETAIN
 70
     1
  9
$PLINEGEN
 70
     0
  9
$PSLTSCALE
 70
     1
  9
$TREEDEPTH
 70
  3020
  9
$CMLSTYLE
  2
Standard
  9
$CMLJUST
 70
     0
  9
$CMLSCALE
 40
1.0
  9
$PROXYGRAPHICS
 70
     1
  9
$MEASUREMENT
 70
     0
  9
$CELWEIGHT
370
    -1
  9
$ENDCAPS
280
     0
  9
$JOINSTYLE
280
     0
  9
$LWDISPLAY
290
     1
  9
$INSUNITS
 70
     1
  9
$HYPERLINKBASE
  1

  9
$STYLESHEET
  1

  9
$XEDIT
290
     1
  9
$CEPSNTYPE
380
     0
  9
$PSTYLEMODE
290
     1
  9
$FINGERPRINTGUID
  2
{2B82BC09-1148-8CC1-E813-EEC4FFFE5980}
  9
$VERSIONGUID
  2
{FAEB1C32-E019-11D5-929B-00C0DF256EC4}
  9
$EXTNAMES
290
     1
  9
$PSVPSCALE
 40
0.0
  9
$OLESTARTUP
290
     0
  9
$SORTENTS
280
   127
  9
$INDEXCTL
280
     0
  9
$HIDETEXT
280
     1
  9
$XCLIPFRAME
290
     0
  9
$HALOGAP
280
     0
  9
$OBSCOLOR
 70
   257
  9
$OBSLTYPE
280
     0
  9
$INTERSECTIONDISPLAY
280
     0
  9
$INTERSECTIONCOLOR
 70
   257
  9
$DIMASSOC
280
     2
  9
$PROJECTNAME
  1

  0
ENDSEC
  0
SECTION
  2
CLASSES
  0
CLASS
  1
ACDBDICTIONARYWDFLT
  2
AcDbDictionaryWithDefault
  3
ObjectDBX Classes
 90
        0
 91
        3
280
     0
281
     0
  0
CLASS
  1
VISUALSTYLE
  2
AcDbVisualStyle
  3
ObjectDBX Classes
 90
     4095
 91
        3
280
     0
281
     0
  0
ENDSEC
  0
SECTION
  2
TABLES
  0
TABLE
  2
VPORT
  5
8
330
0
100
AcDbSymbolTable
 70
     1
  0
VPORT
  5
29
330
8
100
AcDbSymbolTableRecord
100
AcDbViewportTableRecord
  2
*Active
 70
     0
 10
0.0
 20
0.0
 11
1.0
 21
1.0
 12
0.0
 22
0.0
 13
0.0
 23
0.0
 14
0.5
 24
0.5
 15
0.5
 25
0.5
 16
0.0
 26
0.0
 36
1.0
 17
103.8524034028563
 27
-145.9957397095948
 37
0.0
 40
150.6088948191186
 41
1.100901482035552
 42
50.0
 43
0.0
 44
0.0
 50
0.0
 51
0.0
 71
     0
 72
   100
 73
     1
 74
     3
 75
     0
 76
     0
 77
     0
 78
     0
281
     0
 65
     1
110
0.0
120
0.0
130
0.0
111
1.0
121
0.0
131
0.0
112
0.0
122
1.0
132
0.0
 79
     0
146
0.0
  0
ENDTAB
  0
TABLE
  2
LTYPE
  5
5
330
0
100
AcDbSymbolTable
 70
     1
  0
LTYPE
  5
14
330
5
100
AcDbSymbolTableRecord
100
AcDbLinetypeTableRecord
  2
ByBlock
 70
     0
  3

 72
    65
 73
     0
 40
0.0
  0
LTYPE
  5
15
330
5
100
AcDbSymbolTableRecord
100
AcDbLinetypeTableRecord
  2
ByLayer
 70
     0
  3

 72
    65
 73
     0
 40
0.0
  0
LTYPE
  5
16
330
5
100
AcDbSymbolTableRecord
100
AcDbLinetypeTableRecord
  2
Continuous
 70
     0
  3
Solid line
 72
    65
 73
     0
 40
0.0
  0
ENDTAB
  0
TABLE
  2
LAYER
  5
2
330
0
100
AcDbSymbolTable
 70
     2
  0
LAYER
  5
10
330
2
100
AcDbSymbolTableRecord
100
AcDbLayerTableRecord
  2
0
 70
     0
 62
     7
  6
Continuous
370
    -3
390
F
  0
LAYER
  5
3B
330
2
100
AcDbSymbolTableRecord
100
AcDbLayerTableRecord
  2
Ebene 1
 70
     0
 62
     7
  6
Continuous
370
    -3
390
F
  0
ENDTAB
  0
TABLE
  2
STYLE
  5
3
330
0
100
AcDbSymbolTable
 70
     1
  0
STYLE
  5
11
330
3
100
AcDbSymbolTableRecord
100
AcDbTextStyleTableRecord
  2
Standard
 70
     0
 40
0.0
 41
1.0
 50
0.0
 71
     0
 42
0.2
  3
txt
  4

  0
ENDTAB
  0
TABLE
  2
VIEW
  5
6
330
0
100
AcDbSymbolTable
 70
     0
  0
ENDTAB
  0
TABLE
  2
UCS
  5
7
330
0
100
AcDbSymbolTable
 70
     0
  0
ENDTAB
  0
TABLE
  2
APPID
  5
9
330
0
100
AcDbSymbolTable
 70
     1
  0
APPID
  5
12
330
9
100
AcDbSymbolTableRecord
100
AcDbRegAppTableRecord
  2
ACAD
 70
     0
  0
ENDTAB
  0
TABLE
  2
DIMSTYLE
  5
A
330
0
100
AcDbSymbolTable
 70
     1
100
AcDbDimStyleTable
  0
DIMSTYLE
105
27
330
A
100
AcDbSymbolTableRecord
100
AcDbDimStyleTableRecord
  2
Standard
 70
     0
340
11
  0
ENDTAB
  0
TABLE
  2
BLOCK_RECORD
  5
1
330
0
100
AcDbSymbolTable
 70
     7
  0
BLOCK_RECORD
  5
1F
330
1
100
AcDbSymbolTableRecord
100
AcDbBlockTableRecord
  2
*Model_Space
340
22
  0
BLOCK_RECORD
  5
1B
330
1
100
AcDbSymbolTableRecord
100
AcDbBlockTableRecord
  2
*Paper_Space
340
1E
  0
BLOCK_RECORD
  5
23
330
1
100
AcDbSymbolTableRecord
100
AcDbBlockTableRecord
  2
*Paper_Space0
340
26
  0
BLOCK_RECORD
  5
51
330
1
100
AcDbSymbolTableRecord
100
AcDbBlockTableRecord
  2
block 2
340
0
102
{BLKREFS
331
52
102
}
  0
BLOCK_RECORD
  5
116
330
1
100
AcDbSymbolTableRecord
100
AcDbBlockTableRecord
  2
block 3
340
0
102
{BLKREFS
331
117
102
}
  0
BLOCK_RECORD
  5
145
330
1
100
AcDbSymbolTableRecord
100
AcDbBlockTableRecord
  2
block 4
340
0
102
{BLKREFS
331
146
102
}
  0
BLOCK_RECORD
  5
149
330
1
100
AcDbSymbolTableRecord
100
AcDbBlockTableRecord
  2
block 5
340
0
102
{BLKREFS
331
14A
102
}
  0
BLOCK_RECORD
  5
224
330
1
100
AcDbSymbolTableRecord
100
AcDbBlockTableRecord
  2
block 6
340
0
102
{BLKREFS
331
225
102
}
  0
BLOCK_RECORD
  5
228
330
1
100
AcDbSymbolTableRecord
100
AcDbBlockTableRecord
  2
block 7
340
0
102
{BLKREFS
331
229
102
}
  0
ENDTAB
  0
ENDSEC
  0
SECTION
  2
BLOCKS
  0
BLOCK
  5
20
330
1F
100
AcDbEntity
  8
0
100
AcDbBlockBegin
  2
*Model_Space
 70
     0
 71
     0
 10
0.0
 20
0.0
 30
0.0
  3
*Model_Space
  1

  0
ENDBLK
  5
21
330
1F
100
AcDbEntity
  8
0
100
AcDbBlockEnd
  0
BLOCK
  5
1C
330
1B
100
AcDbEntity
 67
     1
  8
0
100
AcDbBlockBegin
  2
*Paper_Space
 70
     0
 71
     0
 10
0.0
 20
0.0
 30
0.0
  3
*Paper_Space
  1

  0
ENDBLK
  5
1D
330
1B
100
AcDbEntity
 67
     1
  8
0
100
AcDbBlockEnd
  0
BLOCK
  5
24
330
23
100
AcDbEntity
  8
0
100
AcDbBlockBegin
  2
*Paper_Space0
 70
     0
 71
     0
 10
0.0
 20
0.0
 30
0.0
  3
*Paper_Space0
  1

  0
ENDBLK
  5
25
330
23
100
AcDbEntity
  8
0
100
AcDbBlockEnd
  0
BLOCK
  5
53
330
51
100
AcDbEntity
  8
0
100
AcDbBlockBegin
  2
block 2
 70
     0
 71
     0
 10
0.0
 20
0.0
 30
0.0
  3
block 2
  1

  0
POLYLINE
  5
55
330
51
100
AcDbEntity
  8
Ebene 1
370
     0
100
AcDb2dPolyline
 66
     1
 10
0.0
 20
0.0
 30
0.0
  0
VERTEX
  5
56
330
55
100
AcDbEntity
  8
Ebene 1
370
     0
100
AcDbVertex
100
AcDb2dVertex
 10
55.06054957390847
 20
-97.57991805286197
 30
0.0
  0
VERTEX
  5
57
330
55
100
AcDbEntity
  8
Ebene 1
370
     0
100
AcDbVertex
100
AcDb2dVertex
 10
53.00176051192317
 20
-99.55998668300931
 30
0.0
  0
VERTEX
  5
58
330
55
100
AcDbEntity
  8
Ebene 1
370
     0
100
AcDbVertex
100
AcDb2dVertex
 10
49.12051593824071
 20
-99.55998668300931
 30
0.0
  0
VERTEX
  5
59
330
55
100
AcDbEntity
  8
Ebene 1
370
     0
100
AcDbVertex
100
AcDb2dVertex
 10
49.12051593824071
 20
-104.5100721309905
 30
0.0
  0
VERTEX
  5
5A
330
55
100
AcDbEntity
  8
Ebene 1
370
     0
100
AcDbVertex
100
AcDb2dVertex
 10
47.1402750533191
 20
-104.5100721309905
 30
0.0
  0
VERTEX
  5
5B
330
55
100
AcDbEntity
  8
Ebene 1
370
     0
100
AcDbVertex
100
AcDb2dVertex
 10
47.1402750533191
 20
-92.62931584055795
 30
0.0
  0
VERTEX
  5
5C
330
55
100
AcDbEntity
  8
Ebene 1
370
     0
100
AcDbVertex
100
AcDb2dVertex
 10
53.08065319853539
 20
-92.62931584055795
 30
0.0
  0
VERTEX
  5
5D
330
55
100
AcDbEntity
  8
Ebene 1
370
     0
100
AcDbVertex
100
AcDb2dVertex
 10
55.06054957390847
 20
-94.60955672547956
 30
0.0
  0
VERTEX
  5
5E
330
55
100
AcDbEntity
  8
Ebene 1
370
     0
100
AcDbVertex
100
AcDb2dVertex
 10
55.06054957390847
 20
-97.57991805286197
 30
0.0
  0
SEQEND
  5
5F
330
55
100
AcDbEntity
  8
Ebene 1
370
     0
  0
POLYLINE
  5
60
330
51
100
AcDbEntity
  8
Ebene 1
370
     0
100
AcDb2dPolyline
 66
     1
 10
0.0
 20
0.0
 30
0.0
  0
VERTEX
  5
61
330
60
100
AcDbEntity
  8
Ebene 1
370
     0
100
AcDbVertex
100
AcDb2dVertex
 10
53.08065319853539
 20
-96.76790904698858
 30
0.0
  0
VERTEX
  5
62
330
60
100
AcDbEntity
  8
Ebene 1
370
     0
100
AcDbVertex
100
AcDb2dVertex
 10
53.08065319853539
 20
-95.42139347657869
 30
0.0
  0
VERTEX
  5
63
330
60
100
AcDbEntity
  8
Ebene 1
370
     0
100
AcDbVertex
100
AcDb2dVertex
 10
52.26864419266201
 20
-94.60955672547956
 30
0.0
  0
VERTEX
  5
64
330
60
100
AcDbEntity
  8
Ebene 1
370
     0
100
AcDbVertex
100
AcDb2dVertex
 10
49.12051593824071
 20
-94.60955672547956
 30
0.0
  0
VERTEX
  5
65
330
60
100
AcDbEntity
  8
Ebene 1
370
     0
100
AcDbVertex
100
AcDb2dVertex
 10
49.12051593824071
 20
-97.57991805286197
 30
0.0
  0
VERTEX
  5
66
330
60
100
AcDbEntity
  8
Ebene 1
370
     0
100
AcDbVertex
100
AcDb2dVertex
 10
52.26864419266201
 20
-97.57991805286197
 30
0.0
  0
VERTEX
  5
67
330
60
100
AcDbEntity
  8
Ebene 1
370
     0
100
AcDbVertex
100
AcDb2dVertex
 10
53.08065319853539
 20
-96.76790904698858
 30
0.0
  0
SEQEND
  5
68
330
60
100
AcDbEntity
  8
Ebene 1
370
     0
  0
POLYLINE
  5
69
330
51
100
AcDbEntity
  8
Ebene 1
370
     0
100
AcDb2dPolyline
 66
     1
 10
0.0
 20
0.0
 30
0.0
  0
VERTEX
  5
6A
330
69
100
AcDbEntity
  8
Ebene 1
370
     0
100
AcDbVertex
100
AcDb2dVertex
 10
66.34771591223252
 20
-104.5100721309905
 30
0.0
  0
VERTEX
  5
6B
330
69
100
AcDbEntity
  8
Ebene 1
370
     0
100
AcDbVertex
100
AcDb2dVertex
 10
58.42709688209462
 20
-104.5100721309905
 30
0.0
  0
VERTEX
  5
6C
330
69
100
AcDbEntity
  8
Ebene 1
370
     0
100
AcDbVertex
100
AcDb2dVertex
 10
58.42709688209462
 20
-92.62931584055795
 30
0.0
  0
VERTEX
  5
6D
330
69
100
AcDbEntity
  8
Ebene 1
370
     0
100
AcDbVertex
100
AcDb2dVertex
 10
66.34771591223252
 20
-92.62931584055795
 30
0.0
  0
VERTEX
  5
6E
330
69
100
AcDbEntity
  8
Ebene 1
370
     0
100
AcDbVertex
100
AcDb2dVertex
 10
66.34771591223252
 20
-94.60955672547956
 30
0.0
  0
VERTEX
  5
6F
330
69
100
AcDbEntity
  8
Ebene 1
370
     0
100
AcDbVertex
100
AcDb2dVertex
 10
60.4069932574677
 20
-94.60955672547956
 30
0.0
  0
VERTEX
  5
70
330
69
100
AcDbEntity
  8
Ebene 1
370
     0
100
AcDbVertex
100
AcDb2dVertex
 10
60.4069932574677
 20
-97.57991805286197
 30
0.0
  0
VERTEX
  5
71
330
69
100
AcDbEntity
  8
Ebene 1
370
     0
100
AcDbVertex
100
AcDb2dVertex
 10
63.37701007530158
 20
-97.57991805286197
 30
0.0
  0
VERTEX
  5
72
330
69
100
AcDbEntity
  8
Ebene 1
370
     0
100
AcDbVertex
100
AcDb2dVertex
 10
63.37701007530158
 20
-99.55998668300931
 30
0.0
  0
VERTEX
  5
73
330
69
100
AcDbEntity
  8
Ebene 1
370
     0
100
AcDbVertex
100
AcDb2dVertex
 10
60.4069932574677
 20
-99.55998668300931
 30
0.0
  0
VERTEX
  5
74
330
69
100
AcDbEntity
  8
Ebene 1
370
     0
100
AcDbVertex
100
AcDb2dVertex
 10
60.4069932574677
 20
-102.5301757556175
 30
0.0
  0
VERTEX
  5
75
330
69
100
AcDbEntity
  8
Ebene 1
370
     0
100
AcDbVertex
100
AcDb2dVertex
 10
66.34771591223252
 20
-102.5301757556175
 30
0.0
  0
VERTEX
  5
76
330
69
100
AcDbEntity
  8
Ebene 1
370
     0
100
AcDbVertex
100
AcDb2dVertex
 10
66.34771591223252
 20
-104.5100721309905
 30
0.0
  0
SEQEND
  5
77
330
69
100
AcDbEntity
  8
Ebene 1
370
     0
  0
POLYLINE
  5
78
330
51
100
AcDbEntity
  8
Ebene 1
370
     0
100
AcDb2dPolyline
 66
     1
 10
0.0
 20
0.0
 30
0.0
  0
VERTEX
  5
79
330
78
100
AcDbEntity
  8
Ebene 1
370
     0
100
AcDbVertex
100
AcDb2dVertex
 10
77.63384872191098
 20
-97.57991805286197
 30
0.0
  0
VERTEX
  5
7A
330
78
100
AcDbEntity
  8
Ebene 1
370
     0
100
AcDbVertex
100
AcDb2dVertex
 10
75.57437064082863
 20
-99.55998668300931
 30
0.0
  0
VERTEX
  5
7B
330
78
100
AcDbEntity
  8
Ebene 1
370
     0
100
AcDbVertex
100
AcDb2dVertex
 10
77.63384872191098
 20
-104.5100721309905
 30
0.0
  0
VERTEX
  5
7C
330
78
100
AcDbEntity
  8
Ebene 1
370
     0
100
AcDbVertex
100
AcDb2dVertex
 10
75.47549640040197
 20
-104.5100721309905
 30
0.0
  0
VERTEX
  5
7D
330
78
100
AcDbEntity
  8
Ebene 1
370
     0
100
AcDbVertex
100
AcDb2dVertex
 10
73.37674423078776
 20
-99.55998668300931
 30
0.0
  0
VERTEX
  5
7E
330
78
100
AcDbEntity
  8
Ebene 1
370
     0
100
AcDbVertex
100
AcDb2dVertex
 10
71.6934705766947
 20
-99.55998668300931
 30
0.0
  0
VERTEX
  5
7F
330
78
100
AcDbEntity
  8
Ebene 1
370
     0
100
AcDbVertex
100
AcDb2dVertex
 10
71.6934705766947
 20
-104.5100721309905
 30
0.0
  0
VERTEX
  5
80
330
78
100
AcDbEntity
  8
Ebene 1
370
     0
100
AcDbVertex
100
AcDb2dVertex
 10
69.71322969177308
 20
-104.5100721309905
 30
0.0
  0
VERTEX
  5
81
330
78
100
AcDbEntity
  8
Ebene 1
370
     0
100
AcDbVertex
100
AcDb2dVertex
 10
69.71322969177308
 20
-92.62931584055795
 30
0.0
  0
VERTEX
  5
82
330
78
100
AcDbEntity
  8
Ebene 1
370
     0
100
AcDbVertex
100
AcDb2dVertex
 10
75.65360783698938
 20
-92.62931584055795
 30
0.0
  0
VERTEX
  5
83
330
78
100
AcDbEntity
  8
Ebene 1
370
     0
100
AcDbVertex
100
AcDb2dVertex
 10
77.63384872191098
 20
-94.60955672547956
 30
0.0
  0
VERTEX
  5
84
330
78
100
AcDbEntity
  8
Ebene 1
370
     0
100
AcDbVertex
100
AcDb2dVertex
 10
77.63384872191098
 20
-97.57991805286197
 30
0.0
  0
SEQEND
  5
85
330
78
100
AcDbEntity
  8
Ebene 1
370
     0
  0
POLYLINE
  5
86
330
51
100
AcDbEntity
  8
Ebene 1
370
     0
100
AcDb2dPolyline
 66
     1
 10
0.0
 20
0.0
 30
0.0
  0
VERTEX
  5
87
330
86
100
AcDbEntity
  8
Ebene 1
370
     0
100
AcDbVertex
100
AcDb2dVertex
 10
75.65360783698938
 20
-96.76790904698858
 30
0.0
  0
VERTEX
  5
88
330
86
100
AcDbEntity
  8
Ebene 1
370
     0
100
AcDbVertex
100
AcDb2dVertex
 10
75.65360783698938
 20
-95.42139347657869
 30
0.0
  0
VERTEX
  5
89
330
86
100
AcDbEntity
  8
Ebene 1
370
     0
100
AcDbVertex
100
AcDb2dVertex
 10
74.84194334066451
 20
-94.60955672547956
 30
0.0
  0
VERTEX
  5
8A
330
86
100
AcDbEntity
  8
Ebene 1
370
     0
100
AcDbVertex
100
AcDb2dVertex
 10
71.6934705766947
 20
-94.60955672547956
 30
0.0
  0
VERTEX
  5
8B
330
86
100
AcDbEntity
  8
Ebene 1
370
     0
100
AcDbVertex
100
AcDb2dVertex
 10
71.6934705766947
 20
-97.57991805286197
 30
0.0
  0
VERTEX
  5
8C
330
86
100
AcDbEntity
  8
Ebene 1
370
     0
100
AcDbVertex
100
AcDb2dVertex
 10
74.84194334066451
 20
-97.57991805286197
 30
0.0
  0
VERTEX
  5
8D
330
86
100
AcDbEntity
  8
Ebene 1
370
     0
100
AcDbVertex
100
AcDb2dVertex
 10
75.65360783698938
 20
-96.76790904698858
 30
0.0
  0
SEQEND
  5
8E
330
86
100
AcDbEntity
  8
Ebene 1
370
     0
  0
POLYLINE
  5
8F
330
51
100
AcDbEntity
  8
Ebene 1
370
     0
100
AcDb2dPolyline
 66
     1
 10
0.0
 20
0.0
 30
0.0
  0
VERTEX
  5
90
330
8F
100
AcDbEntity
  8
Ebene 1
370
     0
100
AcDbVertex
100
AcDb2dVertex
 10
88.92032604113798
 20
-102.5301757556175
 30
0.0
  0
VERTEX
  5
91
330
8F
100
AcDbEntity
  8
Ebene 1
370
     0
100
AcDbVertex
100
AcDb2dVertex
 10
86.94008515621637
 20
-104.5100721309905
 30
0.0
  0
VERTEX
  5
92
330
8F
100
AcDbEntity
  8
Ebene 1
370
     0
100
AcDbVertex
100
AcDb2dVertex
 10
82.98029240547021
 20
-104.5100721309905
 30
0.0
  0
VERTEX
  5
93
330
8F
100
AcDbEntity
  8
Ebene 1
370
     0
100
AcDbVertex
100
AcDb2dVertex
 10
81.0000515205486
 20
-102.5301757556175
 30
0.0
  0
VERTEX
  5
94
330
8F
100
AcDbEntity
  8
Ebene 1
370
     0
100
AcDbVertex
100
AcDb2dVertex
 10
81.0000515205486
 20
-101.5400553131567
 30
0.0
  0
VERTEX
  5
95
330
8F
100
AcDbEntity
  8
Ebene 1
370
     0
100
AcDbVertex
100
AcDb2dVertex
 10
82.98029240547021
 20
-101.5400553131567
 30
0.0
  0
VERTEX
  5
96
330
8F
100
AcDbEntity
  8
Ebene 1
370
     0
100
AcDbVertex
100
AcDb2dVertex
 10
82.98029240547021
 20
-101.7185112592926
 30
0.0
  0
VERTEX
  5
97
330
8F
100
AcDbEntity
  8
Ebene 1
370
     0
100
AcDbVertex
100
AcDb2dVertex
 10
83.79195690179507
 20
-102.5301757556175
 30
0.0
  0
VERTEX
  5
98
330
8F
100
AcDbEntity
  8
Ebene 1
370
     0
100
AcDbVertex
100
AcDb2dVertex
 10
86.12876516944003
 20
-102.5301757556175
 30
0.0
  0
VERTEX
  5
99
330
8F
100
AcDbEntity
  8
Ebene 1
370
     0
100
AcDbVertex
100
AcDb2dVertex
 10
86.94008515621637
 20
-101.7185112592926
 30
0.0
  0
VERTEX
  5
9A
330
8F
100
AcDbEntity
  8
Ebene 1
370
     0
100
AcDbVertex
100
AcDb2dVertex
 10
86.94008515621637
 20
-100.3718234341084
 30
0.0
  0
VERTEX
  5
9B
330
8F
100
AcDbEntity
  8
Ebene 1
370
     0
100
AcDbVertex
100
AcDb2dVertex
 10
86.12876516944003
 20
-99.55998668300931
 30
0.0
  0
VERTEX
  5
9C
330
8F
100
AcDbEntity
  8
Ebene 1
370
     0
100
AcDbVertex
100
AcDb2dVertex
 10
82.98029240547021
 20
-99.55998668300931
 30
0.0
  0
VERTEX
  5
9D
330
8F
100
AcDbEntity
  8
Ebene 1
370
     0
100
AcDbVertex
100
AcDb2dVertex
 10
81.0000515205486
 20
-97.57991805286197
 30
0.0
  0
VERTEX
  5
9E
330
8F
100
AcDbEntity
  8
Ebene 1
370
     0
100
AcDbVertex
100
AcDb2dVertex
 10
81.0000515205486
 20
-94.60955672547956
 30
0.0
  0
VERTEX
  5
9F
330
8F
100
AcDbEntity
  8
Ebene 1
370
     0
100
AcDbVertex
100
AcDb2dVertex
 10
82.98029240547021
 20
-92.62931584055795
 30
0.0
  0
VERTEX
  5
A0
330
8F
100
AcDbEntity
  8
Ebene 1
370
     0
100
AcDbVertex
100
AcDb2dVertex
 10
86.94008515621637
 20
-92.62931584055795
 30
0.0
  0
VERTEX
  5
A1
330
8F
100
AcDbEntity
  8
Ebene 1
370
     0
100
AcDbVertex
100
AcDb2dVertex
 10
88.92032604113798
 20
-94.60955672547956
 30
0.0
  0
VERTEX
  5
A2
330
8F
100
AcDbEntity
  8
Ebene 1
370
     0
100
AcDbVertex
100
AcDb2dVertex
 10
88.92032604113798
 20
-95.5995049131661
 30
0.0
  0
VERTEX
  5
A3
330
8F
100
AcDbEntity
  8
Ebene 1
370
     0
100
AcDbVertex
100
AcDb2dVertex
 10
86.94008515621637
 20
-95.5995049131661
 30
0.0
  0
VERTEX
  5
A4
330
8F
100
AcDbEntity
  8
Ebene 1
370
     0
100
AcDbVertex
100
AcDb2dVertex
 10
86.94008515621637
 20
-95.42139347657869
 30
0.0
  0
VERTEX
  5
A5
330
8F
100
AcDbEntity
  8
Ebene 1
370
     0
100
AcDbVertex
100
AcDb2dVertex
 10
86.12876516944003
 20
-94.60955672547956
 30
0.0
  0
VERTEX
  5
A6
330
8F
100
AcDbEntity
  8
Ebene 1
370
     0
100
AcDbVertex
100
AcDb2dVertex
 10
83.79195690179507
 20
-94.60955672547956
 30
0.0
  0
VERTEX
  5
A7
330
8F
100
AcDbEntity
  8
Ebene 1
370
     0
100
AcDbVertex
100
AcDb2dVertex
 10
82.98029240547021
 20
-95.42139347657869
 30
0.0
  0
VERTEX
  5
A8
330
8F
100
AcDbEntity
  8
Ebene 1
370
     0
100
AcDbVertex
100
AcDb2dVertex
 10
82.98029240547021
 20
-96.76790904698858
 30
0.0
  0
VERTEX
  5
A9
330
8F
100
AcDbEntity
  8
Ebene 1
370
     0
100
AcDbVertex
100
AcDb2dVertex
 10
83.79195690179507
 20
-97.57991805286197
 30
0.0
  0
VERTEX
  5
AA
330
8F
100
AcDbEntity
  8
Ebene 1
370
     0
100
AcDbVertex
100
AcDb2dVertex
 10
86.94008515621637
 20
-97.57991805286197
 30
0.0
  0
VERTEX
  5
AB
330
8F
100
AcDbEntity
  8
Ebene 1
370
     0
100
AcDbVertex
100
AcDb2dVertex
 10
88.92032604113798
 20
-99.55998668300931
 30
0.0
  0
VERTEX
  5
AC
330
8F
100
AcDbEntity
  8
Ebene 1
370
     0
100
AcDbVertex
100
AcDb2dVertex
 10
88.92032604113798
 20
-102.5301757556175
 30
0.0
  0
SEQEND
  5
AD
330
8F
100
AcDbEntity
  8
Ebene 1
370
     0
  0
POLYLINE
  5
AE
330
51
100
AcDbEntity
  8
Ebene 1
370
     0
100
AcDb2dPolyline
 66
     1
 10
0.0
 20
0.0
 30
0.0
  0
VERTEX
  5
AF
330
AE
100
AcDbEntity
  8
Ebene 1
370
     0
100
AcDbVertex
100
AcDb2dVertex
 10
100.206803360365
 20
-104.5100721309905
 30
0.0
  0
VERTEX
  5
B0
330
AE
100
AcDbEntity
  8
Ebene 1
370
     0
100
AcDbVertex
100
AcDb2dVertex
 10
92.2865288397756
 20
-104.5100721309905
 30
0.0
  0
VERTEX
  5
B1
330
AE
100
AcDbEntity
  8
Ebene 1
370
     0
100
AcDbVertex
100
AcDb2dVertex
 10
92.2865288397756
 20
-92.62931584055795
 30
0.0
  0
VERTEX
  5
B2
330
AE
100
AcDbEntity
  8
Ebene 1
370
     0
100
AcDbVertex
100
AcDb2dVertex
 10
100.206803360365
 20
-92.62931584055795
 30
0.0
  0
VERTEX
  5
B3
330
AE
100
AcDbEntity
  8
Ebene 1
370
     0
100
AcDbVertex
100
AcDb2dVertex
 10
100.206803360365
 20
-94.60955672547956
 30
0.0
  0
VERTEX
  5
B4
330
AE
100
AcDbEntity
  8
Ebene 1
370
     0
100
AcDbVertex
100
AcDb2dVertex
 10
94.26711423424572
 20
-94.60955672547956
 30
0.0
  0
VERTEX
  5
B5
330
AE
100
AcDbEntity
  8
Ebene 1
370
     0
100
AcDbVertex
100
AcDb2dVertex
 10
94.26711423424572
 20
-97.57991805286197
 30
0.0
  0
VERTEX
  5
B6
330
AE
100
AcDbEntity
  8
Ebene 1
370
     0
100
AcDbVertex
100
AcDb2dVertex
 10
97.23678654253109
 20
-97.57991805286197
 30
0.0
  0
VERTEX
  5
B7
330
AE
100
AcDbEntity
  8
Ebene 1
370
     0
100
AcDbVertex
100
AcDb2dVertex
 10
97.23678654253109
 20
-99.55998668300931
 30
0.0
  0
VERTEX
  5
B8
330
AE
100
AcDbEntity
  8
Ebene 1
370
     0
100
AcDbVertex
100
AcDb2dVertex
 10
94.26711423424572
 20
-99.55998668300931
 30
0.0
  0
VERTEX
  5
B9
330
AE
100
AcDbEntity
  8
Ebene 1
370
     0
100
AcDbVertex
100
AcDb2dVertex
 10
94.26711423424572
 20
-102.5301757556175
 30
0.0
  0
VERTEX
  5
BA
330
AE
100
AcDbEntity
  8
Ebene 1
370
     0
100
AcDbVertex
100
AcDb2dVertex
 10
100.206803360365
 20
-102.5301757556175
 30
0.0
  0
VERTEX
  5
BB
330
AE
100
AcDbEntity
  8
Ebene 1
370
     0
100
AcDbVertex
100
AcDb2dVertex
 10
100.206803360365
 20
-104.5100721309905
 30
0.0
  0
SEQEND
  5
BC
330
AE
100
AcDbEntity
  8
Ebene 1
370
     0
  0
POLYLINE
  5
BD
330
51
100
AcDbEntity
  8
Ebene 1
370
     0
100
AcDb2dPolyline
 66
     1
 10
0.0
 20
0.0
 30
0.0
  0
VERTEX
  5
BE
330
BD
100
AcDbEntity
  8
Ebene 1
370
     0
100
AcDbVertex
100
AcDb2dVertex
 10
111.493280679592
 20
-97.57991805286197
 30
0.0
  0
VERTEX
  5
BF
330
BD
100
AcDbEntity
  8
Ebene 1
370
     0
100
AcDbVertex
100
AcDb2dVertex
 10
109.4344916176067
 20
-99.55998668300931
 30
0.0
  0
VERTEX
  5
C0
330
BD
100
AcDbEntity
  8
Ebene 1
370
     0
100
AcDbVertex
100
AcDb2dVertex
 10
105.5532470439242
 20
-99.55998668300931
 30
0.0
  0
VERTEX
  5
C1
330
BD
100
AcDbEntity
  8
Ebene 1
370
     0
100
AcDbVertex
100
AcDb2dVertex
 10
105.5532470439242
 20
-104.5100721309905
 30
0.0
  0
VERTEX
  5
C2
330
BD
100
AcDbEntity
  8
Ebene 1
370
     0
100
AcDbVertex
100
AcDb2dVertex
 10
103.5730061590026
 20
-104.5100721309905
 30
0.0
  0
VERTEX
  5
C3
330
BD
100
AcDbEntity
  8
Ebene 1
370
     0
100
AcDbVertex
100
AcDb2dVertex
 10
103.5730061590026
 20
-92.62931584055795
 30
0.0
  0
VERTEX
  5
C4
330
BD
100
AcDbEntity
  8
Ebene 1
370
     0
100
AcDbVertex
100
AcDb2dVertex
 10
109.5133843042189
 20
-92.62931584055795
 30
0.0
  0
VERTEX
  5
C5
330
BD
100
AcDbEntity
  8
Ebene 1
370
     0
100
AcDbVertex
100
AcDb2dVertex
 10
111.493280679592
 20
-94.60955672547956
 30
0.0
  0
VERTEX
  5
C6
330
BD
100
AcDbEntity
  8
Ebene 1
370
     0
100
AcDbVertex
100
AcDb2dVertex
 10
111.493280679592
 20
-97.57991805286197
 30
0.0
  0
SEQEND
  5
C7
330
BD
100
AcDbEntity
  8
Ebene 1
370
     0
  0
POLYLINE
  5
C8
330
51
100
AcDbEntity
  8
Ebene 1
370
     0
100
AcDb2dPolyline
 66
     1
 10
0.0
 20
0.0
 30
0.0
  0
VERTEX
  5
C9
330
C8
100
AcDbEntity
  8
Ebene 1
370
     0
100
AcDbVertex
100
AcDb2dVertex
 10
109.5133843042189
 20
-96.76790904698858
 30
0.0
  0
VERTEX
  5
CA
330
C8
100
AcDbEntity
  8
Ebene 1
370
     0
100
AcDbVertex
100
AcDb2dVertex
 10
109.5133843042189
 20
-95.42139347657869
 30
0.0
  0
VERTEX
  5
CB
330
C8
100
AcDbEntity
  8
Ebene 1
370
     0
100
AcDbVertex
100
AcDb2dVertex
 10
108.701719807894
 20
-94.60955672547956
 30
0.0
  0
VERTEX
  5
CC
330
C8
100
AcDbEntity
  8
Ebene 1
370
     0
100
AcDbVertex
100
AcDb2dVertex
 10
105.5532470439242
 20
-94.60955672547956
 30
0.0
  0
VERTEX
  5
CD
330
C8
100
AcDbEntity
  8
Ebene 1
370
     0
100
AcDbVertex
100
AcDb2dVertex
 10
105.5532470439242
 20
-97.57991805286197
 30
0.0
  0
VERTEX
  5
CE
330
C8
100
AcDbEntity
  8
Ebene 1
370
     0
100
AcDbVertex
100
AcDb2dVertex
 10
108.701719807894
 20
-97.57991805286197
 30
0.0
  0
VERTEX
  5
CF
330
C8
100
AcDbEntity
  8
Ebene 1
370
     0
100
AcDbVertex
100
AcDb2dVertex
 10
109.5133843042189
 20
-96.76790904698858
 30
0.0
  0
SEQEND
  5
D0
330
C8
100
AcDbEntity
  8
Ebene 1
370
     0
  0
POLYLINE
  5
D1
330
51
100
AcDbEntity
  8
Ebene 1
370
     0
100
AcDb2dPolyline
 66
     1
 10
0.0
 20
0.0
 30
0.0
  0
VERTEX
  5
D2
330
D1
100
AcDbEntity
  8
Ebene 1
370
     0
100
AcDbVertex
100
AcDb2dVertex
 10
122.7801025083675
 20
-102.5301757556175
 30
0.0
  0
VERTEX
  5
D3
330
D1
100
AcDbEntity
  8
Ebene 1
370
     0
100
AcDbVertex
100
AcDb2dVertex
 10
120.7206244272851
 20
-104.5100721309905
 30
0.0
  0
VERTEX
  5
D4
330
D1
100
AcDbEntity
  8
Ebene 1
370
     0
100
AcDbVertex
100
AcDb2dVertex
 10
116.8397243631512
 20
-104.5100721309905
 30
0.0
  0
VERTEX
  5
D5
330
D1
100
AcDbEntity
  8
Ebene 1
370
     0
100
AcDbVertex
100
AcDb2dVertex
 10
114.8598279877781
 20
-102.5301757556175
 30
0.0
  0
VERTEX
  5
D6
330
D1
100
AcDbEntity
  8
Ebene 1
370
     0
100
AcDbVertex
100
AcDb2dVertex
 10
114.8598279877781
 20
-94.60955672547956
 30
0.0
  0
VERTEX
  5
D7
330
D1
100
AcDbEntity
  8
Ebene 1
370
     0
100
AcDbVertex
100
AcDb2dVertex
 10
116.8397243631512
 20
-92.62931584055795
 30
0.0
  0
VERTEX
  5
D8
330
D1
100
AcDbEntity
  8
Ebene 1
370
     0
100
AcDbVertex
100
AcDb2dVertex
 10
120.8002061329944
 20
-92.62931584055795
 30
0.0
  0
VERTEX
  5
D9
330
D1
100
AcDbEntity
  8
Ebene 1
370
     0
100
AcDbVertex
100
AcDb2dVertex
 10
122.7801025083675
 20
-94.60955672547956
 30
0.0
  0
VERTEX
  5
DA
330
D1
100
AcDbEntity
  8
Ebene 1
370
     0
100
AcDbVertex
100
AcDb2dVertex
 10
122.7801025083675
 20
-102.5301757556175
 30
0.0
  0
SEQEND
  5
DB
330
D1
100
AcDbEntity
  8
Ebene 1
370
     0
  0
POLYLINE
  5
DC
330
51
100
AcDbEntity
  8
Ebene 1
370
     0
100
AcDb2dPolyline
 66
     1
 10
0.0
 20
0.0
 30
0.0
  0
VERTEX
  5
DD
330
DC
100
AcDbEntity
  8
Ebene 1
370
     0
100
AcDbVertex
100
AcDb2dVertex
 10
120.8002061329944
 20
-101.7185112592926
 30
0.0
  0
VERTEX
  5
DE
330
DC
100
AcDbEntity
  8
Ebene 1
370
     0
100
AcDbVertex
100
AcDb2dVertex
 10
120.8002061329944
 20
-95.42139347657869
 30
0.0
  0
VERTEX
  5
DF
330
DC
100
AcDbEntity
  8
Ebene 1
370
     0
100
AcDbVertex
100
AcDb2dVertex
 10
119.988197127121
 20
-94.60955672547956
 30
0.0
  0
VERTEX
  5
E0
330
DC
100
AcDbEntity
  8
Ebene 1
370
     0
100
AcDbVertex
100
AcDb2dVertex
 10
117.6517333690246
 20
-94.60955672547956
 30
0.0
  0
VERTEX
  5
E1
330
DC
100
AcDbEntity
  8
Ebene 1
370
     0
100
AcDbVertex
100
AcDb2dVertex
 10
116.8397243631512
 20
-95.42139347657869
 30
0.0
  0
VERTEX
  5
E2
330
DC
100
AcDbEntity
  8
Ebene 1
370
     0
100
AcDbVertex
100
AcDb2dVertex
 10
116.8397243631512
 20
-101.7185112592926
 30
0.0
  0
VERTEX
  5
E3
330
DC
100
AcDbEntity
  8
Ebene 1
370
     0
100
AcDbVertex
100
AcDb2dVertex
 10
117.6517333690246
 20
-102.5301757556175
 30
0.0
  0
VERTEX
  5
E4
330
DC
100
AcDbEntity
  8
Ebene 1
370
     0
100
AcDbVertex
100
AcDb2dVertex
 10
119.988197127121
 20
-102.5301757556175
 30
0.0
  0
VERTEX
  5
E5
330
DC
100
AcDbEntity
  8
Ebene 1
370
     0
100
AcDbVertex
100
AcDb2dVertex
 10
120.8002061329944
 20
-101.7185112592926
 30
0.0
  0
SEQEND
  5
E6
330
DC
100
AcDbEntity
  8
Ebene 1
370
     0
  0
POLYLINE
  5
E7
330
51
100
AcDbEntity
  8
Ebene 1
370
     0
100
AcDb2dPolyline
 66
     1
 10
0.0
 20
0.0
 30
0.0
  0
VERTEX
  5
E8
330
E7
100
AcDbEntity
  8
Ebene 1
370
     0
100
AcDbVertex
100
AcDb2dVertex
 10
134.0665798275945
 20
-104.5100721309905
 30
0.0
  0
VERTEX
  5
E9
330
E7
100
AcDbEntity
  8
Ebene 1
370
     0
100
AcDbVertex
100
AcDb2dVertex
 10
126.1463053070051
 20
-104.5100721309905
 30
0.0
  0
VERTEX
  5
EA
330
E7
100
AcDbEntity
  8
Ebene 1
370
     0
100
AcDbVertex
100
AcDb2dVertex
 10
126.1463053070051
 20
-92.62931584055795
 30
0.0
  0
VERTEX
  5
EB
330
E7
100
AcDbEntity
  8
Ebene 1
370
     0
100
AcDbVertex
100
AcDb2dVertex
 10
128.1262016823782
 20
-92.62931584055795
 30
0.0
  0
VERTEX
  5
EC
330
E7
100
AcDbEntity
  8
Ebene 1
370
     0
100
AcDbVertex
100
AcDb2dVertex
 10
128.1262016823782
 20
-102.5301757556175
 30
0.0
  0
VERTEX
  5
ED
330
E7
100
AcDbEntity
  8
Ebene 1
370
     0
100
AcDbVertex
100
AcDb2dVertex
 10
134.0665798275945
 20
-102.5301757556175
 30
0.0
  0
VERTEX
  5
EE
330
E7
100
AcDbEntity
  8
Ebene 1
370
     0
100
AcDbVertex
100
AcDb2dVertex
 10
134.0665798275945
 20
-104.5100721309905
 30
0.0
  0
SEQEND
  5
EF
330
E7
100
AcDbEntity
  8
Ebene 1
370
     0
  0
POLYLINE
  5
F0
330
51
100
AcDbEntity
  8
Ebene 1
370
     0
100
AcDb2dPolyline
 66
     1
 10
0.0
 20
0.0
 30
0.0
  0
VERTEX
  5
F1
330
F0
100
AcDbEntity
  8
Ebene 1
370
     0
100
AcDbVertex
100
AcDb2dVertex
 10
139.4126790016052
 20
-104.5100721309905
 30
0.0
  0
VERTEX
  5
F2
330
F0
100
AcDbEntity
  8
Ebene 1
370
     0
100
AcDbVertex
100
AcDb2dVertex
 10
137.4327826262321
 20
-104.5100721309905
 30
0.0
  0
VERTEX
  5
F3
330
F0
100
AcDbEntity
  8
Ebene 1
370
     0
100
AcDbVertex
100
AcDb2dVertex
 10
137.4327826262321
 20
-92.62931584055795
 30
0.0
  0
VERTEX
  5
F4
330
F0
100
AcDbEntity
  8
Ebene 1
370
     0
100
AcDbVertex
100
AcDb2dVertex
 10
139.4126790016052
 20
-92.62931584055795
 30
0.0
  0
VERTEX
  5
F5
330
F0
100
AcDbEntity
  8
Ebene 1
370
     0
100
AcDbVertex
100
AcDb2dVertex
 10
139.4126790016052
 20
-104.5100721309905
 30
0.0
  0
SEQEND
  5
F6
330
F0
100
AcDbEntity
  8
Ebene 1
370
     0
  0
POLYLINE
  5
F7
330
51
100
AcDbEntity
  8
Ebene 1
370
     0
100
AcDb2dPolyline
 66
     1
 10
0.0
 20
0.0
 30
0.0
  0
VERTEX
  5
F8
330
F7
100
AcDbEntity
  8
Ebene 1
370
     0
100
AcDbVertex
100
AcDb2dVertex
 10
150.6991563208322
 20
-102.5301757556175
 30
0.0
  0
VERTEX
  5
F9
330
F7
100
AcDbEntity
  8
Ebene 1
370
     0
100
AcDbVertex
100
AcDb2dVertex
 10
148.7196044550076
 20
-104.5100721309905
 30
0.0
  0
VERTEX
  5
FA
330
F7
100
AcDbEntity
  8
Ebene 1
370
     0
100
AcDbVertex
100
AcDb2dVertex
 10
144.7591226851644
 20
-104.5100721309905
 30
0.0
  0
VERTEX
  5
FB
330
F7
100
AcDbEntity
  8
Ebene 1
370
     0
100
AcDbVertex
100
AcDb2dVertex
 10
142.7788818002428
 20
-102.5301757556175
 30
0.0
  0
VERTEX
  5
FC
330
F7
100
AcDbEntity
  8
Ebene 1
370
     0
100
AcDbVertex
100
AcDb2dVertex
 10
142.7788818002428
 20
-101.5400553131567
 30
0.0
  0
VERTEX
  5
FD
330
F7
100
AcDbEntity
  8
Ebene 1
370
     0
100
AcDbVertex
100
AcDb2dVertex
 10
144.7591226851644
 20
-101.5400553131567
 30
0.0
  0
VERTEX
  5
FE
330
F7
100
AcDbEntity
  8
Ebene 1
370
     0
100
AcDbVertex
100
AcDb2dVertex
 10
144.7591226851644
 20
-101.7185112592926
 30
0.0
  0
VERTEX
  5
FF
330
F7
100
AcDbEntity
  8
Ebene 1
370
     0
100
AcDbVertex
100
AcDb2dVertex
 10
145.5711316910378
 20
-102.5301757556175
 30
0.0
  0
VERTEX
  5
100
330
F7
100
AcDbEntity
  8
Ebene 1
370
     0
100
AcDbVertex
100
AcDb2dVertex
 10
147.9075954491342
 20
-102.5301757556175
 30
0.0
  0
VERTEX
  5
101
330
F7
100
AcDbEntity
  8
Ebene 1
370
     0
100
AcDbVertex
100
AcDb2dVertex
 10
148.7196044550076
 20
-101.7185112592926
 30
0.0
  0
VERTEX
  5
102
330
F7
100
AcDbEntity
  8
Ebene 1
370
     0
100
AcDbVertex
100
AcDb2dVertex
 10
148.7196044550076
 20
-100.3718234341084
 30
0.0
  0
VERTEX
  5
103
330
F7
100
AcDbEntity
  8
Ebene 1
370
     0
100
AcDbVertex
100
AcDb2dVertex
 10
147.9075954491342
 20
-99.55998668300931
 30
0.0
  0
VERTEX
  5
104
330
F7
100
AcDbEntity
  8
Ebene 1
370
     0
100
AcDbVertex
100
AcDb2dVertex
 10
144.7591226851644
 20
-99.55998668300931
 30
0.0
  0
VERTEX
  5
105
330
F7
100
AcDbEntity
  8
Ebene 1
370
     0
100
AcDbVertex
100
AcDb2dVertex
 10
142.7788818002428
 20
-97.57991805286197
 30
0.0
  0
VERTEX
  5
106
330
F7
100
AcDbEntity
  8
Ebene 1
370
     0
100
AcDbVertex
100
AcDb2dVertex
 10
142.7788818002428
 20
-94.60955672547956
 30
0.0
  0
VERTEX
  5
107
330
F7
100
AcDbEntity
  8
Ebene 1
370
     0
100
AcDbVertex
100
AcDb2dVertex
 10
144.7591226851644
 20
-92.62931584055795
 30
0.0
  0
VERTEX
  5
108
330
F7
100
AcDbEntity
  8
Ebene 1
370
     0
100
AcDbVertex
100
AcDb2dVertex
 10
148.7196044550076
 20
-92.62931584055795
 30
0.0
  0
VERTEX
  5
109
330
F7
100
AcDbEntity
  8
Ebene 1
370
     0
100
AcDbVertex
100
AcDb2dVertex
 10
150.6991563208322
 20
-94.60955672547956
 30
0.0
  0
VERTEX
  5
10A
330
F7
100
AcDbEntity
  8
Ebene 1
370
     0
100
AcDbVertex
100
AcDb2dVertex
 10
150.6991563208322
 20
-95.5995049131661
 30
0.0
  0
VERTEX
  5
10B
330
F7
100
AcDbEntity
  8
Ebene 1
370
     0
100
AcDbVertex
100
AcDb2dVertex
 10
148.7196044550076
 20
-95.5995049131661
 30
0.0
  0
VERTEX
  5
10C
330
F7
100
AcDbEntity
  8
Ebene 1
370
     0
100
AcDbVertex
100
AcDb2dVertex
 10
148.7196044550076
 20
-95.42139347657869
 30
0.0
  0
VERTEX
  5
10D
330
F7
100
AcDbEntity
  8
Ebene 1
370
     0
100
AcDbVertex
100
AcDb2dVertex
 10
147.9075954491342
 20
-94.60955672547956
 30
0.0
  0
VERTEX
  5
10E
330
F7
100
AcDbEntity
  8
Ebene 1
370
     0
100
AcDbVertex
100
AcDb2dVertex
 10
145.5711316910378
 20
-94.60955672547956
 30
0.0
  0
VERTEX
  5
10F
330
F7
100
AcDbEntity
  8
Ebene 1
370
     0
100
AcDbVertex
100
AcDb2dVertex
 10
144.7591226851644
 20
-95.42139347657869
 30
0.0
  0
VERTEX
  5
110
330
F7
100
AcDbEntity
  8
Ebene 1
370
     0
100
AcDbVertex
100
AcDb2dVertex
 10
144.7591226851644
 20
-96.76790904698858
 30
0.0
  0
VERTEX
  5
111
330
F7
100
AcDbEntity
  8
Ebene 1
370
     0
100
AcDbVertex
100
AcDb2dVertex
 10
145.5711316910378
 20
-97.57991805286197
 30
0.0
  0
VERTEX
  5
112
330
F7
100
AcDbEntity
  8
Ebene 1
370
     0
100
AcDbVertex
100
AcDb2dVertex
 10
148.7196044550076
 20
-97.57991805286197
 30
0.0
  0
VERTEX
  5
113
330
F7
100
AcDbEntity
  8
Ebene 1
370
     0
100
AcDbVertex
100
AcDb2dVertex
 10
150.6991563208322
 20
-99.55998668300931
 30
0.0
  0
VERTEX
  5
114
330
F7
100
AcDbEntity
  8
Ebene 1
370
     0
100
AcDbVertex
100
AcDb2dVertex
 10
150.6991563208322
 20
-102.5301757556175
 30
0.0
  0
SEQEND
  5
115
330
F7
100
AcDbEntity
  8
Ebene 1
370
     0
  0
ENDBLK
  5
54
330
51
100
AcDbEntity
  8
0
100
AcDbBlockEnd
  0
BLOCK
  5
118
330
116
100
AcDbEntity
  8
0
100
AcDbBlockBegin
  2
block 3
 70
     0
 71
     0
 10
0.0
 20
0.0
 30
0.0
  3
block 3
  1

  0
POLYLINE
  5
11A
330
116
100
AcDbEntity
  8
Ebene 1
370
     0
100
AcDb2dPolyline
 66
     1
 10
0.0
 20
0.0
 30
0.0
  0
VERTEX
  5
11B
330
11A
100
AcDbEntity
  8
Ebene 1
370
     0
100
AcDbVertex
100
AcDb2dVertex
 10
98.96656898567502
 20
-206.9565320663164
 30
0.0
  0
VERTEX
  5
11C
330
11A
100
AcDbEntity
  8
Ebene 1
370
     0
100
AcDbVertex
100
AcDb2dVertex
 10
144.3002359665291
 20
-184.4793510823524
 30
0.0
  0
VERTEX
  5
11D
330
11A
100
AcDbEntity
  8
Ebene 1
370
     0
100
AcDbVertex
100
AcDb2dVertex
 10
144.3002359665291
 20
-110.8950398485783
 30
0.0
  0
VERTEX
  5
11E
330
11A
100
AcDbEntity
  8
Ebene 1
370
     0
100
AcDbVertex
100
AcDb2dVertex
 10
155.7851507857065
 20
-110.8950398485783
 30
0.0
  0
VERTEX
  5
11F
330
11A
100
AcDbEntity
  8
Ebene 1
370
     0
100
AcDbVertex
100
AcDb2dVertex
 10
155.7851507857065
 20
-86.92561575517833
 30
0.0
  0
VERTEX
  5
120
330
11A
100
AcDbEntity
  8
Ebene 1
370
     0
100
AcDbVertex
100
AcDb2dVertex
 10
98.4477376055964
 20
-86.92561575517833
 30
0.0
  0
VERTEX
  5
121
330
11A
100
AcDbEntity
  8
Ebene 1
370
     0
100
AcDbVertex
100
AcDb2dVertex
 10
98.4477376055964
 20
-206.7002169622139
 30
0.0
  0
VERTEX
  5
122
330
11A
100
AcDbEntity
  8
Ebene 1
370
     0
100
AcDbVertex
100
AcDb2dVertex
 10
98.96656898567502
 20
-206.9565320663164
 30
0.0
  0
SEQEND
  5
123
330
11A
100
AcDbEntity
  8
Ebene 1
370
     0
  0
POLYLINE
  5
124
330
116
100
AcDbEntity
  8
Ebene 1
370
     0
100
AcDb2dPolyline
 66
     1
 10
0.0
 20
0.0
 30
0.0
  0
VERTEX
  5
125
330
124
100
AcDbEntity
  8
Ebene 1
370
     0
100
AcDbVertex
100
AcDb2dVertex
 10
98.4477376055964
 20
-82.884346496206
 30
0.0
  0
VERTEX
  5
126
330
124
100
AcDbEntity
  8
Ebene 1
370
     0
100
AcDbVertex
100
AcDb2dVertex
 10
98.4477376055964
 20
-86.92561575517833
 30
0.0
  0
VERTEX
  5
127
330
124
100
AcDbEntity
  8
Ebene 1
370
     0
100
AcDbVertex
100
AcDb2dVertex
 10
155.7851507857065
 20
-86.92561575517833
 30
0.0
  0
VERTEX
  5
128
330
124
100
AcDbEntity
  8
Ebene 1
370
     0
100
AcDbVertex
100
AcDb2dVertex
 10
155.7851507857065
 20
-110.8950398485783
 30
0.0
  0
VERTEX
  5
129
330
124
100
AcDbEntity
  8
Ebene 1
370
     0
100
AcDbVertex
100
AcDb2dVertex
 10
144.3002359665291
 20
-110.8950398485783
 30
0.0
  0
VERTEX
  5
12A
330
124
100
AcDbEntity
  8
Ebene 1
370
     0
100
AcDbVertex
100
AcDb2dVertex
 10
144.3002359665291
 20
-184.4793510823524
 30
0.0
  0
VERTEX
  5
12B
330
124
100
AcDbEntity
  8
Ebene 1
370
     0
100
AcDbVertex
100
AcDb2dVertex
 10
98.96656898567502
 20
-206.9565320663164
 30
0.0
  0
VERTEX
  5
12C
330
124
100
AcDbEntity
  8
Ebene 1
370
     0
100
AcDbVertex
100
AcDb2dVertex
 10
98.4477376055964
 20
-206.7002169622139
 30
0.0
  0
VERTEX
  5
12D
330
124
100
AcDbEntity
  8
Ebene 1
370
     0
100
AcDbVertex
100
AcDb2dVertex
 10
98.4477376055964
 20
-211.2057128378236
 30
0.0
  0
VERTEX
  5
12E
330
124
100
AcDbEntity
  8
Ebene 1
370
     0
100
AcDbVertex
100
AcDb2dVertex
 10
98.9717366289029
 20
-211.4640949992173
 30
0.0
  0
VERTEX
  5
12F
330
124
100
AcDbEntity
  8
Ebene 1
370
     0
100
AcDbVertex
100
AcDb2dVertex
 10
148.3413329707272
 20
-186.9860025574202
 30
0.0
  0
VERTEX
  5
130
330
124
100
AcDbEntity
  8
Ebene 1
370
     0
100
AcDbVertex
100
AcDb2dVertex
 10
148.3413329707272
 20
-114.9361368527764
 30
0.0
  0
VERTEX
  5
131
330
124
100
AcDbEntity
  8
Ebene 1
370
     0
100
AcDbVertex
100
AcDb2dVertex
 10
159.825903280356
 20
-114.9361368527764
 30
0.0
  0
VERTEX
  5
132
330
124
100
AcDbEntity
  8
Ebene 1
370
     0
100
AcDbVertex
100
AcDb2dVertex
 10
159.825903280356
 20
-82.884346496206
 30
0.0
  0
VERTEX
  5
133
330
124
100
AcDbEntity
  8
Ebene 1
370
     0
100
AcDbVertex
100
AcDb2dVertex
 10
98.4477376055964
 20
-82.884346496206
 30
0.0
  0
SEQEND
  5
134
330
124
100
AcDbEntity
  8
Ebene 1
370
     0
  0
POLYLINE
  5
135
330
116
100
AcDbEntity
  8
Ebene 1
370
     0
100
AcDb2dPolyline
 66
     1
 10
0.0
 20
0.0
 30
0.0
  0
VERTEX
  5
136
330
135
100
AcDbEntity
  8
Ebene 1
370
     0
100
AcDbVertex
100
AcDb2dVertex
 10
53.37520886252425
 20
-184.4793510823524
 30
0.0
  0
VERTEX
  5
137
330
135
100
AcDbEntity
  8
Ebene 1
370
     0
100
AcDbVertex
100
AcDb2dVertex
 10
53.37520886252425
 20
-110.8950398485783
 30
0.0
  0
VERTEX
  5
138
330
135
100
AcDbEntity
  8
Ebene 1
370
     0
100
AcDbVertex
100
AcDb2dVertex
 10
42.14798718564356
 20
-110.8950398485783
 30
0.0
  0
VERTEX
  5
139
330
135
100
AcDbEntity
  8
Ebene 1
370
     0
100
AcDbVertex
100
AcDb2dVertex
 10
42.14798718564356
 20
-86.92561575517833
 30
0.0
  0
VERTEX
  5
13A
330
135
100
AcDbEntity
  8
Ebene 1
370
     0
100
AcDbVertex
100
AcDb2dVertex
 10
98.4477376055964
 20
-86.92561575517833
 30
0.0
  0
VERTEX
  5
13B
330
135
100
AcDbEntity
  8
Ebene 1
370
     0
100
AcDbVertex
100
AcDb2dVertex
 10
98.4477376055964
 20
-82.884346496206
 30
0.0
  0
VERTEX
  5
13C
330
135
100
AcDbEntity
  8
Ebene 1
370
     0
100
AcDbVertex
100
AcDb2dVertex
 10
38.1068901814455
 20
-82.884346496206
 30
0.0
  0
VERTEX
  5
13D
330
135
100
AcDbEntity
  8
Ebene 1
370
     0
100
AcDbVertex
100
AcDb2dVertex
 10
38.1068901814455
 20
-114.9361368527764
 30
0.0
  0
VERTEX
  5
13E
330
135
100
AcDbEntity
  8
Ebene 1
370
     0
100
AcDbVertex
100
AcDb2dVertex
 10
49.3341118583262
 20
-114.9361368527764
 30
0.0
  0
VERTEX
  5
13F
330
135
100
AcDbEntity
  8
Ebene 1
370
     0
100
AcDbVertex
100
AcDb2dVertex
 10
49.3341118583262
 20
-186.9928927483907
 30
0.0
  0
VERTEX
  5
140
330
135
100
AcDbEntity
  8
Ebene 1
370
     0
100
AcDbVertex
100
AcDb2dVertex
 10
98.4477376055964
 20
-211.2057128378236
 30
0.0
  0
VERTEX
  5
141
330
135
100
AcDbEntity
  8
Ebene 1
370
     0
100
AcDbVertex
100
AcDb2dVertex
 10
98.4477376055964
 20
-206.7002169622139
 30
0.0
  0
VERTEX
  5
142
330
135
100
AcDbEntity
  8
Ebene 1
370
     0
100
AcDbVertex
100
AcDb2dVertex
 10
53.37520886252425
 20
-184.4793510823524
 30
0.0
  0
SEQEND
  5
143
330
135
100
AcDbEntity
  8
Ebene 1
370
     0
  0
HATCH
  5
144
330
116
100
AcDbEntity
  8
Ebene 1
 62
    22
420
 12459821
100
AcDbHatch
 10
0.0
 20
0.0
 30
0.0
210
0.0
220
0.0
230
1.0
  2
SOLID
 70
     1
 71
     0
 91
        1
 92
        1
 93
       12
 72
     1
 10
53.37520886252425
 20
-184.4793510823524
 11
53.37520886252425
 21
-110.8950398485783
 72
     1
 10
53.37520886252425
 20
-110.8950398485783
 11
42.14798718564356
 21
-110.8950398485783
 72
     1
 10
42.14798718564356
 20
-110.8950398485783
 11
42.14798718564356
 21
-86.92561575517833
 72
     1
 10
42.14798718564356
 20
-86.92561575517833
 11
98.4477376055964
 21
-86.92561575517833
 72
     1
 10
98.4477376055964
 20
-86.92561575517833
 11
98.4477376055964
 21
-82.884346496206
 72
     1
 10
98.4477376055964
 20
-82.884346496206
 11
38.1068901814455
 21
-82.884346496206
 72
     1
 10
38.1068901814455
 20
-82.884346496206
 11
38.1068901814455
 21
-114.9361368527764
 72
     1
 10
38.1068901814455
 20
-114.9361368527764
 11
49.3341118583262
 21
-114.9361368527764
 72
     1
 10
49.3341118583262
 20
-114.9361368527764
 11
49.3341118583262
 21
-186.9928927483907
 72
     1
 10
49.3341118583262
 20
-186.9928927483907
 11
98.4477376055964
 21
-211.2057128378236
 72
     1
 10
98.4477376055964
 20
-211.2057128378236
 11
98.4477376055964
 21
-206.7002169622139
 72
     1
 10
98.4477376055964
 20
-206.7002169622139
 11
53.37520886252425
 21
-184.4793510823524
 97
        0
 75
     2
 76
     1
 98
        0
  0
ENDBLK
  5
119
330
116
100
AcDbEntity
  8
0
100
AcDbBlockEnd
  0
BLOCK
  5
147
330
145
100
AcDbEntity
  8
0
100
AcDbBlockBegin
  2
block 4
 70
     0
 71
     0
 10
0.0
 20
0.0
 30
0.0
  3
block 4
  1

  0
INSERT
  5
14A
330
145
100
AcDbEntity
  8
Ebene 1
100
AcDbBlockReference
  2
block 5
 10
0.0
 20
0.0
 30
0.0
  0
POLYLINE
  5
1CB
330
145
100
AcDbEntity
  8
Ebene 1
370
     0
100
AcDb2dPolyline
 66
     1
 10
0.0
 20
0.0
 30
0.0
  0
VERTEX
  5
1CC
330
1CB
100
AcDbEntity
  8
Ebene 1
370
     0
100
AcDbVertex
100
AcDb2dVertex
 10
100.0707220886976
 20
-125.7399562945199
 30
0.0
  0
VERTEX
  5
1CD
330
1CB
100
AcDbEntity
  8
Ebene 1
370
     0
100
AcDbVertex
100
AcDb2dVertex
 10
121.1164658985403
 20
-119.7227525199825
 30
0.0
  0
VERTEX
  5
1CE
330
1CB
100
AcDbEntity
  8
Ebene 1
370
     0
100
AcDbVertex
100
AcDb2dVertex
 10
106.777633979382
 20
-112.0939330774453
 30
0.0
  0
VERTEX
  5
1CF
330
1CB
100
AcDbEntity
  8
Ebene 1
370
     0
100
AcDbVertex
100
AcDb2dVertex
 10
100.0707220886976
 20
-117.2870700119109
 30
0.0
  0
VERTEX
  5
1D0
330
1CB
100
AcDbEntity
  8
Ebene 1
370
     0
100
AcDbVertex
100
AcDb2dVertex
 10
100.0707220886976
 20
-125.7399562945199
 30
0.0
  0
SEQEND
  5
1D1
330
1CB
100
AcDbEntity
  8
Ebene 1
370
     0
  0
HATCH
  5
1D2
330
145
100
AcDbEntity
  8
Ebene 1
 62
     7
420
 15725046
100
AcDbHatch
 10
0.0
 20
0.0
 30
0.0
210
0.0
220
0.0
230
1.0
  2
SOLID
 70
     1
 71
     0
 91
        1
 92
        1
 93
        4
 72
     1
 10
100.0707220886976
 20
-125.7399562945199
 11
121.1164658985403
 21
-119.7227525199825
 72
     1
 10
121.1164658985403
 20
-119.7227525199825
 11
106.777633979382
 21
-112.0939330774453
 72
     1
 10
106.777633979382
 20
-112.0939330774453
 11
100.0707220886976
 21
-117.2870700119109
 72
     1
 10
100.0707220886976
 20
-117.2870700119109
 11
100.0707220886976
 21
-125.7399562945199
 97
        0
 75
     2
 76
     1
 98
        0
  0
POLYLINE
  5
1D3
330
145
100
AcDbEntity
  8
Ebene 1
370
     0
100
AcDb2dPolyline
 66
     1
 10
0.0
 20
0.0
 30
0.0
  0
VERTEX
  5
1D4
330
1D3
100
AcDbEntity
  8
Ebene 1
370
     0
100
AcDbVertex
100
AcDb2dVertex
 10
100.0707220886976
 20
-125.7399562945199
 30
0.0
  0
VERTEX
  5
1D5
330
1D3
100
AcDbEntity
  8
Ebene 1
370
     0
100
AcDbVertex
100
AcDb2dVertex
 10
100.0707220886976
 20
-128.1525566628403
 30
0.0
  0
VERTEX
  5
1D6
330
1D3
100
AcDbEntity
  8
Ebene 1
370
     0
100
AcDbVertex
100
AcDb2dVertex
 10
115.1988253835267
 20
-125.9352932085335
 30
0.0
  0
VERTEX
  5
1D7
330
1D3
100
AcDbEntity
  8
Ebene 1
370
     0
100
AcDbVertex
100
AcDb2dVertex
 10
121.1164658985403
 20
-119.7227525199825
 30
0.0
  0
VERTEX
  5
1D8
330
1D3
100
AcDbEntity
  8
Ebene 1
370
     0
100
AcDbVertex
100
AcDb2dVertex
 10
100.0707220886976
 20
-125.7399562945199
 30
0.0
  0
SEQEND
  5
1D9
330
1D3
100
AcDbEntity
  8
Ebene 1
370
     0
  0
HATCH
  5
1DA
330
145
100
AcDbEntity
  8
Ebene 1
 62
     9
420
 13224395
100
AcDbHatch
 10
0.0
 20
0.0
 30
0.0
210
0.0
220
0.0
230
1.0
  2
SOLID
 70
     1
 71
     0
 91
        1
 92
        1
 93
        4
 72
     1
 10
100.0707220886976
 20
-125.7399562945199
 11
100.0707220886976
 21
-128.1525566628403
 72
     1
 10
100.0707220886976
 20
-128.1525566628403
 11
115.1988253835267
 21
-125.9352932085335
 72
     1
 10
115.1988253835267
 20
-125.9352932085335
 11
121.1164658985403
 21
-119.7227525199825
 72
     1
 10
121.1164658985403
 20
-119.7227525199825
 11
100.0707220886976
 21
-125.7399562945199
 97
        0
 75
     2
 76
     1
 98
        0
  0
POLYLINE
  5
1DB
330
145
100
AcDbEntity
  8
Ebene 1
370
     0
100
AcDb2dPolyline
 66
     1
 10
0.0
 20
0.0
 30
0.0
  0
VERTEX
  5
1DC
330
1DB
100
AcDbEntity
  8
Ebene 1
370
     0
100
AcDbVertex
100
AcDb2dVertex
 10
100.0707220886976
 20
-130.8428317272719
 30
0.0
  0
VERTEX
  5
1DD
330
1DB
100
AcDbEntity
  8
Ebene 1
370
     0
100
AcDbVertex
100
AcDb2dVertex
 10
122.5795979511259
 20
-131.0433362845135
 30
0.0
  0
VERTEX
  5
1DE
330
1DB
100
AcDbEntity
  8
Ebene 1
370
     0
100
AcDbVertex
100
AcDb2dVertex
 10
115.3583333044938
 20
-125.8574340505669
 30
0.0
  0
VERTEX
  5
1DF
330
1DB
100
AcDbEntity
  8
Ebene 1
370
     0
100
AcDbVertex
100
AcDb2dVertex
 10
100.0707220886976
 20
-128.1236178607642
 30
0.0
  0
VERTEX
  5
1E0
330
1DB
100
AcDbEntity
  8
Ebene 1
370
     0
100
AcDbVertex
100
AcDb2dVertex
 10
100.0707220886976
 20
-130.8428317272719
 30
0.0
  0
SEQEND
  5
1E1
330
1DB
100
AcDbEntity
  8
Ebene 1
370
     0
  0
HATCH
  5
1E2
330
145
100
AcDbEntity
  8
Ebene 1
 62
   254
420
 13423570
100
AcDbHatch
 10
0.0
 20
0.0
 30
0.0
210
0.0
220
0.0
230
1.0
  2
SOLID
 70
     1
 71
     0
 91
        1
 92
        1
 93
        4
 72
     1
 10
100.0707220886976
 20
-130.8428317272719
 11
122.5795979511259
 21
-131.0433362845135
 72
     1
 10
122.5795979511259
 20
-131.0433362845135
 11
115.3583333044938
 21
-125.8574340505669
 72
     1
 10
115.3583333044938
 20
-125.8574340505669
 11
100.0707220886976
 21
-128.1236178607642
 72
     1
 10
100.0707220886976
 20
-128.1236178607642
 11
100.0707220886976
 21
-130.8428317272719
 97
        0
 75
     2
 76
     1
 98
        0
  0
POLYLINE
  5
1E3
330
145
100
AcDbEntity
  8
Ebene 1
370
     0
100
AcDb2dPolyline
 66
     1
 10
0.0
 20
0.0
 30
0.0
  0
VERTEX
  5
1E4
330
1E3
100
AcDbEntity
  8
Ebene 1
370
     0
100
AcDbVertex
100
AcDb2dVertex
 10
100.0707220886976
 20
-130.7994235241578
 30
0.0
  0
VERTEX
  5
1E5
330
1E3
100
AcDbEntity
  8
Ebene 1
370
     0
100
AcDbVertex
100
AcDb2dVertex
 10
100.0707220886976
 20
-136.1565470037213
 30
0.0
  0
VERTEX
  5
1E6
330
1E3
100
AcDbEntity
  8
Ebene 1
370
     0
100
AcDbVertex
100
AcDb2dVertex
 10
122.5506591490498
 20
-131.0178425779226
 30
0.0
  0
VERTEX
  5
1E7
330
1E3
100
AcDbEntity
  8
Ebene 1
370
     0
100
AcDbVertex
100
AcDb2dVertex
 10
100.0707220886976
 20
-130.7994235241578
 30
0.0
  0
SEQEND
  5
1E8
330
1E3
100
AcDbEntity
  8
Ebene 1
370
     0
  0
HATCH
  5
1E9
330
145
100
AcDbEntity
  8
Ebene 1
 62
   254
420
 14212315
100
AcDbHatch
 10
0.0
 20
0.0
 30
0.0
210
0.0
220
0.0
230
1.0
  2
SOLID
 70
     1
 71
     0
 91
        1
 92
        1
 93
        3
 72
     1
 10
100.0707220886976
 20
-130.7994235241578
 11
100.0707220886976
 21
-136.1565470037213
 72
     1
 10
100.0707220886976
 20
-136.1565470037213
 11
122.5506591490498
 21
-131.0178425779226
 72
     1
 10
122.5506591490498
 20
-131.0178425779226
 11
100.0707220886976
 21
-130.7994235241578
 97
        0
 75
     2
 76
     1
 98
        0
  0
POLYLINE
  5
1EA
330
145
100
AcDbEntity
  8
Ebene 1
370
     0
100
AcDb2dPolyline
 66
     1
 10
0.0
 20
0.0
 30
0.0
  0
VERTEX
  5
1EB
330
1EA
100
AcDbEntity
  8
Ebene 1
370
     0
100
AcDbVertex
100
AcDb2dVertex
 10
100.0707220886976
 20
-136.0277004325729
 30
0.0
  0
VERTEX
  5
1EC
330
1EA
100
AcDbEntity
  8
Ebene 1
370
     0
100
AcDbVertex
100
AcDb2dVertex
 10
100.0707220886976
 20
-139.0655856314663
 30
0.0
  0
VERTEX
  5
1ED
330
1EA
100
AcDbEntity
  8
Ebene 1
370
     0
100
AcDbVertex
100
AcDb2dVertex
 10
122.3859835848549
 20
-131.0419582463194
 30
0.0
  0
VERTEX
  5
1EE
330
1EA
100
AcDbEntity
  8
Ebene 1
370
     0
100
AcDbVertex
100
AcDb2dVertex
 10
100.0707220886976
 20
-136.0277004325729
 30
0.0
  0
SEQEND
  5
1EF
330
1EA
100
AcDbEntity
  8
Ebene 1
370
     0
  0
HATCH
  5
1F0
330
145
100
AcDbEntity
  8
Ebene 1
 62
   254
420
 14278891
100
AcDbHatch
 10
0.0
 20
0.0
 30
0.0
210
0.0
220
0.0
230
1.0
  2
SOLID
 70
     1
 71
     0
 91
        1
 92
        1
 93
        3
 72
     1
 10
100.0707220886976
 20
-136.0277004325729
 11
100.0707220886976
 21
-139.0655856314663
 72
     1
 10
100.0707220886976
 20
-139.0655856314663
 11
122.3859835848549
 21
-131.0419582463194
 72
     1
 10
122.3859835848549
 20
-131.0419582463194
 11
100.0707220886976
 21
-136.0277004325729
 97
        0
 75
     2
 76
     1
 98
        0
  0
POLYLINE
  5
1F1
330
145
100
AcDbEntity
  8
Ebene 1
370
     0
100
AcDb2dPolyline
 66
     1
 10
0.0
 20
0.0
 30
0.0
  0
VERTEX
  5
1F2
330
1F1
100
AcDbEntity
  8
Ebene 1
370
     0
100
AcDbVertex
100
AcDb2dVertex
 10
100.0707220886976
 20
-144.1760402742859
 30
0.0
  0
VERTEX
  5
1F3
330
1F1
100
AcDbEntity
  8
Ebene 1
370
     0
100
AcDbVertex
100
AcDb2dVertex
 10
124.3886175904306
 20
-139.0104641037022
 30
0.0
  0
VERTEX
  5
1F4
330
1F1
100
AcDbEntity
  8
Ebene 1
370
     0
100
AcDbVertex
100
AcDb2dVertex
 10
122.3859835848549
 20
-131.0419582463194
 30
0.0
  0
VERTEX
  5
1F5
330
1F1
100
AcDbEntity
  8
Ebene 1
370
     0
100
AcDbVertex
100
AcDb2dVertex
 10
100.0707220886976
 20
-139.0655856314663
 30
0.0
  0
VERTEX
  5
1F6
330
1F1
100
AcDbEntity
  8
Ebene 1
370
     0
100
AcDbVertex
100
AcDb2dVertex
 10
100.0707220886976
 20
-144.1760402742859
 30
0.0
  0
SEQEND
  5
1F7
330
1F1
100
AcDbEntity
  8
Ebene 1
370
     0
  0
HATCH
  5
1F8
330
145
100
AcDbEntity
  8
Ebene 1
 62
     9
420
 12700370
100
AcDbHatch
 10
0.0
 20
0.0
 30
0.0
210
0.0
220
0.0
230
1.0
  2
SOLID
 70
     1
 71
     0
 91
        1
 92
        1
 93
        4
 72
     1
 10
100.0707220886976
 20
-144.1760402742859
 11
124.3886175904306
 21
-139.0104641037022
 72
     1
 10
124.3886175904306
 20
-139.0104641037022
 11
122.3859835848549
 21
-131.0419582463194
 72
     1
 10
122.3859835848549
 20
-131.0419582463194
 11
100.0707220886976
 21
-139.0655856314663
 72
     1
 10
100.0707220886976
 20
-139.0655856314663
 11
100.0707220886976
 21
-144.1760402742859
 97
        0
 75
     2
 76
     1
 98
        0
  0
POLYLINE
  5
1F9
330
145
100
AcDbEntity
  8
Ebene 1
370
     0
100
AcDb2dPolyline
 66
     1
 10
0.0
 20
0.0
 30
0.0
  0
VERTEX
  5
1FA
330
1F9
100
AcDbEntity
  8
Ebene 1
370
     0
100
AcDbVertex
100
AcDb2dVertex
 10
100.0707220886976
 20
-144.1753512551888
 30
0.0
  0
VERTEX
  5
1FB
330
1F9
100
AcDbEntity
  8
Ebene 1
370
     0
100
AcDbVertex
100
AcDb2dVertex
 10
100.0707220886976
 20
-144.9987290761635
 30
0.0
  0
VERTEX
  5
1FC
330
1F9
100
AcDbEntity
  8
Ebene 1
370
     0
100
AcDbVertex
100
AcDb2dVertex
 10
105.2452555075429
 20
-143.0763657953941
 30
0.0
  0
VERTEX
  5
1FD
330
1F9
100
AcDbEntity
  8
Ebene 1
370
     0
100
AcDbVertex
100
AcDb2dVertex
 10
100.0707220886976
 20
-144.1753512551888
 30
0.0
  0
SEQEND
  5
1FE
330
1F9
100
AcDbEntity
  8
Ebene 1
370
     0
  0
HATCH
  5
1FF
330
145
100
AcDbEntity
  8
Ebene 1
 62
   254
420
 14475238
100
AcDbHatch
 10
0.0
 20
0.0
 30
0.0
210
0.0
220
0.0
230
1.0
  2
SOLID
 70
     1
 71
     0
 91
        1
 92
        1
 93
        3
 72
     1
 10
100.0707220886976
 20
-144.1753512551888
 11
100.0707220886976
 21
-144.9987290761635
 72
     1
 10
100.0707220886976
 20
-144.9987290761635
 11
105.2452555075429
 21
-143.0763657953941
 72
     1
 10
105.2452555075429
 20
-143.0763657953941
 11
100.0707220886976
 21
-144.1753512551888
 97
        0
 75
     2
 76
     1
 98
        0
  0
POLYLINE
  5
200
330
145
100
AcDbEntity
  8
Ebene 1
370
     0
100
AcDb2dPolyline
 66
     1
 10
0.0
 20
0.0
 30
0.0
  0
VERTEX
  5
201
330
200
100
AcDbEntity
  8
Ebene 1
370
     0
100
AcDbVertex
100
AcDb2dVertex
 10
100.0707220886976
 20
-144.9987290761635
 30
0.0
  0
VERTEX
  5
202
330
200
100
AcDbEntity
  8
Ebene 1
370
     0
100
AcDbVertex
100
AcDb2dVertex
 10
100.0707220886976
 20
-145.7842108468005
 30
0.0
  0
VERTEX
  5
203
330
200
100
AcDbEntity
  8
Ebene 1
370
     0
100
AcDbVertex
100
AcDb2dVertex
 10
105.2452555075429
 20
-143.0763657953941
 30
0.0
  0
VERTEX
  5
204
330
200
100
AcDbEntity
  8
Ebene 1
370
     0
100
AcDbVertex
100
AcDb2dVertex
 10
100.0707220886976
 20
-144.9987290761635
 30
0.0
  0
SEQEND
  5
205
330
200
100
AcDbEntity
  8
Ebene 1
370
     0
  0
HATCH
  5
206
330
145
100
AcDbEntity
  8
Ebene 1
 62
   254
420
 14016489
100
AcDbHatch
 10
0.0
 20
0.0
 30
0.0
210
0.0
220
0.0
230
1.0
  2
SOLID
 70
     1
 71
     0
 91
        1
 92
        1
 93
        3
 72
     1
 10
100.0707220886976
 20
-144.9987290761635
 11
100.0707220886976
 21
-145.7842108468005
 72
     1
 10
100.0707220886976
 20
-145.7842108468005
 11
105.2452555075429
 21
-143.0763657953941
 72
     1
 10
105.2452555075429
 20
-143.0763657953941
 11
100.0707220886976
 21
-144.9987290761635
 97
        0
 75
     2
 76
     1
 98
        0
  0
POLYLINE
  5
207
330
145
100
AcDbEntity
  8
Ebene 1
370
     0
100
AcDb2dPolyline
 66
     1
 10
0.0
 20
0.0
 30
0.0
  0
VERTEX
  5
208
330
207
100
AcDbEntity
  8
Ebene 1
370
     0
100
AcDbVertex
100
AcDb2dVertex
 10
100.0707220886976
 20
-145.784555356349
 30
0.0
  0
VERTEX
  5
209
330
207
100
AcDbEntity
  8
Ebene 1
370
     0
100
AcDbVertex
100
AcDb2dVertex
 10
100.0707220886976
 20
-146.8480563326456
 30
0.0
  0
VERTEX
  5
20A
330
207
100
AcDbEntity
  8
Ebene 1
370
     0
100
AcDbVertex
100
AcDb2dVertex
 10
105.2452555075429
 20
-143.0763657953941
 30
0.0
  0
VERTEX
  5
20B
330
207
100
AcDbEntity
  8
Ebene 1
370
     0
100
AcDbVertex
100
AcDb2dVertex
 10
100.0707220886976
 20
-145.784555356349
 30
0.0
  0
SEQEND
  5
20C
330
207
100
AcDbEntity
  8
Ebene 1
370
     0
  0
HATCH
  5
20D
330
145
100
AcDbEntity
  8
Ebene 1
 62
   254
420
 14673903
100
AcDbHatch
 10
0.0
 20
0.0
 30
0.0
210
0.0
220
0.0
230
1.0
  2
SOLID
 70
     1
 71
     0
 91
        1
 92
        1
 93
        3
 72
     1
 10
100.0707220886976
 20
-145.784555356349
 11
100.0707220886976
 21
-146.8480563326456
 72
     1
 10
100.0707220886976
 20
-146.8480563326456
 11
105.2452555075429
 21
-143.0763657953941
 72
     1
 10
105.2452555075429
 20
-143.0763657953941
 11
100.0707220886976
 21
-145.784555356349
 97
        0
 75
     2
 76
     1
 98
        0
  0
POLYLINE
  5
20E
330
145
100
AcDbEntity
  8
Ebene 1
370
     0
100
AcDb2dPolyline
 66
     1
 10
0.0
 20
0.0
 30
0.0
  0
VERTEX
  5
20F
330
20E
100
AcDbEntity
  8
Ebene 1
370
     0
100
AcDbVertex
100
AcDb2dVertex
 10
100.0707220886976
 20
-146.8480563326456
 30
0.0
  0
VERTEX
  5
210
330
20E
100
AcDbEntity
  8
Ebene 1
370
     0
100
AcDbVertex
100
AcDb2dVertex
 10
100.0707220886976
 20
-150.4486978790545
 30
0.0
  0
VERTEX
  5
211
330
20E
100
AcDbEntity
  8
Ebene 1
370
     0
100
AcDbVertex
100
AcDb2dVertex
 10
105.2452555075429
 20
-143.0763657953941
 30
0.0
  0
VERTEX
  5
212
330
20E
100
AcDbEntity
  8
Ebene 1
370
     0
100
AcDbVertex
100
AcDb2dVertex
 10
100.0707220886976
 20
-146.8480563326456
 30
0.0
  0
SEQEND
  5
213
330
20E
100
AcDbEntity
  8
Ebene 1
370
     0
  0
HATCH
  5
214
330
145
100
AcDbEntity
  8
Ebene 1
 62
   254
420
 13227489
100
AcDbHatch
 10
0.0
 20
0.0
 30
0.0
210
0.0
220
0.0
230
1.0
  2
SOLID
 70
     1
 71
     0
 91
        1
 92
        1
 93
        3
 72
     1
 10
100.0707220886976
 20
-146.8480563326456
 11
100.0707220886976
 21
-150.4486978790545
 72
     1
 10
100.0707220886976
 20
-150.4486978790545
 11
105.2452555075429
 21
-143.0763657953941
 72
     1
 10
105.2452555075429
 20
-143.0763657953941
 11
100.0707220886976
 21
-146.8480563326456
 97
        0
 75
     2
 76
     1
 98
        0
  0
POLYLINE
  5
215
330
145
100
AcDbEntity
  8
Ebene 1
370
     0
100
AcDb2dPolyline
 66
     1
 10
0.0
 20
0.0
 30
0.0
  0
VERTEX
  5
216
330
215
100
AcDbEntity
  8
Ebene 1
370
     0
100
AcDbVertex
100
AcDb2dVertex
 10
100.0707220886976
 20
-150.4486978790545
 30
0.0
  0
VERTEX
  5
217
330
215
100
AcDbEntity
  8
Ebene 1
370
     0
100
AcDbVertex
100
AcDb2dVertex
 10
100.0707220886976
 20
-158.4654350732309
 30
0.0
  0
VERTEX
  5
218
330
215
100
AcDbEntity
  8
Ebene 1
370
     0
100
AcDbVertex
100
AcDb2dVertex
 10
105.2452555075429
 20
-143.0763657953941
 30
0.0
  0
VERTEX
  5
219
330
215
100
AcDbEntity
  8
Ebene 1
370
     0
100
AcDbVertex
100
AcDb2dVertex
 10
100.0707220886976
 20
-150.4486978790545
 30
0.0
  0
SEQEND
  5
21A
330
215
100
AcDbEntity
  8
Ebene 1
370
     0
  0
HATCH
  5
21B
330
145
100
AcDbEntity
  8
Ebene 1
 62
     9
420
 11582148
100
AcDbHatch
 10
0.0
 20
0.0
 30
0.0
210
0.0
220
0.0
230
1.0
  2
SOLID
 70
     1
 71
     0
 91
        1
 92
        1
 93
        3
 72
     1
 10
100.0707220886976
 20
-150.4486978790545
 11
100.0707220886976
 21
-158.4654350732309
 72
     1
 10
100.0707220886976
 20
-158.4654350732309
 11
105.2452555075429
 21
-143.0763657953941
 72
     1
 10
105.2452555075429
 20
-143.0763657953941
 11
100.0707220886976
 21
-150.4486978790545
 97
        0
 75
     2
 76
     1
 98
        0
  0
POLYLINE
  5
21C
330
145
100
AcDbEntity
  8
Ebene 1
370
     0
100
AcDb2dPolyline
 66
     1
 10
0.0
 20
0.0
 30
0.0
  0
VERTEX
  5
21D
330
21C
100
AcDbEntity
  8
Ebene 1
370
     0
100
AcDbVertex
100
AcDb2dVertex
 10
100.0707220886976
 20
-190.9065212196345
 30
0.0
  0
VERTEX
  5
21E
330
21C
100
AcDbEntity
  8
Ebene 1
370
     0
100
AcDbVertex
100
AcDb2dVertex
 10
108.3479085015589
 20
-193.6088541182645
 30
0.0
  0
VERTEX
  5
21F
330
21C
100
AcDbEntity
  8
Ebene 1
370
     0
100
AcDbVertex
100
AcDb2dVertex
 10
105.2452555075429
 20
-143.0763657953941
 30
0.0
  0
VERTEX
  5
220
330
21C
100
AcDbEntity
  8
Ebene 1
370
     0
100
AcDbVertex
100
AcDb2dVertex
 10
100.0707220886976
 20
-158.4654350732309
 30
0.0
  0
VERTEX
  5
221
330
21C
100
AcDbEntity
  8
Ebene 1
370
     0
100
AcDbVertex
100
AcDb2dVertex
 10
100.0707220886976
 20
-190.9065212196345
 30
0.0
  0
SEQEND
  5
222
330
21C
100
AcDbEntity
  8
Ebene 1
370
     0
  0
HATCH
  5
223
330
145
100
AcDbEntity
  8
Ebene 1
 62
   252
420
  9081243
100
AcDbHatch
 10
0.0
 20
0.0
 30
0.0
210
0.0
220
0.0
230
1.0
  2
SOLID
 70
     1
 71
     0
 91
        1
 92
        1
 93
        4
 72
     1
 10
100.0707220886976
 20
-190.9065212196345
 11
108.3479085015589
 21
-193.6088541182645
 72
     1
 10
108.3479085015589
 20
-193.6088541182645
 11
105.2452555075429
 21
-143.0763657953941
 72
     1
 10
105.2452555075429
 20
-143.0763657953941
 11
100.0707220886976
 21
-158.4654350732309
 72
     1
 10
100.0707220886976
 20
-158.4654350732309
 11
100.0707220886976
 21
-190.9065212196345
 97
        0
 75
     2
 76
     1
 98
        0
  0
ENDBLK
  5
148
330
145
100
AcDbEntity
  8
0
100
AcDbBlockEnd
  0
BLOCK
  5
14B
330
149
100
AcDbEntity
  8
0
100
AcDbBlockBegin
  2
block 5
 70
     0
 71
     0
 10
0.0
 20
0.0
 30
0.0
  3
block 5
  1

  0
POLYLINE
  5
14D
330
149
100
AcDbEntity
  8
Ebene 1
370
     0
100
AcDb2dPolyline
 66
     1
 10
0.0
 20
0.0
 30
0.0
  0
VERTEX
  5
14E
330
14D
100
AcDbEntity
  8
Ebene 1
370
     0
100
AcDbVertex
100
AcDb2dVertex
 10
140.6346543702233
 20
-116.4881523688814
 30
0.0
  0
VERTEX
  5
14F
330
14D
100
AcDbEntity
  8
Ebene 1
370
     0
100
AcDbVertex
100
AcDb2dVertex
 10
128.1124213004372
 20
-110.1757039112582
 30
0.0
  0
VERTEX
  5
150
330
14D
100
AcDbEntity
  8
Ebene 1
370
     0
100
AcDbVertex
100
AcDb2dVertex
 10
121.1164658985403
 20
-119.7227525199825
 30
0.0
  0
VERTEX
  5
151
330
14D
100
AcDbEntity
  8
Ebene 1
370
     0
100
AcDbVertex
100
AcDb2dVertex
 10
140.6346543702233
 20
-116.4881523688814
 30
0.0
  0
SEQEND
  5
152
330
14D
100
AcDbEntity
  8
Ebene 1
370
     0
  0
HATCH
  5
153
330
149
100
AcDbEntity
  8
Ebene 1
 62
   254
420
 13687265
100
AcDbHatch
 10
0.0
 20
0.0
 30
0.0
210
0.0
220
0.0
230
1.0
  2
SOLID
 70
     1
 71
     0
 91
        1
 92
        1
 93
        3
 72
     1
 10
140.6346543702233
 20
-116.4881523688814
 11
128.1124213004372
 21
-110.1757039112582
 72
     1
 10
128.1124213004372
 20
-110.1757039112582
 11
121.1164658985403
 21
-119.7227525199825
 72
     1
 10
121.1164658985403
 20
-119.7227525199825
 11
140.6346543702233
 21
-116.4881523688814
 97
        0
 75
     2
 76
     1
 98
        0
  0
POLYLINE
  5
154
330
149
100
AcDbEntity
  8
Ebene 1
370
     0
100
AcDb2dPolyline
 66
     1
 10
0.0
 20
0.0
 30
0.0
  0
VERTEX
  5
155
330
154
100
AcDbEntity
  8
Ebene 1
370
     0
100
AcDbVertex
100
AcDb2dVertex
 10
106.777633979382
 20
-112.0939330774453
 30
0.0
  0
VERTEX
  5
156
330
154
100
AcDbEntity
  8
Ebene 1
370
     0
100
AcDbVertex
100
AcDb2dVertex
 10
121.1164658985403
 20
-119.7227525199825
 30
0.0
  0
VERTEX
  5
157
330
154
100
AcDbEntity
  8
Ebene 1
370
     0
100
AcDbVertex
100
AcDb2dVertex
 10
128.1124213004372
 20
-110.1757039112582
 30
0.0
  0
VERTEX
  5
158
330
154
100
AcDbEntity
  8
Ebene 1
370
     0
100
AcDbVertex
100
AcDb2dVertex
 10
106.777633979382
 20
-112.0939330774453
 30
0.0
  0
SEQEND
  5
159
330
154
100
AcDbEntity
  8
Ebene 1
370
     0
  0
HATCH
  5
15A
330
149
100
AcDbEntity
  8
Ebene 1
 62
   254
420
 15001841
100
AcDbHatch
 10
0.0
 20
0.0
 30
0.0
210
0.0
220
0.0
230
1.0
  2
SOLID
 70
     1
 71
     0
 91
        1
 92
        1
 93
        3
 72
     1
 10
106.777633979382
 20
-112.0939330774453
 11
121.1164658985403
 21
-119.7227525199825
 72
     1
 10
121.1164658985403
 20
-119.7227525199825
 11
128.1124213004372
 21
-110.1757039112582
 72
     1
 10
128.1124213004372
 20
-110.1757039112582
 11
106.777633979382
 21
-112.0939330774453
 97
        0
 75
     2
 76
     1
 98
        0
  0
POLYLINE
  5
15B
330
149
100
AcDbEntity
  8
Ebene 1
370
     0
100
AcDb2dPolyline
 66
     1
 10
0.0
 20
0.0
 30
0.0
  0
VERTEX
  5
15C
330
15B
100
AcDbEntity
  8
Ebene 1
370
     0
100
AcDbVertex
100
AcDb2dVertex
 10
128.7228922204235
 20
-125.5012111773921
 30
0.0
  0
VERTEX
  5
15D
330
15B
100
AcDbEntity
  8
Ebene 1
370
     0
100
AcDbVertex
100
AcDb2dVertex
 10
121.1164658985403
 20
-119.7227525199825
 30
0.0
  0
VERTEX
  5
15E
330
15B
100
AcDbEntity
  8
Ebene 1
370
     0
100
AcDbVertex
100
AcDb2dVertex
 10
115.1988253835267
 20
-125.9352932085335
 30
0.0
  0
VERTEX
  5
15F
330
15B
100
AcDbEntity
  8
Ebene 1
370
     0
100
AcDbVertex
100
AcDb2dVertex
 10
128.7228922204235
 20
-125.5012111773921
 30
0.0
  0
SEQEND
  5
160
330
15B
100
AcDbEntity
  8
Ebene 1
370
     0
  0
HATCH
  5
161
330
149
100
AcDbEntity
  8
Ebene 1
 62
    22
420
 13118243
100
AcDbHatch
 10
0.0
 20
0.0
 30
0.0
210
0.0
220
0.0
230
1.0
  2
SOLID
 70
     1
 71
     0
 91
        1
 92
        1
 93
        3
 72
     1
 10
128.7228922204235
 20
-125.5012111773921
 11
121.1164658985403
 21
-119.7227525199825
 72
     1
 10
121.1164658985403
 20
-119.7227525199825
 11
115.1988253835267
 21
-125.9352932085335
 72
     1
 10
115.1988253835267
 20
-125.9352932085335
 11
128.7228922204235
 21
-125.5012111773921
 97
        0
 75
     2
 76
     1
 98
        0
  0
POLYLINE
  5
162
330
149
100
AcDbEntity
  8
Ebene 1
370
     0
100
AcDb2dPolyline
 66
     1
 10
0.0
 20
0.0
 30
0.0
  0
VERTEX
  5
163
330
162
100
AcDbEntity
  8
Ebene 1
370
     0
100
AcDbVertex
100
AcDb2dVertex
 10
122.3859835848549
 20
-131.0419582463194
 30
0.0
  0
VERTEX
  5
164
330
162
100
AcDbEntity
  8
Ebene 1
370
     0
100
AcDbVertex
100
AcDb2dVertex
 10
115.1988253835267
 20
-125.9352932085335
 30
0.0
  0
VERTEX
  5
165
330
162
100
AcDbEntity
  8
Ebene 1
370
     0
100
AcDbVertex
100
AcDb2dVertex
 10
128.7228922204235
 20
-125.5012111773921
 30
0.0
  0
VERTEX
  5
166
330
162
100
AcDbEntity
  8
Ebene 1
370
     0
100
AcDbVertex
100
AcDb2dVertex
 10
122.3859835848549
 20
-131.0419582463194
 30
0.0
  0
SEQEND
  5
167
330
162
100
AcDbEntity
  8
Ebene 1
370
     0
  0
HATCH
  5
168
330
149
100
AcDbEntity
  8
Ebene 1
 62
    22
420
 13319469
100
AcDbHatch
 10
0.0
 20
0.0
 30
0.0
210
0.0
220
0.0
230
1.0
  2
SOLID
 70
     1
 71
     0
 91
        1
 92
        1
 93
        3
 72
     1
 10
122.3859835848549
 20
-131.0419582463194
 11
115.1988253835267
 21
-125.9352932085335
 72
     1
 10
115.1988253835267
 20
-125.9352932085335
 11
128.7228922204235
 21
-125.5012111773921
 72
     1
 10
128.7228922204235
 20
-125.5012111773921
 11
122.3859835848549
 21
-131.0419582463194
 97
        0
 75
     2
 76
     1
 98
        0
  0
POLYLINE
  5
169
330
149
100
AcDbEntity
  8
Ebene 1
370
     0
100
AcDb2dPolyline
 66
     1
 10
0.0
 20
0.0
 30
0.0
  0
VERTEX
  5
16A
330
169
100
AcDbEntity
  8
Ebene 1
370
     0
100
AcDbVertex
100
AcDb2dVertex
 10
140.6346543702233
 20
-116.4881523688814
 30
0.0
  0
VERTEX
  5
16B
330
169
100
AcDbEntity
  8
Ebene 1
370
     0
100
AcDbVertex
100
AcDb2dVertex
 10
128.7228922204235
 20
-125.5012111773921
 30
0.0
  0
VERTEX
  5
16C
330
169
100
AcDbEntity
  8
Ebene 1
370
     0
100
AcDbVertex
100
AcDb2dVertex
 10
121.1164658985403
 20
-119.7227525199825
 30
0.0
  0
VERTEX
  5
16D
330
169
100
AcDbEntity
  8
Ebene 1
370
     0
100
AcDbVertex
100
AcDb2dVertex
 10
140.6346543702233
 20
-116.4881523688814
 30
0.0
  0
SEQEND
  5
16E
330
169
100
AcDbEntity
  8
Ebene 1
370
     0
  0
HATCH
  5
16F
330
149
100
AcDbEntity
  8
Ebene 1
 62
     8
420
  7897742
100
AcDbHatch
 10
0.0
 20
0.0
 30
0.0
210
0.0
220
0.0
230
1.0
  2
SOLID
 70
     1
 71
     0
 91
        1
 92
        1
 93
        3
 72
     1
 10
140.6346543702233
 20
-116.4881523688814
 11
128.7228922204235
 21
-125.5012111773921
 72
     1
 10
128.7228922204235
 20
-125.5012111773921
 11
121.1164658985403
 21
-119.7227525199825
 72
     1
 10
121.1164658985403
 20
-119.7227525199825
 11
140.6346543702233
 21
-116.4881523688814
 97
        0
 75
     2
 76
     1
 98
        0
  0
POLYLINE
  5
170
330
149
100
AcDbEntity
  8
Ebene 1
370
     0
100
AcDb2dPolyline
 66
     1
 10
0.0
 20
0.0
 30
0.0
  0
VERTEX
  5
171
330
170
100
AcDbEntity
  8
Ebene 1
370
     0
100
AcDbVertex
100
AcDb2dVertex
 10
144.7525770037424
 20
-131.5501098303937
 30
0.0
  0
VERTEX
  5
172
330
170
100
AcDbEntity
  8
Ebene 1
370
     0
100
AcDbVertex
100
AcDb2dVertex
 10
137.1861137894882
 20
-137.4973781665805
 30
0.0
  0
VERTEX
  5
173
330
170
100
AcDbEntity
  8
Ebene 1
370
     0
100
AcDbVertex
100
AcDb2dVertex
 10
124.3886175904306
 20
-139.0104641037022
 30
0.0
  0
VERTEX
  5
174
330
170
100
AcDbEntity
  8
Ebene 1
370
     0
100
AcDbVertex
100
AcDb2dVertex
 10
144.7525770037424
 20
-131.5501098303937
 30
0.0
  0
SEQEND
  5
175
330
170
100
AcDbEntity
  8
Ebene 1
370
     0
  0
HATCH
  5
176
330
149
100
AcDbEntity
  8
Ebene 1
 62
    28
420
  5772305
100
AcDbHatch
 10
0.0
 20
0.0
 30
0.0
210
0.0
220
0.0
230
1.0
  2
SOLID
 70
     1
 71
     0
 91
        1
 92
        1
 93
        3
 72
     1
 10
144.7525770037424
 20
-131.5501098303937
 11
137.1861137894882
 21
-137.4973781665805
 72
     1
 10
137.1861137894882
 20
-137.4973781665805
 11
124.3886175904306
 21
-139.0104641037022
 72
     1
 10
124.3886175904306
 20
-139.0104641037022
 11
144.7525770037424
 21
-131.5501098303937
 97
        0
 75
     2
 76
     1
 98
        0
  0
POLYLINE
  5
177
330
149
100
AcDbEntity
  8
Ebene 1
370
     0
100
AcDb2dPolyline
 66
     1
 10
0.0
 20
0.0
 30
0.0
  0
VERTEX
  5
178
330
177
100
AcDbEntity
  8
Ebene 1
370
     0
100
AcDbVertex
100
AcDb2dVertex
 10
152.2218885253126
 20
-142.6243692677293
 30
0.0
  0
VERTEX
  5
179
330
177
100
AcDbEntity
  8
Ebene 1
370
     0
100
AcDbVertex
100
AcDb2dVertex
 10
137.1861137894882
 20
-137.4973781665805
 30
0.0
  0
VERTEX
  5
17A
330
177
100
AcDbEntity
  8
Ebene 1
370
     0
100
AcDbVertex
100
AcDb2dVertex
 10
124.3886175904306
 20
-139.0104641037022
 30
0.0
  0
VERTEX
  5
17B
330
177
100
AcDbEntity
  8
Ebene 1
370
     0
100
AcDbVertex
100
AcDb2dVertex
 10
152.2218885253126
 20
-142.6243692677293
 30
0.0
  0
SEQEND
  5
17C
330
177
100
AcDbEntity
  8
Ebene 1
370
     0
  0
HATCH
  5
17D
330
149
100
AcDbEntity
  8
Ebene 1
 62
    28
420
  3938064
100
AcDbHatch
 10
0.0
 20
0.0
 30
0.0
210
0.0
220
0.0
230
1.0
  2
SOLID
 70
     1
 71
     0
 91
        1
 92
        1
 93
        3
 72
     1
 10
152.2218885253126
 20
-142.6243692677293
 11
137.1861137894882
 21
-137.4973781665805
 72
     1
 10
137.1861137894882
 20
-137.4973781665805
 11
124.3886175904306
 21
-139.0104641037022
 72
     1
 10
124.3886175904306
 20
-139.0104641037022
 11
152.2218885253126
 21
-142.6243692677293
 97
        0
 75
     2
 76
     1
 98
        0
  0
POLYLINE
  5
17E
330
149
100
AcDbEntity
  8
Ebene 1
370
     0
100
AcDb2dPolyline
 66
     1
 10
0.0
 20
0.0
 30
0.0
  0
VERTEX
  5
17F
330
17E
100
AcDbEntity
  8
Ebene 1
370
     0
100
AcDbVertex
100
AcDb2dVertex
 10
159.9664631761542
 20
-150.1751572975257
 30
0.0
  0
VERTEX
  5
180
330
17E
100
AcDbEntity
  8
Ebene 1
370
     0
100
AcDbVertex
100
AcDb2dVertex
 10
152.2218885253126
 20
-142.6243692677293
 30
0.0
  0
VERTEX
  5
181
330
17E
100
AcDbEntity
  8
Ebene 1
370
     0
100
AcDbVertex
100
AcDb2dVertex
 10
124.3886175904306
 20
-139.0104641037022
 30
0.0
  0
VERTEX
  5
182
330
17E
100
AcDbEntity
  8
Ebene 1
370
     0
100
AcDbVertex
100
AcDb2dVertex
 10
159.9664631761542
 20
-150.1751572975257
 30
0.0
  0
SEQEND
  5
183
330
17E
100
AcDbEntity
  8
Ebene 1
370
     0
  0
HATCH
  5
184
330
149
100
AcDbEntity
  8
Ebene 1
 62
    22
420
 13118243
100
AcDbHatch
 10
0.0
 20
0.0
 30
0.0
210
0.0
220
0.0
230
1.0
  2
SOLID
 70
     1
 71
     0
 91
        1
 92
        1
 93
        3
 72
     1
 10
159.9664631761542
 20
-150.1751572975257
 11
152.2218885253126
 21
-142.6243692677293
 72
     1
 10
152.2218885253126
 20
-142.6243692677293
 11
124.3886175904306
 21
-139.0104641037022
 72
     1
 10
124.3886175904306
 20
-139.0104641037022
 11
159.9664631761542
 21
-150.1751572975257
 97
        0
 75
     2
 76
     1
 98
        0
  0
POLYLINE
  5
185
330
149
100
AcDbEntity
  8
Ebene 1
370
     0
100
AcDb2dPolyline
 66
     1
 10
0.0
 20
0.0
 30
0.0
  0
VERTEX
  5
186
330
185
100
AcDbEntity
  8
Ebene 1
370
     0
100
AcDbVertex
100
AcDb2dVertex
 10
105.2452555075429
 20
-143.0763657953941
 30
0.0
  0
VERTEX
  5
187
330
185
100
AcDbEntity
  8
Ebene 1
370
     0
100
AcDbVertex
100
AcDb2dVertex
 10
124.3886175904306
 20
-139.0104641037022
 30
0.0
  0
VERTEX
  5
188
330
185
100
AcDbEntity
  8
Ebene 1
370
     0
100
AcDbVertex
100
AcDb2dVertex
 10
144.3333088831875
 20
-145.2695135813042
 30
0.0
  0
VERTEX
  5
189
330
185
100
AcDbEntity
  8
Ebene 1
370
     0
100
AcDbVertex
100
AcDb2dVertex
 10
105.2452555075429
 20
-143.0763657953941
 30
0.0
  0
SEQEND
  5
18A
330
185
100
AcDbEntity
  8
Ebene 1
370
     0
  0
HATCH
  5
18B
330
149
100
AcDbEntity
  8
Ebene 1
 62
    28
420
  5772305
100
AcDbHatch
 10
0.0
 20
0.0
 30
0.0
210
0.0
220
0.0
230
1.0
  2
SOLID
 70
     1
 71
     0
 91
        1
 92
        1
 93
        3
 72
     1
 10
105.2452555075429
 20
-143.0763657953941
 11
124.3886175904306
 21
-139.0104641037022
 72
     1
 10
124.3886175904306
 20
-139.0104641037022
 11
144.3333088831875
 21
-145.2695135813042
 72
     1
 10
144.3333088831875
 20
-145.2695135813042
 11
105.2452555075429
 21
-143.0763657953941
 97
        0
 75
     2
 76
     1
 98
        0
  0
POLYLINE
  5
18C
330
149
100
AcDbEntity
  8
Ebene 1
370
     0
100
AcDb2dPolyline
 66
     1
 10
0.0
 20
0.0
 30
0.0
  0
VERTEX
  5
18D
330
18C
100
AcDbEntity
  8
Ebene 1
370
     0
100
AcDbVertex
100
AcDb2dVertex
 10
133.6104491853474
 20
-144.6679999095795
 30
0.0
  0
VERTEX
  5
18E
330
18C
100
AcDbEntity
  8
Ebene 1
370
     0
100
AcDbVertex
100
AcDb2dVertex
 10
124.4961045695704
 20
-157.088774917325
 30
0.0
  0
VERTEX
  5
18F
330
18C
100
AcDbEntity
  8
Ebene 1
370
     0
100
AcDbVertex
100
AcDb2dVertex
 10
118.5695068062951
 20
-143.8239515156933
 30
0.0
  0
VERTEX
  5
190
330
18C
100
AcDbEntity
  8
Ebene 1
370
     0
100
AcDbVertex
100
AcDb2dVertex
 10
133.6104491853474
 20
-144.6679999095795
 30
0.0
  0
SEQEND
  5
191
330
18C
100
AcDbEntity
  8
Ebene 1
370
     0
  0
HATCH
  5
192
330
149
100
AcDbEntity
  8
Ebene 1
 62
   251
420
  5197647
100
AcDbHatch
 10
0.0
 20
0.0
 30
0.0
210
0.0
220
0.0
230
1.0
  2
SOLID
 70
     1
 71
     0
 91
        1
 92
        1
 93
        3
 72
     1
 10
133.6104491853474
 20
-144.6679999095795
 11
124.4961045695704
 21
-157.088774917325
 72
     1
 10
124.4961045695704
 20
-157.088774917325
 11
118.5695068062951
 21
-143.8239515156933
 72
     1
 10
118.5695068062951
 20
-143.8239515156933
 11
133.6104491853474
 21
-144.6679999095795
 97
        0
 75
     2
 76
     1
 98
        0
  0
POLYLINE
  5
193
330
149
100
AcDbEntity
  8
Ebene 1
370
     0
100
AcDb2dPolyline
 66
     1
 10
0.0
 20
0.0
 30
0.0
  0
VERTEX
  5
194
330
193
100
AcDbEntity
  8
Ebene 1
370
     0
100
AcDbVertex
100
AcDb2dVertex
 10
159.9664631761542
 20
-150.1751572975257
 30
0.0
  0
VERTEX
  5
195
330
193
100
AcDbEntity
  8
Ebene 1
370
     0
100
AcDbVertex
100
AcDb2dVertex
 10
144.3333088831875
 20
-145.2695135813042
 30
0.0
  0
VERTEX
  5
196
330
193
100
AcDbEntity
  8
Ebene 1
370
     0
100
AcDbVertex
100
AcDb2dVertex
 10
133.6104491853474
 20
-144.6679999095795
 30
0.0
  0
VERTEX
  5
197
330
193
100
AcDbEntity
  8
Ebene 1
370
     0
100
AcDbVertex
100
AcDb2dVertex
 10
159.9664631761542
 20
-150.1751572975257
 30
0.0
  0
SEQEND
  5
198
330
193
100
AcDbEntity
  8
Ebene 1
370
     0
  0
HATCH
  5
199
330
149
100
AcDbEntity
  8
Ebene 1
 62
    28
420
  3938064
100
AcDbHatch
 10
0.0
 20
0.0
 30
0.0
210
0.0
220
0.0
230
1.0
  2
SOLID
 70
     1
 71
     0
 91
        1
 92
        1
 93
        3
 72
     1
 10
159.9664631761542
 20
-150.1751572975257
 11
144.3333088831875
 21
-145.2695135813042
 72
     1
 10
144.3333088831875
 20
-145.2695135813042
 11
133.6104491853474
 21
-144.6679999095795
 72
     1
 10
133.6104491853474
 20
-144.6679999095795
 11
159.9664631761542
 21
-150.1751572975257
 97
        0
 75
     2
 76
     1
 98
        0
  0
POLYLINE
  5
19A
330
149
100
AcDbEntity
  8
Ebene 1
370
     0
100
AcDb2dPolyline
 66
     1
 10
0.0
 20
0.0
 30
0.0
  0
VERTEX
  5
19B
330
19A
100
AcDbEntity
  8
Ebene 1
370
     0
100
AcDbVertex
100
AcDb2dVertex
 10
105.2452555075429
 20
-143.0763657953941
 30
0.0
  0
VERTEX
  5
19C
330
19A
100
AcDbEntity
  8
Ebene 1
370
     0
100
AcDbVertex
100
AcDb2dVertex
 10
130.6697156791381
 20
-170.822992578822
 30
0.0
  0
VERTEX
  5
19D
330
19A
100
AcDbEntity
  8
Ebene 1
370
     0
100
AcDbVertex
100
AcDb2dVertex
 10
118.5695068062951
 20
-143.8239515156933
 30
0.0
  0
VERTEX
  5
19E
330
19A
100
AcDbEntity
  8
Ebene 1
370
     0
100
AcDbVertex
100
AcDb2dVertex
 10
105.2452555075429
 20
-143.0763657953941
 30
0.0
  0
SEQEND
  5
19F
330
19A
100
AcDbEntity
  8
Ebene 1
370
     0
  0
HATCH
  5
1A0
330
149
100
AcDbEntity
  8
Ebene 1
 62
     8
420
  7897742
100
AcDbHatch
 10
0.0
 20
0.0
 30
0.0
210
0.0
220
0.0
230
1.0
  2
SOLID
 70
     1
 71
     0
 91
        1
 92
        1
 93
        3
 72
     1
 10
105.2452555075429
 20
-143.0763657953941
 11
130.6697156791381
 21
-170.822992578822
 72
     1
 10
130.6697156791381
 20
-170.822992578822
 11
118.5695068062951
 21
-143.8239515156933
 72
     1
 10
118.5695068062951
 20
-143.8239515156933
 11
105.2452555075429
 21
-143.0763657953941
 97
        0
 75
     2
 76
     1
 98
        0
  0
POLYLINE
  5
1A1
330
149
100
AcDbEntity
  8
Ebene 1
370
     0
100
AcDb2dPolyline
 66
     1
 10
0.0
 20
0.0
 30
0.0
  0
VERTEX
  5
1A2
330
1A1
100
AcDbEntity
  8
Ebene 1
370
     0
100
AcDbVertex
100
AcDb2dVertex
 10
130.6697156791381
 20
-170.822992578822
 30
0.0
  0
VERTEX
  5
1A3
330
1A1
100
AcDbEntity
  8
Ebene 1
370
     0
100
AcDbVertex
100
AcDb2dVertex
 10
126.6647921775352
 20
-176.3578829854244
 30
0.0
  0
VERTEX
  5
1A4
330
1A1
100
AcDbEntity
  8
Ebene 1
370
     0
100
AcDbVertex
100
AcDb2dVertex
 10
105.2452555075429
 20
-143.0763657953941
 30
0.0
  0
VERTEX
  5
1A5
330
1A1
100
AcDbEntity
  8
Ebene 1
370
     0
100
AcDbVertex
100
AcDb2dVertex
 10
130.6697156791381
 20
-170.822992578822
 30
0.0
  0
SEQEND
  5
1A6
330
1A1
100
AcDbEntity
  8
Ebene 1
370
     0
  0
HATCH
  5
1A7
330
149
100
AcDbEntity
  8
Ebene 1
 62
     8
420
  8094346
100
AcDbHatch
 10
0.0
 20
0.0
 30
0.0
210
0.0
220
0.0
230
1.0
  2
SOLID
 70
     1
 71
     0
 91
        1
 92
        1
 93
        3
 72
     1
 10
130.6697156791381
 20
-170.822992578822
 11
126.6647921775352
 21
-176.3578829854244
 72
     1
 10
126.6647921775352
 20
-176.3578829854244
 11
105.2452555075429
 21
-143.0763657953941
 72
     1
 10
105.2452555075429
 20
-143.0763657953941
 11
130.6697156791381
 21
-170.822992578822
 97
        0
 75
     2
 76
     1
 98
        0
  0
POLYLINE
  5
1A8
330
149
100
AcDbEntity
  8
Ebene 1
370
     0
100
AcDb2dPolyline
 66
     1
 10
0.0
 20
0.0
 30
0.0
  0
VERTEX
  5
1A9
330
1A8
100
AcDbEntity
  8
Ebene 1
370
     0
100
AcDbVertex
100
AcDb2dVertex
 10
122.7680446741691
 20
-182.6444932269083
 30
0.0
  0
VERTEX
  5
1AA
330
1A8
100
AcDbEntity
  8
Ebene 1
370
     0
100
AcDbVertex
100
AcDb2dVertex
 10
105.2452555075429
 20
-143.0763657953941
 30
0.0
  0
VERTEX
  5
1AB
330
1A8
100
AcDbEntity
  8
Ebene 1
370
     0
100
AcDbVertex
100
AcDb2dVertex
 10
127.207394716462
 20
-177.2005533411165
 30
0.0
  0
VERTEX
  5
1AC
330
1A8
100
AcDbEntity
  8
Ebene 1
370
     0
100
AcDbVertex
100
AcDb2dVertex
 10
122.7680446741691
 20
-182.6444932269083
 30
0.0
  0
SEQEND
  5
1AD
330
1A8
100
AcDbEntity
  8
Ebene 1
370
     0
  0
HATCH
  5
1AE
330
149
100
AcDbEntity
  8
Ebene 1
 62
   252
420
  9081243
100
AcDbHatch
 10
0.0
 20
0.0
 30
0.0
210
0.0
220
0.0
230
1.0
  2
SOLID
 70
     1
 71
     0
 91
        1
 92
        1
 93
        3
 72
     1
 10
122.7680446741691
 20
-182.6444932269083
 11
105.2452555075429
 21
-143.0763657953941
 72
     1
 10
105.2452555075429
 20
-143.0763657953941
 11
127.207394716462
 21
-177.2005533411165
 72
     1
 10
127.207394716462
 20
-177.2005533411165
 11
122.7680446741691
 21
-182.6444932269083
 97
        0
 75
     2
 76
     1
 98
        0
  0
POLYLINE
  5
1AF
330
149
100
AcDbEntity
  8
Ebene 1
370
     0
100
AcDb2dPolyline
 66
     1
 10
0.0
 20
0.0
 30
0.0
  0
VERTEX
  5
1B0
330
1AF
100
AcDbEntity
  8
Ebene 1
370
     0
100
AcDbVertex
100
AcDb2dVertex
 10
123.8584173952507
 20
-185.1070474797649
 30
0.0
  0
VERTEX
  5
1B1
330
1AF
100
AcDbEntity
  8
Ebene 1
370
     0
100
AcDbVertex
100
AcDb2dVertex
 10
105.2452555075429
 20
-143.0763657953941
 30
0.0
  0
VERTEX
  5
1B2
330
1AF
100
AcDbEntity
  8
Ebene 1
370
     0
100
AcDbVertex
100
AcDb2dVertex
 10
117.3592447623269
 20
-189.3266004300989
 30
0.0
  0
VERTEX
  5
1B3
330
1AF
100
AcDbEntity
  8
Ebene 1
370
     0
100
AcDbVertex
100
AcDb2dVertex
 10
123.8584173952507
 20
-185.1070474797649
 30
0.0
  0
SEQEND
  5
1B4
330
1AF
100
AcDbEntity
  8
Ebene 1
370
     0
  0
HATCH
  5
1B5
330
149
100
AcDbEntity
  8
Ebene 1
 62
   253
420
 11645364
100
AcDbHatch
 10
0.0
 20
0.0
 30
0.0
210
0.0
220
0.0
230
1.0
  2
SOLID
 70
     1
 71
     0
 91
        1
 92
        1
 93
        3
 72
     1
 10
123.8584173952507
 20
-185.1070474797649
 11
105.2452555075429
 21
-143.0763657953941
 72
     1
 10
105.2452555075429
 20
-143.0763657953941
 11
117.3592447623269
 21
-189.3266004300989
 72
     1
 10
117.3592447623269
 20
-189.3266004300989
 11
123.8584173952507
 21
-185.1070474797649
 97
        0
 75
     2
 76
     1
 98
        0
  0
POLYLINE
  5
1B6
330
149
100
AcDbEntity
  8
Ebene 1
370
     0
100
AcDb2dPolyline
 66
     1
 10
0.0
 20
0.0
 30
0.0
  0
VERTEX
  5
1B7
330
1B6
100
AcDbEntity
  8
Ebene 1
370
     0
100
AcDbVertex
100
AcDb2dVertex
 10
121.0303385114091
 20
-123.5264824452469
 30
0.0
  0
VERTEX
  5
1B8
330
1B6
100
AcDbEntity
  8
Ebene 1
370
     0
100
AcDbVertex
100
AcDb2dVertex
 10
119.3808267930715
 20
-125.8016235037059
 30
0.0
  0
VERTEX
  5
1B9
330
1B6
100
AcDbEntity
  8
Ebene 1
370
     0
100
AcDbVertex
100
AcDb2dVertex
 10
124.7582763359979
 20
-125.6283352007978
 30
0.0
  0
VERTEX
  5
1BA
330
1B6
100
AcDbEntity
  8
Ebene 1
370
     0
100
AcDbVertex
100
AcDb2dVertex
 10
121.0303385114091
 20
-123.5264824452469
 30
0.0
  0
SEQEND
  5
1BB
330
1B6
100
AcDbEntity
  8
Ebene 1
370
     0
  0
HATCH
  5
1BC
330
149
100
AcDbEntity
  8
Ebene 1
 62
   179
420
  2303010
100
AcDbHatch
 10
0.0
 20
0.0
 30
0.0
210
0.0
220
0.0
230
1.0
  2
SOLID
 70
     1
 71
     0
 91
        1
 92
        1
 93
        3
 72
     1
 10
121.0303385114091
 20
-123.5264824452469
 11
119.3808267930715
 21
-125.8016235037059
 72
     1
 10
119.3808267930715
 20
-125.8016235037059
 11
124.7582763359979
 21
-125.6283352007978
 72
     1
 10
124.7582763359979
 20
-125.6283352007978
 11
121.0303385114091
 21
-123.5264824452469
 97
        0
 75
     2
 76
     1
 98
        0
  0
POLYLINE
  5
1BD
330
149
100
AcDbEntity
  8
Ebene 1
370
     0
100
AcDb2dPolyline
 66
     1
 10
0.0
 20
0.0
 30
0.0
  0
VERTEX
  5
1BE
330
1BD
100
AcDbEntity
  8
Ebene 1
370
     0
100
AcDbVertex
100
AcDb2dVertex
 10
121.2701171571825
 20
-127.0797539287335
 30
0.0
  0
VERTEX
  5
1BF
330
1BD
100
AcDbEntity
  8
Ebene 1
370
     0
100
AcDbVertex
100
AcDb2dVertex
 10
119.3808267930715
 20
-125.8016235037059
 30
0.0
  0
VERTEX
  5
1C0
330
1BD
100
AcDbEntity
  8
Ebene 1
370
     0
100
AcDbVertex
100
AcDb2dVertex
 10
124.7582763359979
 20
-125.6283352007978
 30
0.0
  0
VERTEX
  5
1C1
330
1BD
100
AcDbEntity
  8
Ebene 1
370
     0
100
AcDbVertex
100
AcDb2dVertex
 10
121.2701171571825
 20
-127.0797539287335
 30
0.0
  0
SEQEND
  5
1C2
330
1BD
100
AcDbEntity
  8
Ebene 1
370
     0
  0
HATCH
  5
1C3
330
149
100
AcDbEntity
  8
Ebene 1
 62
   250
420
  3947579
100
AcDbHatch
 10
0.0
 20
0.0
 30
0.0
210
0.0
220
0.0
230
1.0
  2
SOLID
 70
     1
 71
     0
 91
        1
 92
        1
 93
        3
 72
     1
 10
121.2701171571825
 20
-127.0797539287335
 11
119.3808267930715
 21
-125.8016235037059
 72
     1
 10
119.3808267930715
 20
-125.8016235037059
 11
124.7582763359979
 21
-125.6283352007978
 72
     1
 10
124.7582763359979
 20
-125.6283352007978
 11
121.2701171571825
 21
-127.0797539287335
 97
        0
 75
     2
 76
     1
 98
        0
  0
POLYLINE
  5
1C4
330
149
100
AcDbEntity
  8
Ebene 1
370
     0
100
AcDb2dPolyline
 66
     1
 10
0.0
 20
0.0
 30
0.0
  0
VERTEX
  5
1C5
330
1C4
100
AcDbEntity
  8
Ebene 1
370
     0
100
AcDbVertex
100
AcDb2dVertex
 10
105.2452555075429
 20
-143.0763657953941
 30
0.0
  0
VERTEX
  5
1C6
330
1C4
100
AcDbEntity
  8
Ebene 1
370
     0
100
AcDbVertex
100
AcDb2dVertex
 10
108.136724148313
 20
-191.0167642751625
 30
0.0
  0
VERTEX
  5
1C7
330
1C4
100
AcDbEntity
  8
Ebene 1
370
     0
100
AcDbVertex
100
AcDb2dVertex
 10
118.1629855390356
 20
-192.4809298563937
 30
0.0
  0
VERTEX
  5
1C8
330
1C4
100
AcDbEntity
  8
Ebene 1
370
     0
100
AcDbVertex
100
AcDb2dVertex
 10
105.2452555075429
 20
-143.0763657953941
 30
0.0
  0
SEQEND
  5
1C9
330
1C4
100
AcDbEntity
  8
Ebene 1
370
     0
  0
HATCH
  5
1CA
330
149
100
AcDbEntity
  8
Ebene 1
 62
     8
420
  7897742
100
AcDbHatch
 10
0.0
 20
0.0
 30
0.0
210
0.0
220
0.0
230
1.0
  2
SOLID
 70
     1
 71
     0
 91
        1
 92
        1
 93
        3
 72
     1
 10
105.2452555075429
 20
-143.0763657953941
 11
108.136724148313
 21
-191.0167642751625
 72
     1
 10
108.136724148313
 20
-191.0167642751625
 11
118.1629855390356
 21
-192.4809298563937
 72
     1
 10
118.1629855390356
 20
-192.4809298563937
 11
105.2452555075429
 21
-143.0763657953941
 97
        0
 75
     2
 76
     1
 98
        0
  0
ENDBLK
  5
14C
330
149
100
AcDbEntity
  8
0
100
AcDbBlockEnd
  0
BLOCK
  5
226
330
224
100
AcDbEntity
  8
0
100
AcDbBlockBegin
  2
block 6
 70
     0
 71
     0
 10
0.0
 20
0.0
 30
0.0
  3
block 6
  1

  0
INSERT
  5
229
330
224
100
AcDbEntity
  8
Ebene 1
100
AcDbBlockReference
  2
block 7
 10
0.0
 20
0.0
 30
0.0
  0
POLYLINE
  5
2AA
330
224
100
AcDbEntity
  8
Ebene 1
370
     0
100
AcDb2dPolyline
 66
     1
 10
0.0
 20
0.0
 30
0.0
  0
VERTEX
  5
2AB
330
2AA
100
AcDbEntity
  8
Ebene 1
370
     0
100
AcDbVertex
100
AcDb2dVertex
 10
97.01423337418395
 20
-125.7399562945199
 30
0.0
  0
VERTEX
  5
2AC
330
2AA
100
AcDbEntity
  8
Ebene 1
370
     0
100
AcDbVertex
100
AcDb2dVertex
 10
75.96814505479269
 20
-119.7227525199825
 30
0.0
  0
VERTEX
  5
2AD
330
2AA
100
AcDbEntity
  8
Ebene 1
370
     0
100
AcDbVertex
100
AcDb2dVertex
 10
90.30663246440251
 20
-112.0939330774453
 30
0.0
  0
VERTEX
  5
2AE
330
2AA
100
AcDbEntity
  8
Ebene 1
370
     0
100
AcDbVertex
100
AcDb2dVertex
 10
97.01423337418395
 20
-117.2870700119109
 30
0.0
  0
VERTEX
  5
2AF
330
2AA
100
AcDbEntity
  8
Ebene 1
370
     0
100
AcDbVertex
100
AcDb2dVertex
 10
97.01423337418395
 20
-125.7399562945199
 30
0.0
  0
SEQEND
  5
2B0
330
2AA
100
AcDbEntity
  8
Ebene 1
370
     0
  0
HATCH
  5
2B1
330
224
100
AcDbEntity
  8
Ebene 1
 62
    20
420
 15222097
100
AcDbHatch
 10
0.0
 20
0.0
 30
0.0
210
0.0
220
0.0
230
1.0
  2
SOLID
 70
     1
 71
     0
 91
        1
 92
        1
 93
        4
 72
     1
 10
97.01423337418395
 20
-125.7399562945199
 11
75.96814505479269
 21
-119.7227525199825
 72
     1
 10
75.96814505479269
 20
-119.7227525199825
 11
90.30663246440251
 21
-112.0939330774453
 72
     1
 10
90.30663246440251
 20
-112.0939330774453
 11
97.01423337418395
 21
-117.2870700119109
 72
     1
 10
97.01423337418395
 20
-117.2870700119109
 11
97.01423337418395
 21
-125.7399562945199
 97
        0
 75
     2
 76
     1
 98
        0
  0
POLYLINE
  5
2B2
330
224
100
AcDbEntity
  8
Ebene 1
370
     0
100
AcDb2dPolyline
 66
     1
 10
0.0
 20
0.0
 30
0.0
  0
VERTEX
  5
2B3
330
2B2
100
AcDbEntity
  8
Ebene 1
370
     0
100
AcDbVertex
100
AcDb2dVertex
 10
97.01423337418395
 20
-125.7399562945199
 30
0.0
  0
VERTEX
  5
2B4
330
2B2
100
AcDbEntity
  8
Ebene 1
370
     0
100
AcDbVertex
100
AcDb2dVertex
 10
97.01423337418395
 20
-128.1525566628403
 30
0.0
  0
VERTEX
  5
2B5
330
2B2
100
AcDbEntity
  8
Ebene 1
370
     0
100
AcDbVertex
100
AcDb2dVertex
 10
81.88578556980633
 20
-125.9352932085335
 30
0.0
  0
VERTEX
  5
2B6
330
2B2
100
AcDbEntity
  8
Ebene 1
370
     0
100
AcDbVertex
100
AcDb2dVertex
 10
75.96814505479269
 20
-119.7227525199825
 30
0.0
  0
VERTEX
  5
2B7
330
2B2
100
AcDbEntity
  8
Ebene 1
370
     0
100
AcDbVertex
100
AcDb2dVertex
 10
97.01423337418395
 20
-125.7399562945199
 30
0.0
  0
SEQEND
  5
2B8
330
2B2
100
AcDbEntity
  8
Ebene 1
370
     0
  0
HATCH
  5
2B9
330
224
100
AcDbEntity
  8
Ebene 1
 62
   242
420
 13439774
100
AcDbHatch
 10
0.0
 20
0.0
 30
0.0
210
0.0
220
0.0
230
1.0
  2
SOLID
 70
     1
 71
     0
 91
        1
 92
        1
 93
        4
 72
     1
 10
97.01423337418395
 20
-125.7399562945199
 11
97.01423337418395
 21
-128.1525566628403
 72
     1
 10
97.01423337418395
 20
-128.1525566628403
 11
81.88578556980633
 21
-125.9352932085335
 72
     1
 10
81.88578556980633
 20
-125.9352932085335
 11
75.96814505479269
 21
-119.7227525199825
 72
     1
 10
75.96814505479269
 20
-119.7227525199825
 11
97.01423337418395
 21
-125.7399562945199
 97
        0
 75
     2
 76
     1
 98
        0
  0
POLYLINE
  5
2BA
330
224
100
AcDbEntity
  8
Ebene 1
370
     0
100
AcDb2dPolyline
 66
     1
 10
0.0
 20
0.0
 30
0.0
  0
VERTEX
  5
2BB
330
2BA
100
AcDbEntity
  8
Ebene 1
370
     0
100
AcDbVertex
100
AcDb2dVertex
 10
97.01423337418395
 20
-130.8428317272719
 30
0.0
  0
VERTEX
  5
2BC
330
2BA
100
AcDbEntity
  8
Ebene 1
370
     0
100
AcDbVertex
100
AcDb2dVertex
 10
74.50501300220708
 20
-131.0433362845135
 30
0.0
  0
VERTEX
  5
2BD
330
2BA
100
AcDbEntity
  8
Ebene 1
370
     0
100
AcDbVertex
100
AcDb2dVertex
 10
81.72593313929075
 20
-125.8574340505669
 30
0.0
  0
VERTEX
  5
2BE
330
2BA
100
AcDbEntity
  8
Ebene 1
370
     0
100
AcDbVertex
100
AcDb2dVertex
 10
97.01423337418395
 20
-128.1236178607642
 30
0.0
  0
VERTEX
  5
2BF
330
2BA
100
AcDbEntity
  8
Ebene 1
370
     0
100
AcDbVertex
100
AcDb2dVertex
 10
97.01423337418395
 20
-130.8428317272719
 30
0.0
  0
SEQEND
  5
2C0
330
2BA
100
AcDbEntity
  8
Ebene 1
370
     0
  0
HATCH
  5
2C1
330
224
100
AcDbEntity
  8
Ebene 1
 62
    22
420
 14038096
100
AcDbHatch
 10
0.0
 20
0.0
 30
0.0
210
0.0
220
0.0
230
1.0
  2
SOLID
 70
     1
 71
     0
 91
        1
 92
        1
 93
        4
 72
     1
 10
97.01423337418395
 20
-130.8428317272719
 11
74.50501300220708
 21
-131.0433362845135
 72
     1
 10
74.50501300220708
 20
-131.0433362845135
 11
81.72593313929075
 21
-125.8574340505669
 72
     1
 10
81.72593313929075
 20
-125.8574340505669
 11
97.01423337418395
 21
-128.1236178607642
 72
     1
 10
97.01423337418395
 20
-128.1236178607642
 11
97.01423337418395
 21
-130.8428317272719
 97
        0
 75
     2
 76
     1
 98
        0
  0
POLYLINE
  5
2C2
330
224
100
AcDbEntity
  8
Ebene 1
370
     0
100
AcDb2dPolyline
 66
     1
 10
0.0
 20
0.0
 30
0.0
  0
VERTEX
  5
2C3
330
2C2
100
AcDbEntity
  8
Ebene 1
370
     0
100
AcDbVertex
100
AcDb2dVertex
 10
97.01423337418395
 20
-130.7994235241578
 30
0.0
  0
VERTEX
  5
2C4
330
2C2
100
AcDbEntity
  8
Ebene 1
370
     0
100
AcDbVertex
100
AcDb2dVertex
 10
97.01423337418395
 20
-136.1565470037213
 30
0.0
  0
VERTEX
  5
2C5
330
2C2
100
AcDbEntity
  8
Ebene 1
370
     0
100
AcDbVertex
100
AcDb2dVertex
 10
74.53360729473465
 20
-131.0178425779226
 30
0.0
  0
VERTEX
  5
2C6
330
2C2
100
AcDbEntity
  8
Ebene 1
370
     0
100
AcDbVertex
100
AcDb2dVertex
 10
97.01423337418395
 20
-130.7994235241578
 30
0.0
  0
SEQEND
  5
2C7
330
2C2
100
AcDbEntity
  8
Ebene 1
370
     0
  0
HATCH
  5
2C8
330
224
100
AcDbEntity
  8
Ebene 1
 62
    20
420
 15222097
100
AcDbHatch
 10
0.0
 20
0.0
 30
0.0
210
0.0
220
0.0
230
1.0
  2
SOLID
 70
     1
 71
     0
 91
        1
 92
        1
 93
        3
 72
     1
 10
97.01423337418395
 20
-130.7994235241578
 11
97.01423337418395
 21
-136.1565470037213
 72
     1
 10
97.01423337418395
 20
-136.1565470037213
 11
74.53360729473465
 21
-131.0178425779226
 72
     1
 10
74.53360729473465
 20
-131.0178425779226
 11
97.01423337418395
 21
-130.7994235241578
 97
        0
 75
     2
 76
     1
 98
        0
  0
POLYLINE
  5
2C9
330
224
100
AcDbEntity
  8
Ebene 1
370
     0
100
AcDb2dPolyline
 66
     1
 10
0.0
 20
0.0
 30
0.0
  0
VERTEX
  5
2CA
330
2C9
100
AcDbEntity
  8
Ebene 1
370
     0
100
AcDbVertex
100
AcDb2dVertex
 10
97.01423337418395
 20
-136.0277004325729
 30
0.0
  0
VERTEX
  5
2CB
330
2C9
100
AcDbEntity
  8
Ebene 1
370
     0
100
AcDbVertex
100
AcDb2dVertex
 10
97.01423337418395
 20
-139.0655856314663
 30
0.0
  0
VERTEX
  5
2CC
330
2C9
100
AcDbEntity
  8
Ebene 1
370
     0
100
AcDbVertex
100
AcDb2dVertex
 10
74.69862736847813
 20
-131.0419582463194
 30
0.0
  0
VERTEX
  5
2CD
330
2C9
100
AcDbEntity
  8
Ebene 1
370
     0
100
AcDbVertex
100
AcDb2dVertex
 10
97.01423337418395
 20
-136.0277004325729
 30
0.0
  0
SEQEND
  5
2CE
330
2C9
100
AcDbEntity
  8
Ebene 1
370
     0
  0
HATCH
  5
2CF
330
224
100
AcDbEntity
  8
Ebene 1
 62
   242
420
 13439774
100
AcDbHatch
 10
0.0
 20
0.0
 30
0.0
210
0.0
220
0.0
230
1.0
  2
SOLID
 70
     1
 71
     0
 91
        1
 92
        1
 93
        3
 72
     1
 10
97.01423337418395
 20
-136.0277004325729
 11
97.01423337418395
 21
-139.0655856314663
 72
     1
 10
97.01423337418395
 20
-139.0655856314663
 11
74.69862736847813
 21
-131.0419582463194
 72
     1
 10
74.69862736847813
 20
-131.0419582463194
 11
97.01423337418395
 21
-136.0277004325729
 97
        0
 75
     2
 76
     1
 98
        0
  0
POLYLINE
  5
2D0
330
224
100
AcDbEntity
  8
Ebene 1
370
     0
100
AcDb2dPolyline
 66
     1
 10
0.0
 20
0.0
 30
0.0
  0
VERTEX
  5
2D1
330
2D0
100
AcDbEntity
  8
Ebene 1
370
     0
100
AcDbVertex
100
AcDb2dVertex
 10
97.01423337418395
 20
-144.1760402742859
 30
0.0
  0
VERTEX
  5
2D2
330
2D0
100
AcDbEntity
  8
Ebene 1
370
     0
100
AcDbVertex
100
AcDb2dVertex
 10
72.6959933629024
 20
-139.0104641037022
 30
0.0
  0
VERTEX
  5
2D3
330
2D0
100
AcDbEntity
  8
Ebene 1
370
     0
100
AcDbVertex
100
AcDb2dVertex
 10
74.69862736847813
 20
-131.0419582463194
 30
0.0
  0
VERTEX
  5
2D4
330
2D0
100
AcDbEntity
  8
Ebene 1
370
     0
100
AcDbVertex
100
AcDb2dVertex
 10
97.01423337418395
 20
-139.0655856314663
 30
0.0
  0
VERTEX
  5
2D5
330
2D0
100
AcDbEntity
  8
Ebene 1
370
     0
100
AcDbVertex
100
AcDb2dVertex
 10
97.01423337418395
 20
-144.1760402742859
 30
0.0
  0
SEQEND
  5
2D6
330
2D0
100
AcDbEntity
  8
Ebene 1
370
     0
  0
HATCH
  5
2D7
330
224
100
AcDbEntity
  8
Ebene 1
 62
   242
420
 13439774
100
AcDbHatch
 10
0.0
 20
0.0
 30
0.0
210
0.0
220
0.0
230
1.0
  2
SOLID
 70
     1
 71
     0
 91
        1
 92
        1
 93
        4
 72
     1
 10
97.01423337418395
 20
-144.1760402742859
 11
72.6959933629024
 21
-139.0104641037022
 72
     1
 10
72.6959933629024
 20
-139.0104641037022
 11
74.69862736847813
 21
-131.0419582463194
 72
     1
 10
74.69862736847813
 20
-131.0419582463194
 11
97.01423337418395
 21
-139.0655856314663
 72
     1
 10
97.01423337418395
 20
-139.0655856314663
 11
97.01423337418395
 21
-144.1760402742859
 97
        0
 75
     2
 76
     1
 98
        0
  0
POLYLINE
  5
2D8
330
224
100
AcDbEntity
  8
Ebene 1
370
     0
100
AcDb2dPolyline
 66
     1
 10
0.0
 20
0.0
 30
0.0
  0
VERTEX
  5
2D9
330
2D8
100
AcDbEntity
  8
Ebene 1
370
     0
100
AcDbVertex
100
AcDb2dVertex
 10
97.01423337418395
 20
-144.1753512551888
 30
0.0
  0
VERTEX
  5
2DA
330
2D8
100
AcDbEntity
  8
Ebene 1
370
     0
100
AcDbVertex
100
AcDb2dVertex
 10
97.01423337418395
 20
-144.9987290761635
 30
0.0
  0
VERTEX
  5
2DB
330
2D8
100
AcDbEntity
  8
Ebene 1
370
     0
100
AcDbVertex
100
AcDb2dVertex
 10
91.83935544579016
 20
-143.0763657953941
 30
0.0
  0
VERTEX
  5
2DC
330
2D8
100
AcDbEntity
  8
Ebene 1
370
     0
100
AcDbVertex
100
AcDb2dVertex
 10
97.01423337418395
 20
-144.1753512551888
 30
0.0
  0
SEQEND
  5
2DD
330
2D8
100
AcDbEntity
  8
Ebene 1
370
     0
  0
HATCH
  5
2DE
330
224
100
AcDbEntity
  8
Ebene 1
 62
    20
420
 15222097
100
AcDbHatch
 10
0.0
 20
0.0
 30
0.0
210
0.0
220
0.0
230
1.0
  2
SOLID
 70
     1
 71
     0
 91
        1
 92
        1
 93
        3
 72
     1
 10
97.01423337418395
 20
-144.1753512551888
 11
97.01423337418395
 21
-144.9987290761635
 72
     1
 10
97.01423337418395
 20
-144.9987290761635
 11
91.83935544579016
 21
-143.0763657953941
 72
     1
 10
91.83935544579016
 20
-143.0763657953941
 11
97.01423337418395
 21
-144.1753512551888
 97
        0
 75
     2
 76
     1
 98
        0
  0
POLYLINE
  5
2DF
330
224
100
AcDbEntity
  8
Ebene 1
370
     0
100
AcDb2dPolyline
 66
     1
 10
0.0
 20
0.0
 30
0.0
  0
VERTEX
  5
2E0
330
2DF
100
AcDbEntity
  8
Ebene 1
370
     0
100
AcDbVertex
100
AcDb2dVertex
 10
97.01423337418395
 20
-144.9987290761635
 30
0.0
  0
VERTEX
  5
2E1
330
2DF
100
AcDbEntity
  8
Ebene 1
370
     0
100
AcDbVertex
100
AcDb2dVertex
 10
97.01423337418395
 20
-145.7842108468005
 30
0.0
  0
VERTEX
  5
2E2
330
2DF
100
AcDbEntity
  8
Ebene 1
370
     0
100
AcDbVertex
100
AcDb2dVertex
 10
91.83935544579016
 20
-143.0763657953941
 30
0.0
  0
VERTEX
  5
2E3
330
2DF
100
AcDbEntity
  8
Ebene 1
370
     0
100
AcDbVertex
100
AcDb2dVertex
 10
97.01423337418395
 20
-144.9987290761635
 30
0.0
  0
SEQEND
  5
2E4
330
2DF
100
AcDbEntity
  8
Ebene 1
370
     0
  0
HATCH
  5
2E5
330
224
100
AcDbEntity
  8
Ebene 1
 62
    22
420
 14038096
100
AcDbHatch
 10
0.0
 20
0.0
 30
0.0
210
0.0
220
0.0
230
1.0
  2
SOLID
 70
     1
 71
     0
 91
        1
 92
        1
 93
        3
 72
     1
 10
97.01423337418395
 20
-144.9987290761635
 11
97.01423337418395
 21
-145.7842108468005
 72
     1
 10
97.01423337418395
 20
-145.7842108468005
 11
91.83935544579016
 21
-143.0763657953941
 72
     1
 10
91.83935544579016
 20
-143.0763657953941
 11
97.01423337418395
 21
-144.9987290761635
 97
        0
 75
     2
 76
     1
 98
        0
  0
POLYLINE
  5
2E6
330
224
100
AcDbEntity
  8
Ebene 1
370
     0
100
AcDb2dPolyline
 66
     1
 10
0.0
 20
0.0
 30
0.0
  0
VERTEX
  5
2E7
330
2E6
100
AcDbEntity
  8
Ebene 1
370
     0
100
AcDbVertex
100
AcDb2dVertex
 10
97.01423337418395
 20
-145.784555356349
 30
0.0
  0
VERTEX
  5
2E8
330
2E6
100
AcDbEntity
  8
Ebene 1
370
     0
100
AcDbVertex
100
AcDb2dVertex
 10
97.01423337418395
 20
-146.8480563326456
 30
0.0
  0
VERTEX
  5
2E9
330
2E6
100
AcDbEntity
  8
Ebene 1
370
     0
100
AcDbVertex
100
AcDb2dVertex
 10
91.83935544579016
 20
-143.0763657953941
 30
0.0
  0
VERTEX
  5
2EA
330
2E6
100
AcDbEntity
  8
Ebene 1
370
     0
100
AcDbVertex
100
AcDb2dVertex
 10
97.01423337418395
 20
-145.784555356349
 30
0.0
  0
SEQEND
  5
2EB
330
2E6
100
AcDbEntity
  8
Ebene 1
370
     0
  0
HATCH
  5
2EC
330
224
100
AcDbEntity
  8
Ebene 1
 62
    20
420
 15222097
100
AcDbHatch
 10
0.0
 20
0.0
 30
0.0
210
0.0
220
0.0
230
1.0
  2
SOLID
 70
     1
 71
     0
 91
        1
 92
        1
 93
        3
 72
     1
 10
97.01423337418395
 20
-145.784555356349
 11
97.01423337418395
 21
-146.8480563326456
 72
     1
 10
97.01423337418395
 20
-146.8480563326456
 11
91.83935544579016
 21
-143.0763657953941
 72
     1
 10
91.83935544579016
 20
-143.0763657953941
 11
97.01423337418395
 21
-145.784555356349
 97
        0
 75
     2
 76
     1
 98
        0
  0
POLYLINE
  5
2ED
330
224
100
AcDbEntity
  8
Ebene 1
370
     0
100
AcDb2dPolyline
 66
     1
 10
0.0
 20
0.0
 30
0.0
  0
VERTEX
  5
2EE
330
2ED
100
AcDbEntity
  8
Ebene 1
370
     0
100
AcDbVertex
100
AcDb2dVertex
 10
97.01423337418395
 20
-146.8480563326456
 30
0.0
  0
VERTEX
  5
2EF
330
2ED
100
AcDbEntity
  8
Ebene 1
370
     0
100
AcDbVertex
100
AcDb2dVertex
 10
97.01423337418395
 20
-150.4486978790545
 30
0.0
  0
VERTEX
  5
2F0
330
2ED
100
AcDbEntity
  8
Ebene 1
370
     0
100
AcDbVertex
100
AcDb2dVertex
 10
91.83935544579016
 20
-143.0763657953941
 30
0.0
  0
VERTEX
  5
2F1
330
2ED
100
AcDbEntity
  8
Ebene 1
370
     0
100
AcDbVertex
100
AcDb2dVertex
 10
97.01423337418395
 20
-146.8480563326456
 30
0.0
  0
SEQEND
  5
2F2
330
2ED
100
AcDbEntity
  8
Ebene 1
370
     0
  0
HATCH
  5
2F3
330
224
100
AcDbEntity
  8
Ebene 1
 62
    22
420
 15017513
100
AcDbHatch
 10
0.0
 20
0.0
 30
0.0
210
0.0
220
0.0
230
1.0
  2
SOLID
 70
     1
 71
     0
 91
        1
 92
        1
 93
        3
 72
     1
 10
97.01423337418395
 20
-146.8480563326456
 11
97.01423337418395
 21
-150.4486978790545
 72
     1
 10
97.01423337418395
 20
-150.4486978790545
 11
91.83935544579016
 21
-143.0763657953941
 72
     1
 10
91.83935544579016
 20
-143.0763657953941
 11
97.01423337418395
 21
-146.8480563326456
 97
        0
 75
     2
 76
     1
 98
        0
  0
POLYLINE
  5
2F4
330
224
100
AcDbEntity
  8
Ebene 1
370
     0
100
AcDb2dPolyline
 66
     1
 10
0.0
 20
0.0
 30
0.0
  0
VERTEX
  5
2F5
330
2F4
100
AcDbEntity
  8
Ebene 1
370
     0
100
AcDbVertex
100
AcDb2dVertex
 10
97.01423337418395
 20
-150.4486978790545
 30
0.0
  0
VERTEX
  5
2F6
330
2F4
100
AcDbEntity
  8
Ebene 1
370
     0
100
AcDbVertex
100
AcDb2dVertex
 10
97.01423337418395
 20
-158.4654350732309
 30
0.0
  0
VERTEX
  5
2F7
330
2F4
100
AcDbEntity
  8
Ebene 1
370
     0
100
AcDbVertex
100
AcDb2dVertex
 10
91.83935544579016
 20
-143.0763657953941
 30
0.0
  0
VERTEX
  5
2F8
330
2F4
100
AcDbEntity
  8
Ebene 1
370
     0
100
AcDbVertex
100
AcDb2dVertex
 10
97.01423337418395
 20
-150.4486978790545
 30
0.0
  0
SEQEND
  5
2F9
330
2F4
100
AcDbEntity
  8
Ebene 1
370
     0
  0
HATCH
  5
2FA
330
224
100
AcDbEntity
  8
Ebene 1
 62
   242
420
 13439774
100
AcDbHatch
 10
0.0
 20
0.0
 30
0.0
210
0.0
220
0.0
230
1.0
  2
SOLID
 70
     1
 71
     0
 91
        1
 92
        1
 93
        3
 72
     1
 10
97.01423337418395
 20
-150.4486978790545
 11
97.01423337418395
 21
-158.4654350732309
 72
     1
 10
97.01423337418395
 20
-158.4654350732309
 11
91.83935544579016
 21
-143.0763657953941
 72
     1
 10
91.83935544579016
 20
-143.0763657953941
 11
97.01423337418395
 21
-150.4486978790545
 97
        0
 75
     2
 76
     1
 98
        0
  0
POLYLINE
  5
2FB
330
224
100
AcDbEntity
  8
Ebene 1
370
     0
100
AcDb2dPolyline
 66
     1
 10
0.0
 20
0.0
 30
0.0
  0
VERTEX
  5
2FC
330
2FB
100
AcDbEntity
  8
Ebene 1
370
     0
100
AcDbVertex
100
AcDb2dVertex
 10
97.01423337418395
 20
-190.9065212196345
 30
0.0
  0
VERTEX
  5
2FD
330
2FB
100
AcDbEntity
  8
Ebene 1
370
     0
100
AcDbVertex
100
AcDb2dVertex
 10
88.73704696132269
 20
-193.6088541182645
 30
0.0
  0
VERTEX
  5
2FE
330
2FB
100
AcDbEntity
  8
Ebene 1
370
     0
100
AcDbVertex
100
AcDb2dVertex
 10
91.83935544579016
 20
-143.0763657953941
 30
0.0
  0
VERTEX
  5
2FF
330
2FB
100
AcDbEntity
  8
Ebene 1
370
     0
100
AcDbVertex
100
AcDb2dVertex
 10
97.01423337418395
 20
-158.4654350732309
 30
0.0
  0
VERTEX
  5
300
330
2FB
100
AcDbEntity
  8
Ebene 1
370
     0
100
AcDbVertex
100
AcDb2dVertex
 10
97.01423337418395
 20
-190.9065212196345
 30
0.0
  0
SEQEND
  5
301
330
2FB
100
AcDbEntity
  8
Ebene 1
370
     0
  0
HATCH
  5
302
330
224
100
AcDbEntity
  8
Ebene 1
 62
    22
420
 12459821
100
AcDbHatch
 10
0.0
 20
0.0
 30
0.0
210
0.0
220
0.0
230
1.0
  2
SOLID
 70
     1
 71
     0
 91
        1
 92
        1
 93
        4
 72
     1
 10
97.01423337418395
 20
-190.9065212196345
 11
88.73704696132269
 21
-193.6088541182645
 72
     1
 10
88.73704696132269
 20
-193.6088541182645
 11
91.83935544579016
 21
-143.0763657953941
 72
     1
 10
91.83935544579016
 20
-143.0763657953941
 11
97.01423337418395
 21
-158.4654350732309
 72
     1
 10
97.01423337418395
 20
-158.4654350732309
 11
97.01423337418395
 21
-190.9065212196345
 97
        0
 75
     2
 76
     1
 98
        0
  0
ENDBLK
  5
227
330
224
100
AcDbEntity
  8
0
100
AcDbBlockEnd
  0
BLOCK
  5
22A
330
228
100
AcDbEntity
  8
0
100
AcDbBlockBegin
  2
block 7
 70
     0
 71
     0
 10
0.0
 20
0.0
 30
0.0
  3
block 7
  1

  0
POLYLINE
  5
22C
330
228
100
AcDbEntity
  8
Ebene 1
370
     0
100
AcDb2dPolyline
 66
     1
 10
0.0
 20
0.0
 30
0.0
  0
VERTEX
  5
22D
330
22C
100
AcDbEntity
  8
Ebene 1
370
     0
100
AcDbVertex
100
AcDb2dVertex
 10
56.44961207356121
 20
-116.4881523688814
 30
0.0
  0
VERTEX
  5
22E
330
22C
100
AcDbEntity
  8
Ebene 1
370
     0
100
AcDbVertex
100
AcDb2dVertex
 10
68.97184514334732
 20
-110.1757039112582
 30
0.0
  0
VERTEX
  5
22F
330
22C
100
AcDbEntity
  8
Ebene 1
370
     0
100
AcDbVertex
100
AcDb2dVertex
 10
75.96814505479269
 20
-119.7227525199825
 30
0.0
  0
VERTEX
  5
230
330
22C
100
AcDbEntity
  8
Ebene 1
370
     0
100
AcDbVertex
100
AcDb2dVertex
 10
56.44961207356121
 20
-116.4881523688814
 30
0.0
  0
SEQEND
  5
231
330
22C
100
AcDbEntity
  8
Ebene 1
370
     0
  0
HATCH
  5
232
330
228
100
AcDbEntity
  8
Ebene 1
 62
    20
420
 15222097
100
AcDbHatch
 10
0.0
 20
0.0
 30
0.0
210
0.0
220
0.0
230
1.0
  2
SOLID
 70
     1
 71
     0
 91
        1
 92
        1
 93
        3
 72
     1
 10
56.44961207356121
 20
-116.4881523688814
 11
68.97184514334732
 21
-110.1757039112582
 72
     1
 10
68.97184514334732
 20
-110.1757039112582
 11
75.96814505479269
 21
-119.7227525199825
 72
     1
 10
75.96814505479269
 20
-119.7227525199825
 11
56.44961207356121
 21
-116.4881523688814
 97
        0
 75
     2
 76
     1
 98
        0
  0
POLYLINE
  5
233
330
228
100
AcDbEntity
  8
Ebene 1
370
     0
100
AcDb2dPolyline
 66
     1
 10
0.0
 20
0.0
 30
0.0
  0
VERTEX
  5
234
330
233
100
AcDbEntity
  8
Ebene 1
370
     0
100
AcDbVertex
100
AcDb2dVertex
 10
90.30663246440251
 20
-112.0939330774453
 30
0.0
  0
VERTEX
  5
235
330
233
100
AcDbEntity
  8
Ebene 1
370
     0
100
AcDbVertex
100
AcDb2dVertex
 10
75.96814505479269
 20
-119.7227525199825
 30
0.0
  0
VERTEX
  5
236
330
233
100
AcDbEntity
  8
Ebene 1
370
     0
100
AcDbVertex
100
AcDb2dVertex
 10
68.97184514334732
 20
-110.1757039112582
 30
0.0
  0
VERTEX
  5
237
330
233
100
AcDbEntity
  8
Ebene 1
370
     0
100
AcDbVertex
100
AcDb2dVertex
 10
90.30663246440251
 20
-112.0939330774453
 30
0.0
  0
SEQEND
  5
238
330
233
100
AcDbEntity
  8
Ebene 1
370
     0
  0
HATCH
  5
239
330
228
100
AcDbEntity
  8
Ebene 1
 62
    13
420
 15357535
100
AcDbHatch
 10
0.0
 20
0.0
 30
0.0
210
0.0
220
0.0
230
1.0
  2
SOLID
 70
     1
 71
     0
 91
        1
 92
        1
 93
        3
 72
     1
 10
90.30663246440251
 20
-112.0939330774453
 11
75.96814505479269
 21
-119.7227525199825
 72
     1
 10
75.96814505479269
 20
-119.7227525199825
 11
68.97184514334732
 21
-110.1757039112582
 72
     1
 10
68.97184514334732
 20
-110.1757039112582
 11
90.30663246440251
 21
-112.0939330774453
 97
        0
 75
     2
 76
     1
 98
        0
  0
POLYLINE
  5
23A
330
228
100
AcDbEntity
  8
Ebene 1
370
     0
100
AcDb2dPolyline
 66
     1
 10
0.0
 20
0.0
 30
0.0
  0
VERTEX
  5
23B
330
23A
100
AcDbEntity
  8
Ebene 1
370
     0
100
AcDbVertex
100
AcDb2dVertex
 10
68.36171873290958
 20
-125.5012111773921
 30
0.0
  0
VERTEX
  5
23C
330
23A
100
AcDbEntity
  8
Ebene 1
370
     0
100
AcDbVertex
100
AcDb2dVertex
 10
75.96814505479269
 20
-119.7227525199825
 30
0.0
  0
VERTEX
  5
23D
330
23A
100
AcDbEntity
  8
Ebene 1
370
     0
100
AcDbVertex
100
AcDb2dVertex
 10
81.88578556980633
 20
-125.9352932085335
 30
0.0
  0
VERTEX
  5
23E
330
23A
100
AcDbEntity
  8
Ebene 1
370
     0
100
AcDbVertex
100
AcDb2dVertex
 10
68.36171873290958
 20
-125.5012111773921
 30
0.0
  0
SEQEND
  5
23F
330
23A
100
AcDbEntity
  8
Ebene 1
370
     0
  0
HATCH
  5
240
330
228
100
AcDbEntity
  8
Ebene 1
 62
   252
420
  9081243
100
AcDbHatch
 10
0.0
 20
0.0
 30
0.0
210
0.0
220
0.0
230
1.0
  2
SOLID
 70
     1
 71
     0
 91
        1
 92
        1
 93
        3
 72
     1
 10
68.36171873290958
 20
-125.5012111773921
 11
75.96814505479269
 21
-119.7227525199825
 72
     1
 10
75.96814505479269
 20
-119.7227525199825
 11
81.88578556980633
 21
-125.9352932085335
 72
     1
 10
81.88578556980633
 20
-125.9352932085335
 11
68.36171873290958
 21
-125.5012111773921
 97
        0
 75
     2
 76
     1
 98
        0
  0
POLYLINE
  5
241
330
228
100
AcDbEntity
  8
Ebene 1
370
     0
100
AcDb2dPolyline
 66
     1
 10
0.0
 20
0.0
 30
0.0
  0
VERTEX
  5
242
330
241
100
AcDbEntity
  8
Ebene 1
370
     0
100
AcDbVertex
100
AcDb2dVertex
 10
74.69862736847813
 20
-131.0419582463194
 30
0.0
  0
VERTEX
  5
243
330
241
100
AcDbEntity
  8
Ebene 1
370
     0
100
AcDbVertex
100
AcDb2dVertex
 10
81.88578556980633
 20
-125.9352932085335
 30
0.0
  0
VERTEX
  5
244
330
241
100
AcDbEntity
  8
Ebene 1
370
     0
100
AcDbVertex
100
AcDb2dVertex
 10
68.36171873290958
 20
-125.5012111773921
 30
0.0
  0
VERTEX
  5
245
330
241
100
AcDbEntity
  8
Ebene 1
370
     0
100
AcDbVertex
100
AcDb2dVertex
 10
74.69862736847813
 20
-131.0419582463194
 30
0.0
  0
SEQEND
  5
246
330
241
100
AcDbEntity
  8
Ebene 1
370
     0
  0
HATCH
  5
247
330
228
100
AcDbEntity
  8
Ebene 1
 62
     8
420
  7897742
100
AcDbHatch
 10
0.0
 20
0.0
 30
0.0
210
0.0
220
0.0
230
1.0
  2
SOLID
 70
     1
 71
     0
 91
        1
 92
        1
 93
        3
 72
     1
 10
74.69862736847813
 20
-131.0419582463194
 11
81.88578556980633
 21
-125.9352932085335
 72
     1
 10
81.88578556980633
 20
-125.9352932085335
 11
68.36171873290958
 21
-125.5012111773921
 72
     1
 10
68.36171873290958
 20
-125.5012111773921
 11
74.69862736847813
 21
-131.0419582463194
 97
        0
 75
     2
 76
     1
 98
        0
  0
POLYLINE
  5
248
330
228
100
AcDbEntity
  8
Ebene 1
370
     0
100
AcDb2dPolyline
 66
     1
 10
0.0
 20
0.0
 30
0.0
  0
VERTEX
  5
249
330
248
100
AcDbEntity
  8
Ebene 1
370
     0
100
AcDbVertex
100
AcDb2dVertex
 10
56.44961207356121
 20
-116.4881523688814
 30
0.0
  0
VERTEX
  5
24A
330
248
100
AcDbEntity
  8
Ebene 1
370
     0
100
AcDbVertex
100
AcDb2dVertex
 10
68.36171873290958
 20
-125.5012111773921
 30
0.0
  0
VERTEX
  5
24B
330
248
100
AcDbEntity
  8
Ebene 1
370
     0
100
AcDbVertex
100
AcDb2dVertex
 10
75.96814505479269
 20
-119.7227525199825
 30
0.0
  0
VERTEX
  5
24C
330
248
100
AcDbEntity
  8
Ebene 1
370
     0
100
AcDbVertex
100
AcDb2dVertex
 10
56.44961207356121
 20
-116.4881523688814
 30
0.0
  0
SEQEND
  5
24D
330
248
100
AcDbEntity
  8
Ebene 1
370
     0
  0
HATCH
  5
24E
330
228
100
AcDbEntity
  8
Ebene 1
 62
    24
420
  9838126
100
AcDbHatch
 10
0.0
 20
0.0
 30
0.0
210
0.0
220
0.0
230
1.0
  2
SOLID
 70
     1
 71
     0
 91
        1
 92
        1
 93
        3
 72
     1
 10
56.44961207356121
 20
-116.4881523688814
 11
68.36171873290958
 21
-125.5012111773921
 72
     1
 10
68.36171873290958
 20
-125.5012111773921
 11
75.96814505479269
 21
-119.7227525199825
 72
     1
 10
75.96814505479269
 20
-119.7227525199825
 11
56.44961207356121
 21
-116.4881523688814
 97
        0
 75
     2
 76
     1
 98
        0
  0
POLYLINE
  5
24F
330
228
100
AcDbEntity
  8
Ebene 1
370
     0
100
AcDb2dPolyline
 66
     1
 10
0.0
 20
0.0
 30
0.0
  0
VERTEX
  5
250
330
24F
100
AcDbEntity
  8
Ebene 1
370
     0
100
AcDbVertex
100
AcDb2dVertex
 10
52.3320339495906
 20
-131.5501098303937
 30
0.0
  0
VERTEX
  5
251
330
24F
100
AcDbEntity
  8
Ebene 1
370
     0
100
AcDbVertex
100
AcDb2dVertex
 10
59.89849716384482
 20
-137.4973781665805
 30
0.0
  0
VERTEX
  5
252
330
24F
100
AcDbEntity
  8
Ebene 1
370
     0
100
AcDbVertex
100
AcDb2dVertex
 10
72.6959933629024
 20
-139.0104641037022
 30
0.0
  0
VERTEX
  5
253
330
24F
100
AcDbEntity
  8
Ebene 1
370
     0
100
AcDbVertex
100
AcDb2dVertex
 10
52.3320339495906
 20
-131.5501098303937
 30
0.0
  0
SEQEND
  5
254
330
24F
100
AcDbEntity
  8
Ebene 1
370
     0
  0
HATCH
  5
255
330
228
100
AcDbEntity
  8
Ebene 1
 62
   250
420
  3947579
100
AcDbHatch
 10
0.0
 20
0.0
 30
0.0
210
0.0
220
0.0
230
1.0
  2
SOLID
 70
     1
 71
     0
 91
        1
 92
        1
 93
        3
 72
     1
 10
52.3320339495906
 20
-131.5501098303937
 11
59.89849716384482
 21
-137.4973781665805
 72
     1
 10
59.89849716384482
 20
-137.4973781665805
 11
72.6959933629024
 21
-139.0104641037022
 72
     1
 10
72.6959933629024
 20
-139.0104641037022
 11
52.3320339495906
 21
-131.5501098303937
 97
        0
 75
     2
 76
     1
 98
        0
  0
POLYLINE
  5
256
330
228
100
AcDbEntity
  8
Ebene 1
370
     0
100
AcDb2dPolyline
 66
     1
 10
0.0
 20
0.0
 30
0.0
  0
VERTEX
  5
257
330
256
100
AcDbEntity
  8
Ebene 1
370
     0
100
AcDbVertex
100
AcDb2dVertex
 10
44.86272242802043
 20
-142.6243692677293
 30
0.0
  0
VERTEX
  5
258
330
256
100
AcDbEntity
  8
Ebene 1
370
     0
100
AcDbVertex
100
AcDb2dVertex
 10
59.89849716384482
 20
-137.4973781665805
 30
0.0
  0
VERTEX
  5
259
330
256
100
AcDbEntity
  8
Ebene 1
370
     0
100
AcDbVertex
100
AcDb2dVertex
 10
72.6959933629024
 20
-139.0104641037022
 30
0.0
  0
VERTEX
  5
25A
330
256
100
AcDbEntity
  8
Ebene 1
370
     0
100
AcDbVertex
100
AcDb2dVertex
 10
44.86272242802043
 20
-142.6243692677293
 30
0.0
  0
SEQEND
  5
25B
330
256
100
AcDbEntity
  8
Ebene 1
370
     0
  0
HATCH
  5
25C
330
228
100
AcDbEntity
  8
Ebene 1
 62
   250
420
  3947579
100
AcDbHatch
 10
0.0
 20
0.0
 30
0.0
210
0.0
220
0.0
230
1.0
  2
SOLID
 70
     1
 71
     0
 91
        1
 92
        1
 93
        3
 72
     1
 10
44.86272242802043
 20
-142.6243692677293
 11
59.89849716384482
 21
-137.4973781665805
 72
     1
 10
59.89849716384482
 20
-137.4973781665805
 11
72.6959933629024
 21
-139.0104641037022
 72
     1
 10
72.6959933629024
 20
-139.0104641037022
 11
44.86272242802043
 21
-142.6243692677293
 97
        0
 75
     2
 76
     1
 98
        0
  0
POLYLINE
  5
25D
330
228
100
AcDbEntity
  8
Ebene 1
370
     0
100
AcDb2dPolyline
 66
     1
 10
0.0
 20
0.0
 30
0.0
  0
VERTEX
  5
25E
330
25D
100
AcDbEntity
  8
Ebene 1
370
     0
100
AcDbVertex
100
AcDb2dVertex
 10
37.1181477771788
 20
-150.1751572975257
 30
0.0
  0
VERTEX
  5
25F
330
25D
100
AcDbEntity
  8
Ebene 1
370
     0
100
AcDbVertex
100
AcDb2dVertex
 10
44.86272242802043
 20
-142.6243692677293
 30
0.0
  0
VERTEX
  5
260
330
25D
100
AcDbEntity
  8
Ebene 1
370
     0
100
AcDbVertex
100
AcDb2dVertex
 10
72.6959933629024
 20
-139.0104641037022
 30
0.0
  0
VERTEX
  5
261
330
25D
100
AcDbEntity
  8
Ebene 1
370
     0
100
AcDbVertex
100
AcDb2dVertex
 10
37.1181477771788
 20
-150.1751572975257
 30
0.0
  0
SEQEND
  5
262
330
25D
100
AcDbEntity
  8
Ebene 1
370
     0
  0
HATCH
  5
263
330
228
100
AcDbEntity
  8
Ebene 1
 62
   254
420
 13687265
100
AcDbHatch
 10
0.0
 20
0.0
 30
0.0
210
0.0
220
0.0
230
1.0
  2
SOLID
 70
     1
 71
     0
 91
        1
 92
        1
 93
        3
 72
     1
 10
37.1181477771788
 20
-150.1751572975257
 11
44.86272242802043
 21
-142.6243692677293
 72
     1
 10
44.86272242802043
 20
-142.6243692677293
 11
72.6959933629024
 21
-139.0104641037022
 72
     1
 10
72.6959933629024
 20
-139.0104641037022
 11
37.1181477771788
 21
-150.1751572975257
 97
        0
 75
     2
 76
     1
 98
        0
  0
POLYLINE
  5
264
330
228
100
AcDbEntity
  8
Ebene 1
370
     0
100
AcDb2dPolyline
 66
     1
 10
0.0
 20
0.0
 30
0.0
  0
VERTEX
  5
265
330
264
100
AcDbEntity
  8
Ebene 1
370
     0
100
AcDbVertex
100
AcDb2dVertex
 10
91.83935544579016
 20
-143.0763657953941
 30
0.0
  0
VERTEX
  5
266
330
264
100
AcDbEntity
  8
Ebene 1
370
     0
100
AcDbVertex
100
AcDb2dVertex
 10
72.6959933629024
 20
-139.0104641037022
 30
0.0
  0
VERTEX
  5
267
330
264
100
AcDbEntity
  8
Ebene 1
370
     0
100
AcDbVertex
100
AcDb2dVertex
 10
52.75095756059699
 20
-145.2695135813042
 30
0.0
  0
VERTEX
  5
268
330
264
100
AcDbEntity
  8
Ebene 1
370
     0
100
AcDbVertex
100
AcDb2dVertex
 10
91.83935544579016
 20
-143.0763657953941
 30
0.0
  0
SEQEND
  5
269
330
264
100
AcDbEntity
  8
Ebene 1
370
     0
  0
HATCH
  5
26A
330
228
100
AcDbEntity
  8
Ebene 1
 62
   250
420
  3947579
100
AcDbHatch
 10
0.0
 20
0.0
 30
0.0
210
0.0
220
0.0
230
1.0
  2
SOLID
 70
     1
 71
     0
 91
        1
 92
        1
 93
        3
 72
     1
 10
91.83935544579016
 20
-143.0763657953941
 11
72.6959933629024
 21
-139.0104641037022
 72
     1
 10
72.6959933629024
 20
-139.0104641037022
 11
52.75095756059699
 21
-145.2695135813042
 72
     1
 10
52.75095756059699
 20
-145.2695135813042
 11
91.83935544579016
 21
-143.0763657953941
 97
        0
 75
     2
 76
     1
 98
        0
  0
POLYLINE
  5
26B
330
228
100
AcDbEntity
  8
Ebene 1
370
     0
100
AcDb2dPolyline
 66
     1
 10
0.0
 20
0.0
 30
0.0
  0
VERTEX
  5
26C
330
26B
100
AcDbEntity
  8
Ebene 1
370
     0
100
AcDbVertex
100
AcDb2dVertex
 10
63.47416176798563
 20
-144.6679999095795
 30
0.0
  0
VERTEX
  5
26D
330
26B
100
AcDbEntity
  8
Ebene 1
370
     0
100
AcDbVertex
100
AcDb2dVertex
 10
72.58850638376259
 20
-157.088774917325
 30
0.0
  0
VERTEX
  5
26E
330
26B
100
AcDbEntity
  8
Ebene 1
370
     0
100
AcDbVertex
100
AcDb2dVertex
 10
78.51510414703789
 20
-143.8239515156933
 30
0.0
  0
VERTEX
  5
26F
330
26B
100
AcDbEntity
  8
Ebene 1
370
     0
100
AcDbVertex
100
AcDb2dVertex
 10
63.47416176798563
 20
-144.6679999095795
 30
0.0
  0
SEQEND
  5
270
330
26B
100
AcDbEntity
  8
Ebene 1
370
     0
  0
HATCH
  5
271
330
228
100
AcDbEntity
  8
Ebene 1
 62
    24
420
  9838126
100
AcDbHatch
 10
0.0
 20
0.0
 30
0.0
210
0.0
220
0.0
230
1.0
  2
SOLID
 70
     1
 71
     0
 91
        1
 92
        1
 93
        3
 72
     1
 10
63.47416176798563
 20
-144.6679999095795
 11
72.58850638376259
 21
-157.088774917325
 72
     1
 10
72.58850638376259
 20
-157.088774917325
 11
78.51510414703789
 21
-143.8239515156933
 72
     1
 10
78.51510414703789
 20
-143.8239515156933
 11
63.47416176798563
 21
-144.6679999095795
 97
        0
 75
     2
 76
     1
 98
        0
  0
POLYLINE
  5
272
330
228
100
AcDbEntity
  8
Ebene 1
370
     0
100
AcDb2dPolyline
 66
     1
 10
0.0
 20
0.0
 30
0.0
  0
VERTEX
  5
273
330
272
100
AcDbEntity
  8
Ebene 1
370
     0
100
AcDbVertex
100
AcDb2dVertex
 10
37.1181477771788
 20
-150.1751572975257
 30
0.0
  0
VERTEX
  5
274
330
272
100
AcDbEntity
  8
Ebene 1
370
     0
100
AcDbVertex
100
AcDb2dVertex
 10
52.75095756059699
 20
-145.2695135813042
 30
0.0
  0
VERTEX
  5
275
330
272
100
AcDbEntity
  8
Ebene 1
370
     0
100
AcDbVertex
100
AcDb2dVertex
 10
63.47416176798563
 20
-144.6679999095795
 30
0.0
  0
VERTEX
  5
276
330
272
100
AcDbEntity
  8
Ebene 1
370
     0
100
AcDbVertex
100
AcDb2dVertex
 10
37.1181477771788
 20
-150.1751572975257
 30
0.0
  0
SEQEND
  5
277
330
272
100
AcDbEntity
  8
Ebene 1
370
     0
  0
HATCH
  5
278
330
228
100
AcDbEntity
  8
Ebene 1
 62
   179
420
  2303010
100
AcDbHatch
 10
0.0
 20
0.0
 30
0.0
210
0.0
220
0.0
230
1.0
  2
SOLID
 70
     1
 71
     0
 91
        1
 92
        1
 93
        3
 72
     1
 10
37.1181477771788
 20
-150.1751572975257
 11
52.75095756059699
 21
-145.2695135813042
 72
     1
 10
52.75095756059699
 20
-145.2695135813042
 11
63.47416176798563
 21
-144.6679999095795
 72
     1
 10
63.47416176798563
 20
-144.6679999095795
 11
37.1181477771788
 21
-150.1751572975257
 97
        0
 75
     2
 76
     1
 98
        0
  0
POLYLINE
  5
279
330
228
100
AcDbEntity
  8
Ebene 1
370
     0
100
AcDb2dPolyline
 66
     1
 10
0.0
 20
0.0
 30
0.0
  0
VERTEX
  5
27A
330
279
100
AcDbEntity
  8
Ebene 1
370
     0
100
AcDbVertex
100
AcDb2dVertex
 10
91.83935544579016
 20
-143.0763657953941
 30
0.0
  0
VERTEX
  5
27B
330
279
100
AcDbEntity
  8
Ebene 1
370
     0
100
AcDbVertex
100
AcDb2dVertex
 10
66.41489527419489
 20
-170.822992578822
 30
0.0
  0
VERTEX
  5
27C
330
279
100
AcDbEntity
  8
Ebene 1
370
     0
100
AcDbVertex
100
AcDb2dVertex
 10
78.51510414703789
 20
-143.8239515156933
 30
0.0
  0
VERTEX
  5
27D
330
279
100
AcDbEntity
  8
Ebene 1
370
     0
100
AcDbVertex
100
AcDb2dVertex
 10
91.83935544579016
 20
-143.0763657953941
 30
0.0
  0
SEQEND
  5
27E
330
279
100
AcDbEntity
  8
Ebene 1
370
     0
  0
HATCH
  5
27F
330
228
100
AcDbEntity
  8
Ebene 1
 62
    22
420
 12459821
100
AcDbHatch
 10
0.0
 20
0.0
 30
0.0
210
0.0
220
0.0
230
1.0
  2
SOLID
 70
     1
 71
     0
 91
        1
 92
        1
 93
        3
 72
     1
 10
91.83935544579016
 20
-143.0763657953941
 11
66.41489527419489
 21
-170.822992578822
 72
     1
 10
66.41489527419489
 20
-170.822992578822
 11
78.51510414703789
 21
-143.8239515156933
 72
     1
 10
78.51510414703789
 20
-143.8239515156933
 11
91.83935544579016
 21
-143.0763657953941
 97
        0
 75
     2
 76
     1
 98
        0
  0
POLYLINE
  5
280
330
228
100
AcDbEntity
  8
Ebene 1
370
     0
100
AcDb2dPolyline
 66
     1
 10
0.0
 20
0.0
 30
0.0
  0
VERTEX
  5
281
330
280
100
AcDbEntity
  8
Ebene 1
370
     0
100
AcDbVertex
100
AcDb2dVertex
 10
66.41489527419489
 20
-170.822992578822
 30
0.0
  0
VERTEX
  5
282
330
280
100
AcDbEntity
  8
Ebene 1
370
     0
100
AcDbVertex
100
AcDb2dVertex
 10
70.4194742662493
 20
-176.3578829854244
 30
0.0
  0
VERTEX
  5
283
330
280
100
AcDbEntity
  8
Ebene 1
370
     0
100
AcDbVertex
100
AcDb2dVertex
 10
91.83935544579016
 20
-143.0763657953941
 30
0.0
  0
VERTEX
  5
284
330
280
100
AcDbEntity
  8
Ebene 1
370
     0
100
AcDbVertex
100
AcDb2dVertex
 10
66.41489527419489
 20
-170.822992578822
 30
0.0
  0
SEQEND
  5
285
330
280
100
AcDbEntity
  8
Ebene 1
370
     0
  0
HATCH
  5
286
330
228
100
AcDbEntity
  8
Ebene 1
 62
   242
420
 13439774
100
AcDbHatch
 10
0.0
 20
0.0
 30
0.0
210
0.0
220
0.0
230
1.0
  2
SOLID
 70
     1
 71
     0
 91
        1
 92
        1
 93
        3
 72
     1
 10
66.41489527419489
 20
-170.822992578822
 11
70.4194742662493
 21
-176.3578829854244
 72
     1
 10
70.4194742662493
 20
-176.3578829854244
 11
91.83935544579016
 21
-143.0763657953941
 72
     1
 10
91.83935544579016
 20
-143.0763657953941
 11
66.41489527419489
 21
-170.822992578822
 97
        0
 75
     2
 76
     1
 98
        0
  0
POLYLINE
  5
287
330
228
100
AcDbEntity
  8
Ebene 1
370
     0
100
AcDb2dPolyline
 66
     1
 10
0.0
 20
0.0
 30
0.0
  0
VERTEX
  5
288
330
287
100
AcDbEntity
  8
Ebene 1
370
     0
100
AcDbVertex
100
AcDb2dVertex
 10
74.3162217696154
 20
-182.6444932269083
 30
0.0
  0
VERTEX
  5
289
330
287
100
AcDbEntity
  8
Ebene 1
370
     0
100
AcDbVertex
100
AcDb2dVertex
 10
91.83935544579016
 20
-143.0763657953941
 30
0.0
  0
VERTEX
  5
28A
330
287
100
AcDbEntity
  8
Ebene 1
370
     0
100
AcDbVertex
100
AcDb2dVertex
 10
69.87721623687098
 20
-177.2005533411165
 30
0.0
  0
VERTEX
  5
28B
330
287
100
AcDbEntity
  8
Ebene 1
370
     0
100
AcDbVertex
100
AcDb2dVertex
 10
74.3162217696154
 20
-182.6444932269083
 30
0.0
  0
SEQEND
  5
28C
330
287
100
AcDbEntity
  8
Ebene 1
370
     0
  0
HATCH
  5
28D
330
228
100
AcDbEntity
  8
Ebene 1
 62
    22
420
 14038096
100
AcDbHatch
 10
0.0
 20
0.0
 30
0.0
210
0.0
220
0.0
230
1.0
  2
SOLID
 70
     1
 71
     0
 91
        1
 92
        1
 93
        3
 72
     1
 10
74.3162217696154
 20
-182.6444932269083
 11
91.83935544579016
 21
-143.0763657953941
 72
     1
 10
91.83935544579016
 20
-143.0763657953941
 11
69.87721623687098
 21
-177.2005533411165
 72
     1
 10
69.87721623687098
 20
-177.2005533411165
 11
74.3162217696154
 21
-182.6444932269083
 97
        0
 75
     2
 76
     1
 98
        0
  0
POLYLINE
  5
28E
330
228
100
AcDbEntity
  8
Ebene 1
370
     0
100
AcDb2dPolyline
 66
     1
 10
0.0
 20
0.0
 30
0.0
  0
VERTEX
  5
28F
330
28E
100
AcDbEntity
  8
Ebene 1
370
     0
100
AcDbVertex
100
AcDb2dVertex
 10
73.22619355808234
 20
-185.1070474797649
 30
0.0
  0
VERTEX
  5
290
330
28E
100
AcDbEntity
  8
Ebene 1
370
     0
100
AcDbVertex
100
AcDb2dVertex
 10
91.83935544579016
 20
-143.0763657953941
 30
0.0
  0
VERTEX
  5
291
330
28E
100
AcDbEntity
  8
Ebene 1
370
     0
100
AcDbVertex
100
AcDb2dVertex
 10
79.72571070055469
 20
-189.3266004300989
 30
0.0
  0
VERTEX
  5
292
330
28E
100
AcDbEntity
  8
Ebene 1
370
     0
100
AcDbVertex
100
AcDb2dVertex
 10
73.22619355808234
 20
-185.1070474797649
 30
0.0
  0
SEQEND
  5
293
330
28E
100
AcDbEntity
  8
Ebene 1
370
     0
  0
HATCH
  5
294
330
228
100
AcDbEntity
  8
Ebene 1
 62
    20
420
 15222097
100
AcDbHatch
 10
0.0
 20
0.0
 30
0.0
210
0.0
220
0.0
230
1.0
  2
SOLID
 70
     1
 71
     0
 91
        1
 92
        1
 93
        3
 72
     1
 10
73.22619355808234
 20
-185.1070474797649
 11
91.83935544579016
 21
-143.0763657953941
 72
     1
 10
91.83935544579016
 20
-143.0763657953941
 11
79.72571070055469
 21
-189.3266004300989
 72
     1
 10
79.72571070055469
 20
-189.3266004300989
 11
73.22619355808234
 21
-185.1070474797649
 97
        0
 75
     2
 76
     1
 98
        0
  0
POLYLINE
  5
295
330
228
100
AcDbEntity
  8
Ebene 1
370
     0
100
AcDb2dPolyline
 66
     1
 10
0.0
 20
0.0
 30
0.0
  0
VERTEX
  5
296
330
295
100
AcDbEntity
  8
Ebene 1
370
     0
100
AcDbVertex
100
AcDb2dVertex
 10
76.05427244192394
 20
-123.5264824452469
 30
0.0
  0
VERTEX
  5
297
330
295
100
AcDbEntity
  8
Ebene 1
370
     0
100
AcDbVertex
100
AcDb2dVertex
 10
77.70378416026156
 20
-125.8016235037059
 30
0.0
  0
VERTEX
  5
298
330
295
100
AcDbEntity
  8
Ebene 1
370
     0
100
AcDbVertex
100
AcDb2dVertex
 10
72.3266791268836
 20
-125.6283352007978
 30
0.0
  0
VERTEX
  5
299
330
295
100
AcDbEntity
  8
Ebene 1
370
     0
100
AcDbVertex
100
AcDb2dVertex
 10
76.05427244192394
 20
-123.5264824452469
 30
0.0
  0
SEQEND
  5
29A
330
295
100
AcDbEntity
  8
Ebene 1
370
     0
  0
HATCH
  5
29B
330
228
100
AcDbEntity
  8
Ebene 1
 62
   179
420
  2303010
100
AcDbHatch
 10
0.0
 20
0.0
 30
0.0
210
0.0
220
0.0
230
1.0
  2
SOLID
 70
     1
 71
     0
 91
        1
 92
        1
 93
        3
 72
     1
 10
76.05427244192394
 20
-123.5264824452469
 11
77.70378416026156
 21
-125.8016235037059
 72
     1
 10
77.70378416026156
 20
-125.8016235037059
 11
72.3266791268836
 21
-125.6283352007978
 72
     1
 10
72.3266791268836
 20
-125.6283352007978
 11
76.05427244192394
 21
-123.5264824452469
 97
        0
 75
     2
 76
     1
 98
        0
  0
POLYLINE
  5
29C
330
228
100
AcDbEntity
  8
Ebene 1
370
     0
100
AcDb2dPolyline
 66
     1
 10
0.0
 20
0.0
 30
0.0
  0
VERTEX
  5
29D
330
29C
100
AcDbEntity
  8
Ebene 1
370
     0
100
AcDbVertex
100
AcDb2dVertex
 10
75.81449379615054
 20
-127.0797539287335
 30
0.0
  0
VERTEX
  5
29E
330
29C
100
AcDbEntity
  8
Ebene 1
370
     0
100
AcDbVertex
100
AcDb2dVertex
 10
77.70378416026156
 20
-125.8016235037059
 30
0.0
  0
VERTEX
  5
29F
330
29C
100
AcDbEntity
  8
Ebene 1
370
     0
100
AcDbVertex
100
AcDb2dVertex
 10
72.3266791268836
 20
-125.6283352007978
 30
0.0
  0
VERTEX
  5
2A0
330
29C
100
AcDbEntity
  8
Ebene 1
370
     0
100
AcDbVertex
100
AcDb2dVertex
 10
75.81449379615054
 20
-127.0797539287335
 30
0.0
  0
SEQEND
  5
2A1
330
29C
100
AcDbEntity
  8
Ebene 1
370
     0
  0
HATCH
  5
2A2
330
228
100
AcDbEntity
  8
Ebene 1
 62
   250
420
  3947579
100
AcDbHatch
 10
0.0
 20
0.0
 30
0.0
210
0.0
220
0.0
230
1.0
  2
SOLID
 70
     1
 71
     0
 91
        1
 92
        1
 93
        3
 72
     1
 10
75.81449379615054
 20
-127.0797539287335
 11
77.70378416026156
 21
-125.8016235037059
 72
     1
 10
77.70378416026156
 20
-125.8016235037059
 11
72.3266791268836
 21
-125.6283352007978
 72
     1
 10
72.3266791268836
 20
-125.6283352007978
 11
75.81449379615054
 21
-127.0797539287335
 97
        0
 75
     2
 76
     1
 98
        0
  0
POLYLINE
  5
2A3
330
228
100
AcDbEntity
  8
Ebene 1
370
     0
100
AcDb2dPolyline
 66
     1
 10
0.0
 20
0.0
 30
0.0
  0
VERTEX
  5
2A4
330
2A3
100
AcDbEntity
  8
Ebene 1
370
     0
100
AcDbVertex
100
AcDb2dVertex
 10
91.83935544579016
 20
-143.0763657953941
 30
0.0
  0
VERTEX
  5
2A5
330
2A3
100
AcDbEntity
  8
Ebene 1
370
     0
100
AcDbVertex
100
AcDb2dVertex
 10
88.94788680501998
 20
-191.0167642751625
 30
0.0
  0
VERTEX
  5
2A6
330
2A3
100
AcDbEntity
  8
Ebene 1
370
     0
100
AcDbVertex
100
AcDb2dVertex
 10
78.92162541429738
 20
-192.4809298563937
 30
0.0
  0
VERTEX
  5
2A7
330
2A3
100
AcDbEntity
  8
Ebene 1
370
     0
100
AcDbVertex
100
AcDb2dVertex
 10
91.83935544579016
 20
-143.0763657953941
 30
0.0
  0
SEQEND
  5
2A8
330
2A3
100
AcDbEntity
  8
Ebene 1
370
     0
  0
HATCH
  5
2A9
330
228
100
AcDbEntity
  8
Ebene 1
 62
    22
420
 15017513
100
AcDbHatch
 10
0.0
 20
0.0
 30
0.0
210
0.0
220
0.0
230
1.0
  2
SOLID
 70
     1
 71
     0
 91
        1
 92
        1
 93
        3
 72
     1
 10
91.83935544579016
 20
-143.0763657953941
 11
88.94788680501998
 21
-191.0167642751625
 72
     1
 10
88.94788680501998
 20
-191.0167642751625
 11
78.92162541429738
 21
-192.4809298563937
 72
     1
 10
78.92162541429738
 20
-192.4809298563937
 11
91.83935544579016
 21
-143.0763657953941
 97
        0
 75
     2
 76
     1
 98
        0
  0
ENDBLK
  5
22B
330
228
100
AcDbEntity
  8
0
100
AcDbBlockEnd
  0
ENDSEC
  0
SECTION
  2
ENTITIES
  0
POLYLINE
  5
3C
330
1F
100
AcDbEntity
  8
Ebene 1
370
     0
100
AcDb2dPolyline
 66
     1
 10
0.0
 20
0.0
 30
0.0
  0
VERTEX
  5
3D
330
3C
100
AcDbEntity
  8
Ebene 1
370
     0
100
AcDbVertex
100
AcDb2dVertex
 10
186.7551811599084
 20
-221.3001871191541
 30
0.0
  0
VERTEX
  5
3E
330
3C
100
AcDbEntity
  8
Ebene 1
370
     0
100
AcDbVertex
100
AcDb2dVertex
 10
20.94962564580426
 20
-221.3001871191541
 30
0.0
  0
VERTEX
  5
3F
330
3C
100
AcDbEntity
  8
Ebene 1
370
     0
100
AcDbVertex
100
AcDb2dVertex
 10
20.94962564580426
 20
-70.69129230003551
 30
0.0
  0
VERTEX
  5
40
330
3C
100
AcDbEntity
  8
Ebene 1
370
     0
100
AcDbVertex
100
AcDb2dVertex
 10
186.7551811599084
 20
-70.69129230003551
 30
0.0
  0
VERTEX
  5
41
330
3C
100
AcDbEntity
  8
Ebene 1
370
     0
100
AcDbVertex
100
AcDb2dVertex
 10
186.7551811599084
 20
-221.3001871191541
 30
0.0
  0
SEQEND
  5
42
330
3C
100
AcDbEntity
  8
Ebene 1
370
     0
  0
HATCH
  5
43
330
1F
100
AcDbEntity
  8
Ebene 1
 62
   179
420
  1581628
100
AcDbHatch
 10
0.0
 20
0.0
 30
0.0
210
0.0
220
0.0
230
1.0
  2
SOLID
 70
     1
 71
     0
 91
        1
 92
        1
 93
        4
 72
     1
 10
186.7551811599084
 20
-221.3001871191541
 11
20.94962564580425
 21
-221.3001871191541
 72
     1
 10
20.94962564580426
 20
-221.3001871191541
 11
20.94962564580426
 21
-70.69129230003551
 72
     1
 10
20.94962564580426
 20
-70.69129230003551
 11
186.7551811599084
 21
-70.69129230003551
 72
     1
 10
186.7551811599084
 20
-70.69129230003551
 11
186.7551811599084
 21
-221.3001871191541
 97
        0
 75
     0
 76
     1
 98
        0
  0
POLYLINE
  5
44
330
1F
100
AcDbEntity
  8
Ebene 1
370
     0
100
AcDb2dPolyline
 66
     1
 10
0.0
 20
0.0
 30
0.0
  0
VERTEX
  5
45
330
44
100
AcDbEntity
  8
Ebene 1
370
     0
100
AcDbVertex
100
AcDb2dVertex
 10
53.37520886252425
 20
-110.8950398485783
 30
0.0
  0
VERTEX
  5
46
330
44
100
AcDbEntity
  8
Ebene 1
370
     0
100
AcDbVertex
100
AcDb2dVertex
 10
53.37520886252425
 20
-184.4793510823524
 30
0.0
  0
VERTEX
  5
47
330
44
100
AcDbEntity
  8
Ebene 1
370
     0
100
AcDbVertex
100
AcDb2dVertex
 10
98.96656898567502
 20
-206.9565320663164
 30
0.0
  0
VERTEX
  5
48
330
44
100
AcDbEntity
  8
Ebene 1
370
     0
100
AcDbVertex
100
AcDb2dVertex
 10
144.3002359665291
 20
-184.4793510823524
 30
0.0
  0
VERTEX
  5
49
330
44
100
AcDbEntity
  8
Ebene 1
370
     0
100
AcDbVertex
100
AcDb2dVertex
 10
144.3002359665291
 20
-110.8950398485783
 30
0.0
  0
VERTEX
  5
4A
330
44
100
AcDbEntity
  8
Ebene 1
370
     0
100
AcDbVertex
100
AcDb2dVertex
 10
155.7851507857065
 20
-110.8950398485783
 30
0.0
  0
VERTEX
  5
4B
330
44
100
AcDbEntity
  8
Ebene 1
370
     0
100
AcDbVertex
100
AcDb2dVertex
 10
155.7851507857065
 20
-86.92561575517833
 30
0.0
  0
VERTEX
  5
4C
330
44
100
AcDbEntity
  8
Ebene 1
370
     0
100
AcDbVertex
100
AcDb2dVertex
 10
42.14798718564356
 20
-86.92561575517833
 30
0.0
  0
VERTEX
  5
4D
330
44
100
AcDbEntity
  8
Ebene 1
370
     0
100
AcDbVertex
100
AcDb2dVertex
 10
42.14798718564356
 20
-110.8950398485783
 30
0.0
  0
VERTEX
  5
4E
330
44
100
AcDbEntity
  8
Ebene 1
370
     0
100
AcDbVertex
100
AcDb2dVertex
 10
53.37520886252425
 20
-110.8950398485783
 30
0.0
  0
SEQEND
  5
4F
330
44
100
AcDbEntity
  8
Ebene 1
370
     0
  0
HATCH
  5
50
330
1F
100
AcDbEntity
  8
Ebene 1
 62
   179
420
  1581628
100
AcDbHatch
 10
0.0
 20
0.0
 30
0.0
210
0.0
220
0.0
230
1.0
  2
SOLID
 70
     1
 71
     0
 91
        1
 92
        1
 93
        9
 72
     1
 10
53.37520886252425
 20
-110.8950398485783
 11
53.37520886252425
 21
-184.4793510823524
 72
     1
 10
53.37520886252425
 20
-184.4793510823524
 11
98.96656898567502
 21
-206.9565320663164
 72
     1
 10
98.96656898567502
 20
-206.9565320663164
 11
144.3002359665291
 21
-184.4793510823524
 72
     1
 10
144.3002359665291
 20
-184.4793510823524
 11
144.3002359665291
 21
-110.8950398485783
 72
     1
 10
144.3002359665291
 20
-110.8950398485783
 11
155.7851507857065
 21
-110.8950398485783
 72
     1
 10
155.7851507857065
 20
-110.8950398485783
 11
155.7851507857065
 21
-86.92561575517833
 72
     1
 10
155.7851507857065
 20
-86.92561575517833
 11
42.14798718564356
 21
-86.92561575517833
 72
     1
 10
42.14798718564356
 20
-86.92561575517833
 11
42.14798718564356
 21
-110.8950398485783
 72
     1
 10
42.14798718564356
 20
-110.8950398485783
 11
53.37520886252425
 21
-110.8950398485783
 97
        0
 75
     0
 76
     1
 98
        0
  0
INSERT
  5
52
330
1F
100
AcDbEntity
  8
Ebene 1
100
AcDbBlockReference
  2
block 2
 10
0.0
 20
0.0
 30
0.0
  0
INSERT
  5
117
330
1F
100
AcDbEntity
  8
Ebene 1
100
AcDbBlockReference
  2
block 3
 10
0.0
 20
0.0
 30
0.0
  0
INSERT
  5
146
330
1F
100
AcDbEntity
  8
Ebene 1
100
AcDbBlockReference
  2
block 4
 10
0.0
 20
0.0
 30
0.0
  0
INSERT
  5
225
330
1F
100
AcDbEntity
  8
Ebene 1
100
AcDbBlockReference
  2
block 6
 10
0.0
 20
0.0
 30
0.0
  0
POLYLINE
  5
303
330
1F
100
AcDbEntity
  8
Ebene 1
370
     0
100
AcDb2dPolyline
 66
     1
 10
0.0
 20
0.0
 30
0.0
  0
VERTEX
  5
304
330
303
100
AcDbEntity
  8
Ebene 1
370
     0
100
AcDbVertex
100
AcDb2dVertex
 10
48.15347763553108
 20
-116.6910684929627
 30
0.0
  0
VERTEX
  5
305
330
303
100
AcDbEntity
  8
Ebene 1
370
     0
100
AcDbVertex
100
AcDb2dVertex
 10
52.95077309874148
 20
-131.5501098303937
 30
0.0
  0
VERTEX
  5
306
330
303
100
AcDbEntity
  8
Ebene 1
370
     0
100
AcDbVertex
100
AcDb2dVertex
 10
57.06835122271208
 20
-116.4881523688814
 30
0.0
  0
VERTEX
  5
307
330
303
100
AcDbEntity
  8
Ebene 1
370
     0
100
AcDbVertex
100
AcDb2dVertex
 10
48.15347763553108
 20
-116.6910684929627
 30
0.0
  0
SEQEND
  5
308
330
303
100
AcDbEntity
  8
Ebene 1
370
     0
  0
HATCH
  5
309
330
1F
100
AcDbEntity
  8
Ebene 1
 62
   252
420
  9081243
100
AcDbHatch
 10
0.0
 20
0.0
 30
0.0
210
0.0
220
0.0
230
1.0
  2
SOLID
 70
     1
 71
     0
 91
        1
 92
        1
 93
        3
 72
     1
 10
48.15347763553108
 20
-116.6910684929627
 11
52.95077309874148
 21
-131.5501098303937
 72
     1
 10
52.95077309874148
 20
-131.5501098303937
 11
57.06835122271208
 21
-116.4881523688814
 72
     1
 10
57.06835122271208
 20
-116.4881523688814
 11
48.15347763553108
 21
-116.6910684929627
 97
        0
 75
     2
 76
     1
 98
        0
  0
POLYLINE
  5
30A
330
1F
100
AcDbEntity
  8
Ebene 1
370
     0
100
AcDb2dPolyline
 66
     1
 10
0.0
 20
0.0
 30
0.0
  0
VERTEX
  5
30B
330
30A
100
AcDbEntity
  8
Ebene 1
370
     0
100
AcDbVertex
100
AcDb2dVertex
 10
34.59427082468477
 20
-124.4842189901463
 30
0.0
  0
VERTEX
  5
30C
330
30A
100
AcDbEntity
  8
Ebene 1
370
     0
100
AcDbVertex
100
AcDb2dVertex
 10
48.15347763553108
 20
-116.6910684929627
 30
0.0
  0
VERTEX
  5
30D
330
30A
100
AcDbEntity
  8
Ebene 1
370
     0
100
AcDbVertex
100
AcDb2dVertex
 10
52.95077309874148
 20
-131.5501098303937
 30
0.0
  0
VERTEX
  5
30E
330
30A
100
AcDbEntity
  8
Ebene 1
370
     0
100
AcDbVertex
100
AcDb2dVertex
 10
34.59427082468477
 20
-124.4842189901463
 30
0.0
  0
SEQEND
  5
30F
330
30A
100
AcDbEntity
  8
Ebene 1
370
     0
  0
HATCH
  5
310
330
1F
100
AcDbEntity
  8
Ebene 1
 62
   254
420
 13687265
100
AcDbHatch
 10
0.0
 20
0.0
 30
0.0
210
0.0
220
0.0
230
1.0
  2
SOLID
 70
     1
 71
     0
 91
        1
 92
        1
 93
        3
 72
     1
 10
34.59427082468477
 20
-124.4842189901463
 11
48.15347763553108
 21
-116.6910684929627
 72
     1
 10
48.15347763553108
 20
-116.6910684929627
 11
52.95077309874148
 21
-131.5501098303937
 72
     1
 10
52.95077309874148
 20
-131.5501098303937
 11
34.59427082468477
 21
-124.4842189901463
 97
        0
 75
     2
 76
     1
 98
        0
  0
POLYLINE
  5
311
330
1F
100
AcDbEntity
  8
Ebene 1
370
     0
100
AcDb2dPolyline
 66
     1
 10
0.0
 20
0.0
 30
0.0
  0
VERTEX
  5
312
330
311
100
AcDbEntity
  8
Ebene 1
370
     0
100
AcDbVertex
100
AcDb2dVertex
 10
35.01078286885147
 20
-142.826251863165
 30
0.0
  0
VERTEX
  5
313
330
311
100
AcDbEntity
  8
Ebene 1
370
     0
100
AcDbVertex
100
AcDb2dVertex
 10
38.86515569774899
 20
-131.8708482200705
 30
0.0
  0
VERTEX
  5
314
330
311
100
AcDbEntity
  8
Ebene 1
370
     0
100
AcDbVertex
100
AcDb2dVertex
 10
34.59427082468477
 20
-124.4842189901463
 30
0.0
  0
VERTEX
  5
315
330
311
100
AcDbEntity
  8
Ebene 1
370
     0
100
AcDbVertex
100
AcDb2dVertex
 10
31.61254068220103
 20
-134.5528550553375
 30
0.0
  0
VERTEX
  5
316
330
311
100
AcDbEntity
  8
Ebene 1
370
     0
100
AcDbVertex
100
AcDb2dVertex
 10
35.01078286885147
 20
-142.826251863165
 30
0.0
  0
SEQEND
  5
317
330
311
100
AcDbEntity
  8
Ebene 1
370
     0
  0
HATCH
  5
318
330
1F
100
AcDbEntity
  8
Ebene 1
 62
     8
420
  7897742
100
AcDbHatch
 10
0.0
 20
0.0
 30
0.0
210
0.0
220
0.0
230
1.0
  2
SOLID
 70
     1
 71
     0
 91
        1
 92
        1
 93
        4
 72
     1
 10
35.01078286885147
 20
-142.826251863165
 11
38.86515569774899
 21
-131.8708482200705
 72
     1
 10
38.86515569774899
 20
-131.8708482200705
 11
34.59427082468477
 21
-124.4842189901463
 72
     1
 10
34.59427082468477
 20
-124.4842189901463
 11
31.61254068220103
 21
-134.5528550553375
 72
     1
 10
31.61254068220103
 20
-134.5528550553375
 11
35.01078286885147
 21
-142.826251863165
 97
        0
 75
     2
 76
     1
 98
        0
  0
POLYLINE
  5
319
330
1F
100
AcDbEntity
  8
Ebene 1
370
     0
100
AcDb2dPolyline
 66
     1
 10
0.0
 20
0.0
 30
0.0
  0
VERTEX
  5
31A
330
319
100
AcDbEntity
  8
Ebene 1
370
     0
100
AcDbVertex
100
AcDb2dVertex
 10
52.95077309874148
 20
-131.5501098303937
 30
0.0
  0
VERTEX
  5
31B
330
319
100
AcDbEntity
  8
Ebene 1
370
     0
100
AcDbVertex
100
AcDb2dVertex
 10
34.59427082468477
 20
-124.4842189901463
 30
0.0
  0
VERTEX
  5
31C
330
319
100
AcDbEntity
  8
Ebene 1
370
     0
100
AcDbVertex
100
AcDb2dVertex
 10
38.86515569774899
 20
-131.8708482200705
 30
0.0
  0
VERTEX
  5
31D
330
319
100
AcDbEntity
  8
Ebene 1
370
     0
100
AcDbVertex
100
AcDb2dVertex
 10
52.95077309874148
 20
-131.5501098303937
 30
0.0
  0
SEQEND
  5
31E
330
319
100
AcDbEntity
  8
Ebene 1
370
     0
  0
HATCH
  5
31F
330
1F
100
AcDbEntity
  8
Ebene 1
 62
   252
420
  9081243
100
AcDbHatch
 10
0.0
 20
0.0
 30
0.0
210
0.0
220
0.0
230
1.0
  2
SOLID
 70
     1
 71
     0
 91
        1
 92
        1
 93
        3
 72
     1
 10
52.95077309874148
 20
-131.5501098303937
 11
34.59427082468477
 21
-124.4842189901463
 72
     1
 10
34.59427082468477
 20
-124.4842189901463
 11
38.86515569774899
 21
-131.8708482200705
 72
     1
 10
38.86515569774899
 20
-131.8708482200705
 11
52.95077309874148
 21
-131.5501098303937
 97
        0
 75
     2
 76
     1
 98
        0
  0
POLYLINE
  5
320
330
1F
100
AcDbEntity
  8
Ebene 1
370
     0
100
AcDb2dPolyline
 66
     1
 10
0.0
 20
0.0
 30
0.0
  0
VERTEX
  5
321
330
320
100
AcDbEntity
  8
Ebene 1
370
     0
100
AcDbVertex
100
AcDb2dVertex
 10
57.06835122271208
 20
-116.4881523688814
 30
0.0
  0
VERTEX
  5
322
330
320
100
AcDbEntity
  8
Ebene 1
370
     0
100
AcDbVertex
100
AcDb2dVertex
 10
68.9797688629634
 20
-125.5012111773921
 30
0.0
  0
VERTEX
  5
323
330
320
100
AcDbEntity
  8
Ebene 1
370
     0
100
AcDbVertex
100
AcDb2dVertex
 10
52.95077309874148
 20
-131.5501098303937
 30
0.0
  0
VERTEX
  5
324
330
320
100
AcDbEntity
  8
Ebene 1
370
     0
100
AcDbVertex
100
AcDb2dVertex
 10
57.06835122271208
 20
-116.4881523688814
 30
0.0
  0
SEQEND
  5
325
330
320
100
AcDbEntity
  8
Ebene 1
370
     0
  0
HATCH
  5
326
330
1F
100
AcDbEntity
  8
Ebene 1
 62
   254
420
 13687265
100
AcDbHatch
 10
0.0
 20
0.0
 30
0.0
210
0.0
220
0.0
230
1.0
  2
SOLID
 70
     1
 71
     0
 91
        1
 92
        1
 93
        3
 72
     1
 10
57.06835122271208
 20
-116.4881523688814
 11
68.9797688629634
 21
-125.5012111773921
 72
     1
 10
68.9797688629634
 20
-125.5012111773921
 11
52.95077309874148
 21
-131.5501098303937
 72
     1
 10
52.95077309874148
 20
-131.5501098303937
 11
57.06835122271208
 21
-116.4881523688814
 97
        0
 75
     2
 76
     1
 98
        0
  0
POLYLINE
  5
327
330
1F
100
AcDbEntity
  8
Ebene 1
370
     0
100
AcDb2dPolyline
 66
     1
 10
0.0
 20
0.0
 30
0.0
  0
VERTEX
  5
328
330
327
100
AcDbEntity
  8
Ebene 1
370
     0
100
AcDbVertex
100
AcDb2dVertex
 10
74.69862736847813
 20
-131.0419582463194
 30
0.0
  0
VERTEX
  5
329
330
327
100
AcDbEntity
  8
Ebene 1
370
     0
100
AcDbVertex
100
AcDb2dVertex
 10
52.3320339495906
 20
-131.5501098303937
 30
0.0
  0
VERTEX
  5
32A
330
327
100
AcDbEntity
  8
Ebene 1
370
     0
100
AcDbVertex
100
AcDb2dVertex
 10
68.36171873290958
 20
-125.5012111773921
 30
0.0
  0
VERTEX
  5
32B
330
327
100
AcDbEntity
  8
Ebene 1
370
     0
100
AcDbVertex
100
AcDb2dVertex
 10
74.69862736847813
 20
-131.0419582463194
 30
0.0
  0
SEQEND
  5
32C
330
327
100
AcDbEntity
  8
Ebene 1
370
     0
  0
HATCH
  5
32D
330
1F
100
AcDbEntity
  8
Ebene 1
 62
   252
420
  9081243
100
AcDbHatch
 10
0.0
 20
0.0
 30
0.0
210
0.0
220
0.0
230
1.0
  2
SOLID
 70
     1
 71
     0
 91
        1
 92
        1
 93
        3
 72
     1
 10
74.69862736847813
 20
-131.0419582463194
 11
52.3320339495906
 21
-131.5501098303937
 72
     1
 10
52.3320339495906
 20
-131.5501098303937
 11
68.36171873290958
 21
-125.5012111773921
 72
     1
 10
68.36171873290958
 20
-125.5012111773921
 11
74.69862736847813
 21
-131.0419582463194
 97
        0
 75
     2
 76
     1
 98
        0
  0
POLYLINE
  5
32E
330
1F
100
AcDbEntity
  8
Ebene 1
370
     0
100
AcDb2dPolyline
 66
     1
 10
0.0
 20
0.0
 30
0.0
  0
VERTEX
  5
32F
330
32E
100
AcDbEntity
  8
Ebene 1
370
     0
100
AcDbVertex
100
AcDb2dVertex
 10
72.6959933629024
 20
-139.0104641037022
 30
0.0
  0
VERTEX
  5
330
330
32E
100
AcDbEntity
  8
Ebene 1
370
     0
100
AcDbVertex
100
AcDb2dVertex
 10
52.3320339495906
 20
-131.5501098303937
 30
0.0
  0
VERTEX
  5
331
330
32E
100
AcDbEntity
  8
Ebene 1
370
     0
100
AcDbVertex
100
AcDb2dVertex
 10
74.69862736847813
 20
-131.0419582463194
 30
0.0
  0
VERTEX
  5
332
330
32E
100
AcDbEntity
  8
Ebene 1
370
     0
100
AcDbVertex
100
AcDb2dVertex
 10
72.6959933629024
 20
-139.0104641037022
 30
0.0
  0
SEQEND
  5
333
330
32E
100
AcDbEntity
  8
Ebene 1
370
     0
  0
HATCH
  5
334
330
1F
100
AcDbEntity
  8
Ebene 1
 62
   254
420
 13687265
100
AcDbHatch
 10
0.0
 20
0.0
 30
0.0
210
0.0
220
0.0
230
1.0
  2
SOLID
 70
     1
 71
     0
 91
        1
 92
        1
 93
        3
 72
     1
 10
72.6959933629024
 20
-139.0104641037022
 11
52.3320339495906
 21
-131.5501098303937
 72
     1
 10
52.3320339495906
 20
-131.5501098303937
 11
74.69862736847813
 21
-131.0419582463194
 72
     1
 10
74.69862736847813
 20
-131.0419582463194
 11
72.6959933629024
 21
-139.0104641037022
 97
        0
 75
     2
 76
     1
 98
        0
  0
SPLINE
  5
335
330
1F
100
AcDbEntity
  8
Ebene 1
370
     0
100
AcDbSpline
210
0.0
220
0.0
230
1.0
 70
    11
 71
     3
 72
   104
 73
   100
 74
     0
 42
0.0000000001
 43
0.0000000001
 40
0.0
 40
0.0
 40
0.0
 40
0.0
 40
1.0
 40
1.0
 40
1.0
 40
2.0
 40
2.0
 40
2.0
 40
3.0
 40
3.0
 40
3.0
 40
4.0
 40
4.0
 40
4.0
 40
5.0
 40
5.0
 40
5.0
 40
6.0
 40
6.0
 40
6.0
 40
7.0
 40
7.0
 40
7.0
 40
8.0
 40
8.0
 40
8.0
 40
9.0
 40
9.0
 40
9.0
 40
10.0
 40
10.0
 40
10.0
 40
11.0
 40
11.0
 40
11.0
 40
12.0
 40
12.0
 40
12.0
 40
13.0
 40
13.0
 40
13.0
 40
14.0
 40
14.0
 40
14.0
 40
15.0
 40
15.0
 40
15.0
 40
16.0
 40
16.0
 40
16.0
 40
17.0
 40
17.0
 40
17.0
 40
18.0
 40
18.0
 40
18.0
 40
19.0
 40
19.0
 40
19.0
 40
20.0
 40
20.0
 40
20.0
 40
21.0
 40
21.0
 40
21.0
 40
22.0
 40
22.0
 40
22.0
 40
23.0
 40
23.0
 40
23.0
 40
24.0
 40
24.0
 40
24.0
 40
25.0
 40
25.0
 40
25.0
 40
26.0
 40
26.0
 40
26.0
 40
27.0
 40
27.0
 40
27.0
 40
28.0
 40
28.0
 40
28.0
 40
29.0
 40
29.0
 40
29.0
 40
30.0
 40
30.0
 40
30.0
 40
31.0
 40
31.0
 40
31.0
 40
32.0
 40
32.0
 40
32.0
 40
33.0
 40
33.0
 40
33.0
 40
33.0
 10
174.2243353514092
 20
-133.7766750425107
 30
0.0
 10
174.2243353514092
 20
-133.7766750425107
 30
0.0
 10
178.8945067912139
 20
-128.4123168624282
 30
0.0
 10
178.8945067912139
 20
-128.4123168624282
 30
0.0
 10
178.8945067912139
 20
-128.4123168624282
 30
0.0
 10
170.5284369148332
 20
-121.1300740257071
 30
0.0
 10
170.5284369148332
 20
-121.1300740257071
 30
0.0
 10
170.9452934685484
 20
-119.6852009791933
 30
0.0
 10
170.6311007602936
 20
-118.1883069908522
 30
0.0
 10
169.574145465419
 20
-117.2677774771935
 30
0.0
 10
168.5161566418988
 20
-116.3475924730833
 30
0.0
 10
166.9903238514816
 20
-116.2414835321376
 30
0.0
 10
165.6181423197066
 20
-116.854021509415
 30
0.0
 10
165.6181423197066
 20
-116.854021509415
 30
0.0
 10
157.2513834242288
 20
-109.5704006344998
 30
0.0
 10
157.2513834242288
 20
-109.5704006344998
 30
0.0
 10
157.2513834242288
 20
-109.5704006344998
 30
0.0
 10
152.5815564939727
 20
-114.9351033241308
 30
0.0
 10
152.5815564939727
 20
-114.9351033241308
 30
0.0
 10
152.5815564939727
 20
-114.9351033241308
 30
0.0
 10
154.7151041279879
 20
-130.2750799913028
 30
0.0
 10
154.7151041279879
 20
-130.2750799913028
 30
0.0
 10
154.7151041279879
 20
-130.2750799913028
 30
0.0
 10
153.9671738981401
 20
-131.1346313148726
 30
0.0
 10
153.9671738981401
 20
-131.1346313148726
 30
0.0
 10
153.9671738981401
 20
-131.1346313148726
 30
0.0
 10
152.6642387856187
 20
-130.0008503906769
 30
0.0
 10
152.6642387856187
 20
-130.0008503906769
 30
0.0
 10
152.6642387856187
 20
-130.0008503906769
 30
0.0
 10
150.6199191246714
 20
-132.3483384543261
 30
0.0
 10
150.6199191246714
 20
-132.3483384543261
 30
0.0
 10
150.6199191246714
 20
-132.3483384543261
 30
0.0
 10
151.9231987467414
 20
-133.4828083976189
 30
0.0
 10
151.9231987467414
 20
-133.4828083976189
 30
0.0
 10
151.9231987467414
 20
-133.4828083976189
 30
0.0
 10
137.2033392669144
 20
-149.6942219677848
 30
0.0
 10
137.2033392669144
 20
-149.6942219677848
 30
0.0
 10
137.2033392669144
 20
-149.6942219677848
 30
0.0
 10
133.7751247495423
 20
-146.7102525132356
 30
0.0
 10
133.7751247495423
 20
-146.7102525132356
 30
0.0
 10
133.7751247495423
 20
-146.7102525132356
 30
0.0
 10
135.4704562378338
 20
-144.764118073618
 30
0.0
 10
135.4704562378338
 20
-144.764118073618
 30
0.0
 10
135.4704562378338
 20
-144.764118073618
 30
0.0
 10
137.5805772225493
 20
-146.6010429863532
 30
0.0
 10
137.5805772225493
 20
-146.6010429863532
 30
0.0
 10
137.5805772225493
 20
-146.6010429863532
 30
0.0
 10
139.444718389618
 20
-144.4616386900131
 30
0.0
 10
139.444718389618
 20
-144.4616386900131
 30
0.0
 10
139.444718389618
 20
-144.4616386900131
 30
0.0
 10
134.1385823232362
 20
-139.8421101538416
 30
0.0
 10
134.1385823232362
 20
-139.8421101538416
 30
0.0
 10
134.1385823232362
 20
-139.8421101538416
 30
0.0
 10
129.3877956490767
 20
-145.2987968929288
 30
0.0
 10
129.3877956490767
 20
-145.2987968929288
 30
0.0
 10
129.3877956490767
 20
-145.2987968929288
 30
0.0
 10
130.6731607746234
 20
-154.537337200949
 30
0.0
 10
130.6731607746234
 20
-154.537337200949
 30
0.0
 10
130.6731607746234
 20
-154.537337200949
 30
0.0
 10
131.9278645503514
 20
-153.0945312117264
 30
0.0
 10
131.9278645503514
 20
-153.0945312117264
 30
0.0
 10
131.9278645503514
 20
-153.0945312117264
 30
0.0
 10
133.2445800448139
 20
-154.2403699701205
 30
0.0
 10
133.2445800448139
 20
-154.2403699701205
 30
0.0
 10
133.2445800448139
 20
-154.2403699701205
 30
0.0
 10
130.3479437608158
 20
-157.5697102470659
 30
0.0
 10
130.3479437608158
 20
-157.5697102470659
 30
0.0
 10
130.3479437608158
 20
-157.5697102470659
 30
0.0
 10
131.288454828289
 20
-158.3889539534583
 30
0.0
 10
131.288454828289
 20
-158.3889539534583
 30
0.0
 10
131.288454828289
 20
-158.3889539534583
 30
0.0
 10
130.4085774413562
 20
-159.3997449688306
 30
0.0
 10
130.4085774413562
 20
-159.3997449688306
 30
0.0
 10
130.4085774413562
 20
-159.3997449688306
 30
0.0
 10
132.5483262472449
 20
-161.2607855499626
 30
0.0
 10
132.5483262472449
 20
-161.2607855499626
 30
0.0
 10
132.5483262472449
 20
-161.2607855499626
 30
0.0
 10
133.4282036341777
 20
-160.2513725727844
 30
0.0
 10
133.4282036341777
 20
-160.2513725727844
 30
0.0
 10
133.4282036341777
 20
-160.2513725727844
 30
0.0
 10
134.3704372493935
 20
-161.0713052982738
 30
0.0
 10
134.3704372493935
 20
-161.0713052982738
 30
0.0
 10
134.3704372493935
 20
-161.0713052982738
 30
0.0
 10
155.9453477257706
 20
-136.9844034488268
 30
0.0
 10
155.9453477257706
 20
-136.9844034488268
 30
0.0
 10
155.9453477257706
 20
-136.9844034488268
 30
0.0
 10
157.2479383287436
 20
-138.1174953539255
 30
0.0
 10
157.2479383287436
 20
-138.1174953539255
 30
0.0
 10
157.2479383287436
 20
-138.1174953539255
 30
0.0
 10
159.2922579896908
 20
-135.7700072902763
 30
0.0
 10
159.2922579896908
 20
-135.7700072902763
 30
0.0
 10
159.2922579896908
 20
-135.7700072902763
 30
0.0
 10
157.9889783676208
 20
-134.6362263660805
 30
0.0
 10
157.9889783676208
 20
-134.6362263660805
 30
0.0
 10
157.9889783676208
 20
-134.6362263660805
 30
0.0
 10
158.7379421261141
 20
-133.7770195520592
 30
0.0
 10
158.7379421261141
 20
-133.7770195520592
 30
0.0
 10
158.7379421261141
 20
-133.7770195520592
 30
0.0
 10
174.2243353514092
 20
-133.7766750425107
 30
0.0
 10
174.2243353514092
 20
-133.7766750425107
 30
0.0
  0
SPLINE
  5
336
330
1F
100
AcDbEntity
  8
Ebene 1
370
     0
100
AcDbSpline
210
0.0
220
0.0
230
1.0
 70
    11
 71
     3
 72
    17
 73
    13
 74
     0
 42
0.0000000001
 43
0.0000000001
 40
0.0
 40
0.0
 40
0.0
 40
0.0
 40
1.0
 40
1.0
 40
1.0
 40
2.0
 40
2.0
 40
2.0
 40
3.0
 40
3.0
 40
3.0
 40
4.0
 40
4.0
 40
4.0
 40
4.0
 10
168.2222899970069
 20
-118.8208265219441
 30
0.0
 10
169.146953625248
 20
-119.6262898463955
 30
0.0
 10
169.2024196625605
 20
-121.0770195552342
 30
0.0
 10
168.3439018676362
 20
-122.0623168640157
 30
0.0
 10
167.4871066204546
 20
-123.0469251537001
 30
0.0
 10
166.0425780834894
 20
-123.1923081831776
 30
0.0
 10
165.1175699456998
 20
-122.3871893682747
 30
0.0
 10
164.1925618079102
 20
-121.5813815342748
 30
0.0
 10
164.1370957705977
 20
-120.1306518254361
 30
0.0
 10
164.9938910177793
 20
-119.1456990262032
 30
0.0
 10
165.8524088127036
 20
-118.1607462269702
 30
0.0
 10
167.2969373496688
 20
-118.0150186879442
 30
0.0
 10
168.2222899970069
 20
-118.8208265219441
 30
0.0
  0
SPLINE
  5
337
330
1F
100
AcDbEntity
  8
Ebene 1
370
     0
100
AcDbSpline
210
0.0
220
0.0
230
1.0
 70
    11
 71
     3
 72
    32
 73
    28
 74
     0
 42
0.0000000001
 43
0.0000000001
 40
0.0
 40
0.0
 40
0.0
 40
0.0
 40
1.0
 40
1.0
 40
1.0
 40
2.0
 40
2.0
 40
2.0
 40
3.0
 40
3.0
 40
3.0
 40
4.0
 40
4.0
 40
4.0
 40
5.0
 40
5.0
 40
5.0
 40
6.0
 40
6.0
 40
6.0
 40
7.0
 40
7.0
 40
7.0
 40
8.0
 40
8.0
 40
8.0
 40
9.0
 40
9.0
 40
9.0
 40
9.0
 10
156.9936902819321
 20
-125.4109496756785
 30
0.0
 10
156.9936902819321
 20
-125.4109496756785
 30
0.0
 10
155.6724961633388
 20
-115.9079982891654
 30
0.0
 10
155.6724961633388
 20
-115.9079982891654
 30
0.0
 10
155.6724961633388
 20
-115.9079982891654
 30
0.0
 10
156.6846652169052
 20
-114.7452785628935
 30
0.0
 10
156.6846652169052
 20
-114.7452785628935
 30
0.0
 10
156.6846652169052
 20
-114.7452785628935
 30
0.0
 10
162.810389499228
 20
-120.0789753931574
 30
0.0
 10
162.810389499228
 20
-120.0789753931574
 30
0.0
 10
162.3942219646098
 20
-121.5228149110255
 30
0.0
 10
162.7077256537675
 20
-123.0193643898181
 30
0.0
 10
163.7653699677392
 20
-123.9405829225739
 30
0.0
 10
164.8230142817109
 20
-124.8604234171356
 30
0.0
 10
166.3485025625795
 20
-124.9654988294357
 30
0.0
 10
167.7213731134516
 20
-124.3536498712553
 30
0.0
 10
167.7213731134516
 20
-124.3536498712553
 30
0.0
 10
173.8470973957743
 20
-129.6870021919706
 30
0.0
 10
173.8470973957743
 20
-129.6870021919706
 30
0.0
 10
173.8470973957743
 20
-129.6870021919706
 30
0.0
 10
172.835617361305
 20
-130.8500664277909
 30
0.0
 10
172.835617361305
 20
-130.8500664277909
 30
0.0
 10
172.835617361305
 20
-130.8500664277909
 30
0.0
 10
163.2417154539812
 20
-130.8493774086939
 30
0.0
 10
163.2417154539812
 20
-130.8493774086939
 30
0.0
 10
163.2417154539812
 20
-130.8493774086939
 30
0.0
 10
156.9936902819321
 20
-125.4109496756785
 30
0.0
 10
156.9936902819321
 20
-125.4109496756785
 30
0.0
  0
HATCH
  5
338
330
1F
100
AcDbEntity
  8
Ebene 1
 62
   155
420
  2912953
100
AcDbHatch
 10
0.0
 20
0.0
 30
0.0
210
0.0
220
0.0
230
1.0
  2
SOLID
 70
     1
 71
     0
 91
        3
 92
        1
 93
        1
 72
     4
 94
        3
 73
     0
 74
     1
 95
      104
 96
      100
 40
0.0
 40
0.0
 40
0.0
 40
0.0
 40
1.0
 40
1.0
 40
1.0
 40
2.0
 40
2.0
 40
2.0
 40
3.0
 40
3.0
 40
3.0
 40
4.0
 40
4.0
 40
4.0
 40
5.0
 40
5.0
 40
5.0
 40
6.0
 40
6.0
 40
6.0
 40
7.0
 40
7.0
 40
7.0
 40
8.0
 40
8.0
 40
8.0
 40
9.0
 40
9.0
 40
9.0
 40
10.0
 40
10.0
 40
10.0
 40
11.0
 40
11.0
 40
11.0
 40
12.0
 40
12.0
 40
12.0
 40
13.0
 40
13.0
 40
13.0
 40
14.0
 40
14.0
 40
14.0
 40
15.0
 40
15.0
 40
15.0
 40
16.0
 40
16.0
 40
16.0
 40
17.0
 40
17.0
 40
17.0
 40
18.0
 40
18.0
 40
18.0
 40
19.0
 40
19.0
 40
19.0
 40
20.0
 40
20.0
 40
20.0
 40
21.0
 40
21.0
 40
21.0
 40
22.0
 40
22.0
 40
22.0
 40
23.0
 40
23.0
 40
23.0
 40
24.0
 40
24.0
 40
24.0
 40
25.0
 40
25.0
 40
25.0
 40
26.0
 40
26.0
 40
26.0
 40
27.0
 40
27.0
 40
27.0
 40
28.0
 40
28.0
 40
28.0
 40
29.0
 40
29.0
 40
29.0
 40
30.0
 40
30.0
 40
30.0
 40
31.0
 40
31.0
 40
31.0
 40
32.0
 40
32.0
 40
32.0
 40
33.0
 40
33.0
 40
33.0
 40
33.0
 10
174.2243353514092
 20
-133.7766750425107
 10
174.2243353514092
 20
-133.7766750425107
 10
178.8945067912139
 20
-128.4123168624282
 10
178.8945067912139
 20
-128.4123168624282
 10
178.8945067912139
 20
-128.4123168624282
 10
170.5284369148332
 20
-121.1300740257071
 10
170.5284369148332
 20
-121.1300740257071
 10
170.9452934685484
 20
-119.6852009791933
 10
170.6311007602936
 20
-118.1883069908522
 10
169.574145465419
 20
-117.2677774771935
 10
168.5161566418988
 20
-116.3475924730833
 10
166.9903238514816
 20
-116.2414835321376
 10
165.6181423197066
 20
-116.854021509415
 10
165.6181423197066
 20
-116.854021509415
 10
157.2513834242288
 20
-109.5704006344998
 10
157.2513834242288
 20
-109.5704006344998
 10
157.2513834242288
 20
-109.5704006344998
 10
152.5815564939727
 20
-114.9351033241308
 10
152.5815564939727
 20
-114.9351033241308
 10
152.5815564939727
 20
-114.9351033241308
 10
154.7151041279879
 20
-130.2750799913028
 10
154.7151041279879
 20
-130.2750799913028
 10
154.7151041279879
 20
-130.2750799913028
 10
153.9671738981401
 20
-131.1346313148726
 10
153.9671738981401
 20
-131.1346313148726
 10
153.9671738981401
 20
-131.1346313148726
 10
152.6642387856187
 20
-130.0008503906769
 10
152.6642387856187
 20
-130.0008503906769
 10
152.6642387856187
 20
-130.0008503906769
 10
150.6199191246714
 20
-132.3483384543261
 10
150.6199191246714
 20
-132.3483384543261
 10
150.6199191246714
 20
-132.3483384543261
 10
151.9231987467414
 20
-133.4828083976189
 10
151.9231987467414
 20
-133.4828083976189
 10
151.9231987467414
 20
-133.4828083976189
 10
137.2033392669144
 20
-149.6942219677848
 10
137.2033392669144
 20
-149.6942219677848
 10
137.2033392669144
 20
-149.6942219677848
 10
133.7751247495423
 20
-146.7102525132356
 10
133.7751247495423
 20
-146.7102525132356
 10
133.7751247495423
 20
-146.7102525132356
 10
135.4704562378338
 20
-144.764118073618
 10
135.4704562378338
 20
-144.764118073618
 10
135.4704562378338
 20
-144.764118073618
 10
137.5805772225493
 20
-146.6010429863532
 10
137.5805772225493
 20
-146.6010429863532
 10
137.5805772225493
 20
-146.6010429863532
 10
139.444718389618
 20
-144.4616386900131
 10
139.444718389618
 20
-144.4616386900131
 10
139.444718389618
 20
-144.4616386900131
 10
134.1385823232362
 20
-139.8421101538416
 10
134.1385823232362
 20
-139.8421101538416
 10
134.1385823232362
 20
-139.8421101538416
 10
129.3877956490767
 20
-145.2987968929288
 10
129.3877956490767
 20
-145.2987968929288
 10
129.3877956490767
 20
-145.2987968929288
 10
130.6731607746234
 20
-154.537337200949
 10
130.6731607746234
 20
-154.537337200949
 10
130.6731607746234
 20
-154.537337200949
 10
131.9278645503514
 20
-153.0945312117264
 10
131.9278645503514
 20
-153.0945312117264
 10
131.9278645503514
 20
-153.0945312117264
 10
133.2445800448139
 20
-154.2403699701205
 10
133.2445800448139
 20
-154.2403699701205
 10
133.2445800448139
 20
-154.2403699701205
 10
130.3479437608158
 20
-157.5697102470659
 10
130.3479437608158
 20
-157.5697102470659
 10
130.3479437608158
 20
-157.5697102470659
 10
131.288454828289
 20
-158.3889539534583
 10
131.288454828289
 20
-158.3889539534583
 10
131.288454828289
 20
-158.3889539534583
 10
130.4085774413562
 20
-159.3997449688306
 10
130.4085774413562
 20
-159.3997449688306
 10
130.4085774413562
 20
-159.3997449688306
 10
132.5483262472449
 20
-161.2607855499626
 10
132.5483262472449
 20
-161.2607855499626
 10
132.5483262472449
 20
-161.2607855499626
 10
133.4282036341777
 20
-160.2513725727844
 10
133.4282036341777
 20
-160.2513725727844
 10
133.4282036341777
 20
-160.2513725727844
 10
134.3704372493935
 20
-161.0713052982738
 10
134.3704372493935
 20
-161.0713052982738
 10
134.3704372493935
 20
-161.0713052982738
 10
155.9453477257706
 20
-136.9844034488268
 10
155.9453477257706
 20
-136.9844034488268
 10
155.9453477257706
 20
-136.9844034488268
 10
157.2479383287436
 20
-138.1174953539255
 10
157.2479383287436
 20
-138.1174953539255
 10
157.2479383287436
 20
-138.1174953539255
 10
159.2922579896908
 20
-135.7700072902763
 10
159.2922579896908
 20
-135.7700072902763
 10
159.2922579896908
 20
-135.7700072902763
 10
157.9889783676208
 20
-134.6362263660805
 10
157.9889783676208
 20
-134.6362263660805
 10
157.9889783676208
 20
-134.6362263660805
 10
158.7379421261141
 20
-133.7770195520592
 10
158.7379421261141
 20
-133.7770195520592
 10
158.7379421261141
 20
-133.7770195520592
 10
174.2243353514092
 20
-133.7766750425107
 10
174.2243353514092
 20
-133.7766750425107
 97
        0
 92
        1
 93
        1
 72
     4
 94
        3
 73
     0
 74
     1
 95
       17
 96
       13
 40
0.0
 40
0.0
 40
0.0
 40
0.0
 40
1.0
 40
1.0
 40
1.0
 40
2.0
 40
2.0
 40
2.0
 40
3.0
 40
3.0
 40
3.0
 40
4.0
 40
4.0
 40
4.0
 40
4.0
 10
168.2222899970069
 20
-118.8208265219441
 10
169.146953625248
 20
-119.6262898463955
 10
169.2024196625605
 20
-121.0770195552342
 10
168.3439018676362
 20
-122.0623168640157
 10
167.4871066204546
 20
-123.0469251537001
 10
166.0425780834894
 20
-123.1923081831776
 10
165.1175699456998
 20
-122.3871893682747
 10
164.1925618079102
 20
-121.5813815342748
 10
164.1370957705977
 20
-120.1306518254361
 10
164.9938910177793
 20
-119.1456990262032
 10
165.8524088127036
 20
-118.1607462269702
 10
167.2969373496688
 20
-118.0150186879442
 10
168.2222899970069
 20
-118.8208265219441
 97
        0
 92
        1
 93
        1
 72
     4
 94
        3
 73
     0
 74
     1
 95
       32
 96
       28
 40
0.0
 40
0.0
 40
0.0
 40
0.0
 40
1.0
 40
1.0
 40
1.0
 40
2.0
 40
2.0
 40
2.0
 40
3.0
 40
3.0
 40
3.0
 40
4.0
 40
4.0
 40
4.0
 40
5.0
 40
5.0
 40
5.0
 40
6.0
 40
6.0
 40
6.0
 40
7.0
 40
7.0
 40
7.0
 40
8.0
 40
8.0
 40
8.0
 40
9.0
 40
9.0
 40
9.0
 40
9.0
 10
156.9936902819321
 20
-125.4109496756785
 10
156.9936902819321
 20
-125.4109496756785
 10
155.6724961633388
 20
-115.9079982891654
 10
155.6724961633388
 20
-115.9079982891654
 10
155.6724961633388
 20
-115.9079982891654
 10
156.6846652169052
 20
-114.7452785628935
 10
156.6846652169052
 20
-114.7452785628935
 10
156.6846652169052
 20
-114.7452785628935
 10
162.810389499228
 20
-120.0789753931574
 10
162.810389499228
 20
-120.0789753931574
 10
162.3942219646098
 20
-121.5228149110255
 10
162.7077256537675
 20
-123.0193643898181
 10
163.7653699677392
 20
-123.9405829225739
 10
164.8230142817109
 20
-124.8604234171356
 10
166.3485025625795
 20
-124.9654988294357
 10
167.7213731134516
 20
-124.3536498712553
 10
167.7213731134516
 20
-124.3536498712553
 10
173.8470973957743
 20
-129.6870021919706
 10
173.8470973957743
 20
-129.6870021919706
 10
173.8470973957743
 20
-129.6870021919706
 10
172.835617361305
 20
-130.8500664277909
 10
172.835617361305
 20
-130.8500664277909
 10
172.835617361305
 20
-130.8500664277909
 10
163.2417154539812
 20
-130.8493774086939
 10
163.2417154539812
 20
-130.8493774086939
 10
163.2417154539812
 20
-130.8493774086939
 10
156.9936902819321
 20
-125.4109496756785
 10
156.9936902819321
 20
-125.4109496756785
 97
        0
 75
     2
 76
     1
 98
        0
  0
POLYLINE
  5
339
330
1F
100
AcDbEntity
  8
Ebene 1
370
     0
100
AcDb2dPolyline
 66
     1
 10
0.0
 20
0.0
 30
0.0
  0
VERTEX
  5
33A
330
339
100
AcDbEntity
  8
Ebene 1
370
     0
100
AcDbVertex
100
AcDb2dVertex
 10
149.5495279574043
 20
-116.6910684929627
 30
0.0
  0
VERTEX
  5
33B
330
339
100
AcDbEntity
  8
Ebene 1
370
     0
100
AcDbVertex
100
AcDb2dVertex
 10
144.7525770037424
 20
-131.5501098303937
 30
0.0
  0
VERTEX
  5
33C
330
339
100
AcDbEntity
  8
Ebene 1
370
     0
100
AcDbVertex
100
AcDb2dVertex
 10
140.6346543702233
 20
-116.4881523688814
 30
0.0
  0
VERTEX
  5
33D
330
339
100
AcDbEntity
  8
Ebene 1
370
     0
100
AcDbVertex
100
AcDb2dVertex
 10
149.5495279574043
 20
-116.6910684929627
 30
0.0
  0
SEQEND
  5
33E
330
339
100
AcDbEntity
  8
Ebene 1
370
     0
  0
HATCH
  5
33F
330
1F
100
AcDbEntity
  8
Ebene 1
 62
    22
420
 12658989
100
AcDbHatch
 10
0.0
 20
0.0
 30
0.0
210
0.0
220
0.0
230
1.0
  2
SOLID
 70
     1
 71
     0
 91
        1
 92
        1
 93
        3
 72
     1
 10
149.5495279574043
 20
-116.6910684929627
 11
144.7525770037424
 21
-131.5501098303937
 72
     1
 10
144.7525770037424
 20
-131.5501098303937
 11
140.6346543702233
 21
-116.4881523688814
 72
     1
 10
140.6346543702233
 20
-116.4881523688814
 11
149.5495279574043
 21
-116.6910684929627
 97
        0
 75
     2
 76
     1
 98
        0
  0
POLYLINE
  5
340
330
1F
100
AcDbEntity
  8
Ebene 1
370
     0
100
AcDb2dPolyline
 66
     1
 10
0.0
 20
0.0
 30
0.0
  0
VERTEX
  5
341
330
340
100
AcDbEntity
  8
Ebene 1
370
     0
100
AcDbVertex
100
AcDb2dVertex
 10
163.1087347682506
 20
-124.4842189901463
 30
0.0
  0
VERTEX
  5
342
330
340
100
AcDbEntity
  8
Ebene 1
370
     0
100
AcDbVertex
100
AcDb2dVertex
 10
149.5495279574043
 20
-116.6910684929627
 30
0.0
  0
VERTEX
  5
343
330
340
100
AcDbEntity
  8
Ebene 1
370
     0
100
AcDbVertex
100
AcDb2dVertex
 10
144.7525770037424
 20
-131.5501098303937
 30
0.0
  0
VERTEX
  5
344
330
340
100
AcDbEntity
  8
Ebene 1
370
     0
100
AcDbVertex
100
AcDb2dVertex
 10
163.1087347682506
 20
-124.4842189901463
 30
0.0
  0
SEQEND
  5
345
330
340
100
AcDbEntity
  8
Ebene 1
370
     0
  0
HATCH
  5
346
330
1F
100
AcDbEntity
  8
Ebene 1
 62
    22
420
 13319469
100
AcDbHatch
 10
0.0
 20
0.0
 30
0.0
210
0.0
220
0.0
230
1.0
  2
SOLID
 70
     1
 71
     0
 91
        1
 92
        1
 93
        3
 72
     1
 10
163.1087347682506
 20
-124.4842189901463
 11
149.5495279574043
 21
-116.6910684929627
 72
     1
 10
149.5495279574043
 20
-116.6910684929627
 11
144.7525770037424
 21
-131.5501098303937
 72
     1
 10
144.7525770037424
 20
-131.5501098303937
 11
163.1087347682506
 21
-124.4842189901463
 97
        0
 75
     2
 76
     1
 98
        0
  0
POLYLINE
  5
347
330
1F
100
AcDbEntity
  8
Ebene 1
370
     0
100
AcDb2dPolyline
 66
     1
 10
0.0
 20
0.0
 30
0.0
  0
VERTEX
  5
348
330
347
100
AcDbEntity
  8
Ebene 1
370
     0
100
AcDbVertex
100
AcDb2dVertex
 10
162.6915337049869
 20
-142.826251863165
 30
0.0
  0
VERTEX
  5
349
330
347
100
AcDbEntity
  8
Ebene 1
370
     0
100
AcDbVertex
100
AcDb2dVertex
 10
158.8378498951864
 20
-131.8708482200705
 30
0.0
  0
VERTEX
  5
34A
330
347
100
AcDbEntity
  8
Ebene 1
370
     0
100
AcDbVertex
100
AcDb2dVertex
 10
163.1087347682506
 20
-124.4842189901463
 30
0.0
  0
VERTEX
  5
34B
330
347
100
AcDbEntity
  8
Ebene 1
370
     0
100
AcDbVertex
100
AcDb2dVertex
 10
166.0908094202829
 20
-134.5528550553375
 30
0.0
  0
VERTEX
  5
34C
330
347
100
AcDbEntity
  8
Ebene 1
370
     0
100
AcDbVertex
100
AcDb2dVertex
 10
162.6915337049869
 20
-142.826251863165
 30
0.0
  0
SEQEND
  5
34D
330
347
100
AcDbEntity
  8
Ebene 1
370
     0
  0
HATCH
  5
34E
330
1F
100
AcDbEntity
  8
Ebene 1
 62
    24
420
 11085869
100
AcDbHatch
 10
0.0
 20
0.0
 30
0.0
210
0.0
220
0.0
230
1.0
  2
SOLID
 70
     1
 71
     0
 91
        1
 92
        1
 93
        4
 72
     1
 10
162.6915337049869
 20
-142.826251863165
 11
158.8378498951864
 21
-131.8708482200705
 72
     1
 10
158.8378498951864
 20
-131.8708482200705
 11
163.1087347682506
 21
-124.4842189901463
 72
     1
 10
163.1087347682506
 20
-124.4842189901463
 11
166.0908094202829
 21
-134.5528550553375
 72
     1
 10
166.0908094202829
 20
-134.5528550553375
 11
162.6915337049869
 21
-142.826251863165
 97
        0
 75
     2
 76
     1
 98
        0
  0
POLYLINE
  5
34F
330
1F
100
AcDbEntity
  8
Ebene 1
370
     0
100
AcDb2dPolyline
 66
     1
 10
0.0
 20
0.0
 30
0.0
  0
VERTEX
  5
350
330
34F
100
AcDbEntity
  8
Ebene 1
370
     0
100
AcDbVertex
100
AcDb2dVertex
 10
144.7525770037424
 20
-131.5501098303937
 30
0.0
  0
VERTEX
  5
351
330
34F
100
AcDbEntity
  8
Ebene 1
370
     0
100
AcDbVertex
100
AcDb2dVertex
 10
163.1087347682506
 20
-124.4842189901463
 30
0.0
  0
VERTEX
  5
352
330
34F
100
AcDbEntity
  8
Ebene 1
370
     0
100
AcDbVertex
100
AcDb2dVertex
 10
158.8378498951864
 20
-131.8708482200705
 30
0.0
  0
VERTEX
  5
353
330
34F
100
AcDbEntity
  8
Ebene 1
370
     0
100
AcDbVertex
100
AcDb2dVertex
 10
144.7525770037424
 20
-131.5501098303937
 30
0.0
  0
SEQEND
  5
354
330
34F
100
AcDbEntity
  8
Ebene 1
370
     0
  0
HATCH
  5
355
330
1F
100
AcDbEntity
  8
Ebene 1
 62
    22
420
 13118243
100
AcDbHatch
 10
0.0
 20
0.0
 30
0.0
210
0.0
220
0.0
230
1.0
  2
SOLID
 70
     1
 71
     0
 91
        1
 92
        1
 93
        3
 72
     1
 10
144.7525770037424
 20
-131.5501098303937
 11
163.1087347682506
 21
-124.4842189901463
 72
     1
 10
163.1087347682506
 20
-124.4842189901463
 11
158.8378498951864
 21
-131.8708482200705
 72
     1
 10
158.8378498951864
 20
-131.8708482200705
 11
144.7525770037424
 21
-131.5501098303937
 97
        0
 75
     2
 76
     1
 98
        0
  0
POLYLINE
  5
356
330
1F
100
AcDbEntity
  8
Ebene 1
370
     0
100
AcDb2dPolyline
 66
     1
 10
0.0
 20
0.0
 30
0.0
  0
VERTEX
  5
357
330
356
100
AcDbEntity
  8
Ebene 1
370
     0
100
AcDbVertex
100
AcDb2dVertex
 10
140.6346543702233
 20
-116.4881523688814
 30
0.0
  0
VERTEX
  5
358
330
356
100
AcDbEntity
  8
Ebene 1
370
     0
100
AcDbVertex
100
AcDb2dVertex
 10
128.7228922204235
 20
-125.5012111773921
 30
0.0
  0
VERTEX
  5
359
330
356
100
AcDbEntity
  8
Ebene 1
370
     0
100
AcDbVertex
100
AcDb2dVertex
 10
144.7525770037424
 20
-131.5501098303937
 30
0.0
  0
VERTEX
  5
35A
330
356
100
AcDbEntity
  8
Ebene 1
370
     0
100
AcDbVertex
100
AcDb2dVertex
 10
140.6346543702233
 20
-116.4881523688814
 30
0.0
  0
SEQEND
  5
35B
330
356
100
AcDbEntity
  8
Ebene 1
370
     0
  0
HATCH
  5
35C
330
1F
100
AcDbEntity
  8
Ebene 1
 62
    22
420
 13319469
100
AcDbHatch
 10
0.0
 20
0.0
 30
0.0
210
0.0
220
0.0
230
1.0
  2
SOLID
 70
     1
 71
     0
 91
        1
 92
        1
 93
        3
 72
     1
 10
140.6346543702233
 20
-116.4881523688814
 11
128.7228922204235
 21
-125.5012111773921
 72
     1
 10
128.7228922204235
 20
-125.5012111773921
 11
144.7525770037424
 21
-131.5501098303937
 72
     1
 10
144.7525770037424
 20
-131.5501098303937
 11
140.6346543702233
 21
-116.4881523688814
 97
        0
 75
     2
 76
     1
 98
        0
  0
POLYLINE
  5
35D
330
1F
100
AcDbEntity
  8
Ebene 1
370
     0
100
AcDb2dPolyline
 66
     1
 10
0.0
 20
0.0
 30
0.0
  0
VERTEX
  5
35E
330
35D
100
AcDbEntity
  8
Ebene 1
370
     0
100
AcDbVertex
100
AcDb2dVertex
 10
122.3859835848549
 20
-131.0419582463194
 30
0.0
  0
VERTEX
  5
35F
330
35D
100
AcDbEntity
  8
Ebene 1
370
     0
100
AcDbVertex
100
AcDb2dVertex
 10
144.7525770037424
 20
-131.5501098303937
 30
0.0
  0
VERTEX
  5
360
330
35D
100
AcDbEntity
  8
Ebene 1
370
     0
100
AcDbVertex
100
AcDb2dVertex
 10
128.7228922204235
 20
-125.5012111773921
 30
0.0
  0
VERTEX
  5
361
330
35D
100
AcDbEntity
  8
Ebene 1
370
     0
100
AcDbVertex
100
AcDb2dVertex
 10
122.3859835848549
 20
-131.0419582463194
 30
0.0
  0
SEQEND
  5
362
330
35D
100
AcDbEntity
  8
Ebene 1
370
     0
  0
HATCH
  5
363
330
1F
100
AcDbEntity
  8
Ebene 1
 62
    24
420
 11085869
100
AcDbHatch
 10
0.0
 20
0.0
 30
0.0
210
0.0
220
0.0
230
1.0
  2
SOLID
 70
     1
 71
     0
 91
        1
 92
        1
 93
        3
 72
     1
 10
122.3859835848549
 20
-131.0419582463194
 11
144.7525770037424
 21
-131.5501098303937
 72
     1
 10
144.7525770037424
 20
-131.5501098303937
 11
128.7228922204235
 21
-125.5012111773921
 72
     1
 10
128.7228922204235
 20
-125.5012111773921
 11
122.3859835848549
 21
-131.0419582463194
 97
        0
 75
     2
 76
     1
 98
        0
  0
POLYLINE
  5
364
330
1F
100
AcDbEntity
  8
Ebene 1
370
     0
100
AcDb2dPolyline
 66
     1
 10
0.0
 20
0.0
 30
0.0
  0
VERTEX
  5
365
330
364
100
AcDbEntity
  8
Ebene 1
370
     0
100
AcDbVertex
100
AcDb2dVertex
 10
124.3886175904306
 20
-139.0104641037022
 30
0.0
  0
VERTEX
  5
366
330
364
100
AcDbEntity
  8
Ebene 1
370
     0
100
AcDbVertex
100
AcDb2dVertex
 10
144.7525770037424
 20
-131.5501098303937
 30
0.0
  0
VERTEX
  5
367
330
364
100
AcDbEntity
  8
Ebene 1
370
     0
100
AcDbVertex
100
AcDb2dVertex
 10
122.3859835848549
 20
-131.0419582463194
 30
0.0
  0
VERTEX
  5
368
330
364
100
AcDbEntity
  8
Ebene 1
370
     0
100
AcDbVertex
100
AcDb2dVertex
 10
124.3886175904306
 20
-139.0104641037022
 30
0.0
  0
SEQEND
  5
369
330
364
100
AcDbEntity
  8
Ebene 1
370
     0
  0
HATCH
  5
36A
330
1F
100
AcDbEntity
  8
Ebene 1
 62
    22
420
 13319469
100
AcDbHatch
 10
0.0
 20
0.0
 30
0.0
210
0.0
220
0.0
230
1.0
  2
SOLID
 70
     1
 71
     0
 91
        1
 92
        1
 93
        3
 72
     1
 10
124.3886175904306
 20
-139.0104641037022
 11
144.7525770037424
 21
-131.5501098303937
 72
     1
 10
144.7525770037424
 20
-131.5501098303937
 11
122.3859835848549
 21
-131.0419582463194
 72
     1
 10
122.3859835848549
 20
-131.0419582463194
 11
124.3886175904306
 21
-139.0104641037022
 97
        0
 75
     2
 76
     1
 98
        0
  0
ENDSEC
  0
SECTION
  2
OBJECTS
  0
DICTIONARY
  5
C
330
0
100
AcDbDictionary
281
     1
  3
ACAD_GROUP
350
D
  3
ACAD_LAYOUT
350
1A
  3
ACAD_MLINESTYLE
350
17
  3
ACAD_PLOTSETTINGS
350
19
  3
ACAD_PLOTSTYLENAME
350
E
  3
ACAD_TABLESTYLE
350
36B
  3
ACAD_VISUALSTYLE
350
2A
  0
DICTIONARY
  5
D
102
{ACAD_REACTORS
330
C
102
}
330
C
100
AcDbDictionary
281
     1
  0
DICTIONARY
  5
1A
102
{ACAD_REACTORS
330
C
102
}
330
C
100
AcDbDictionary
281
     1
  3
Layout1
350
1E
  3
Layout2
350
26
  3
Model
350
22
  0
DICTIONARY
  5
17
102
{ACAD_REACTORS
330
C
102
}
330
C
100
AcDbDictionary
281
     1
  3
Standard
350
18
  0
DICTIONARY
  5
19
102
{ACAD_REACTORS
330
C
102
}
330
C
100
AcDbDictionary
281
     1
  0
ACDBDICTIONARYWDFLT
  5
E
102
{ACAD_REACTORS
330
C
102
}
330
C
100
AcDbDictionary
281
     1
  3
Normal
350
F
100
AcDbDictionaryWithDefault
340
F
  0
DICTIONARY
  5
36B
102
{ACAD_REACTORS
330
C
102
}
330
C
100
AcDbDictionary
281
     1
  0
DICTIONARY
  5
2A
102
{ACAD_REACTORS
330
C
102
}
330
C
100
AcDbDictionary
281
     1
  3
2dWireframe
350
2F
  3
3D Hidden
350
31
  3
3dWireframe
350
30
  3
Basic
350
32
  3
Brighten
350
36
  3
ColorChange
350
3A
  3
Conceptual
350
34
  3
Dim
350
35
  3
Facepattern
350
39
  3
Flat
350
2B
  3
FlatWithEdges
350
2C
  3
Gouraud
350
2D
  3
GouraudWithEdges
350
2E
  3
Linepattern
350
38
  3
Realistic
350
33
  3
Thicken
350
37
  0
LAYOUT
  5
1E
102
{ACAD_REACTORS
330
1A
102
}
330
1A
100
AcDbPlotSettings
  1

  2
none_device
  4

  6

 40
0.0
 41
0.0
 42
0.0
 43
0.0
 44
0.0
 45
0.0
 46
0.0
 47
0.0
 48
0.0
 49
0.0
140
0.0
141
0.0
142
1.0
143
1.0
 70
   688
 72
     0
 73
     0
 74
     5
  7

 75
    16
 76
     0
 77
     2
 78
   300
147
1.0
148
0.0
149
0.0
100
AcDbLayout
  1
Layout1
 70
     1
 71
     1
 10
0.0
 20
0.0
 11
12.0
 21
9.0
 12
0.0
 22
0.0
 32
0.0
 14
1.000000000000000E+20
 24
1.000000000000000E+20
 34
1.000000000000000E+20
 15
-1.000000000000000E+20
 25
-1.000000000000000E+20
 35
-1.000000000000000E+20
146
0.0
 13
0.0
 23
0.0
 33
0.0
 16
1.0
 26
0.0
 36
0.0
 17
0.0
 27
1.0
 37
0.0
 76
     0
330
1B
  0
LAYOUT
  5
26
102
{ACAD_REACTORS
330
1A
102
}
330
1A
100
AcDbPlotSettings
  1

  2
none_device
  4

  6

 40
0.0
 41
0.0
 42
0.0
 43
0.0
 44
0.0
 45
0.0
 46
0.0
 47
0.0
 48
0.0
 49
0.0
140
0.0
141
0.0
142
1.0
143
1.0
 70
   688
 72
     0
 73
     0
 74
     5
  7

 75
    16
 76
     0
 77
     2
 78
   300
147
1.0
148
0.0
149
0.0
100
AcDbLayout
  1
Layout2
 70
     1
 71
     2
 10
0.0
 20
0.0
 11
0.0
 21
0.0
 12
0.0
 22
0.0
 32
0.0
 14
0.0
 24
0.0
 34
0.0
 15
0.0
 25
0.0
 35
0.0
146
0.0
 13
0.0
 23
0.0
 33
0.0
 16
1.0
 26
0.0
 36
0.0
 17
0.0
 27
1.0
 37
0.0
 76
     0
330
23
  0
LAYOUT
  5
22
102
{ACAD_REACTORS
330
1A
102
}
330
1A
100
AcDbPlotSettings
  1

  2
none_device
  4

  6

 40
0.0
 41
0.0
 42
0.0
 43
0.0
 44
0.0
 45
0.0
 46
0.0
 47
0.0
 48
0.0
 49
0.0
140
0.0
141
0.0
142
1.0
143
1.0
 70
  1712
 72
     0
 73
     0
 74
     0
  7

 75
     0
 76
     0
 77
     2
 78
   300
147
1.0
148
0.0
149
0.0
100
AcDbLayout
  1
Model
 70
     1
 71
     0
 10
0.0
 20
0.0
 11
12.0
 21
9.0
 12
0.0
 22
0.0
 32
0.0
 14
1.000000000000000E+20
 24
1.000000000000000E+20
 34
1.000000000000000E+20
 15
-1.000000000000000E+20
 25
-1.000000000000000E+20
 35
-1.000000000000000E+20
146
0.0
 13
0.0
 23
0.0
 33
0.0
 16
1.0
 26
0.0
 36
0.0
 17
0.0
 27
1.0
 37
0.0
 76
     0
330
1F
331
29
  0
MLINESTYLE
  5
18
102
{ACAD_REACTORS
330
17
102
}
330
17
100
AcDbMlineStyle
  2
Standard
 70
     0
  3

 62
   256
 51
90.0
 52
90.0
 71
     2
 49
0.5
 62
   256
  6
BYLAYER
 49
-0.5
 62
   256
  6
BYLAYER
  0
ACDBPLACEHOLDER
  5
F
102
{ACAD_REACTORS
330
E
102
}
330
E
  0
VISUALSTYLE
  5
2F
102
{ACAD_REACTORS
330
2A
102
}
330
2A
100
AcDbVisualStyle
  2
2dWireframe
 70
     4
 71
     0
 72
     2
 73
     0
 90
        0
 40
-0.6
 41
-30.0
 62
     5
 63
     7
421
 16777215
 74
     1
 91
        4
 64
     7
 65
   257
 75
     1
175
     1
 42
1.0
 92
        0
 66
   257
 43
1.0
 76
     1
 77
     6
 78
     2
 67
     7
 79
     5
170
     0
171
     0
290
     0
174
     0
 93
        1
 44
0.0
173
     0
291
     0
 45
0.0
1001
ACAD
1000
AcDbSavedByObjectVersion
1070
     0
  0
VISUALSTYLE
  5
31
102
{ACAD_REACTORS
330
2A
102
}
330
2A
100
AcDbVisualStyle
  2
3D Hidden
 70
     6
 71
     1
 72
     2
 73
     2
 90
        0
 40
-0.6
 41
-30.0
 62
     5
 63
     7
421
 16777215
 74
     2
 91
        2
 64
     7
 65
   257
 75
     2
175
     1
 42
40.0
 92
        0
 66
   257
 43
1.0
 76
     1
 77
     6
 78
     2
 67
     7
 79
     3
170
     0
171
     0
290
     0
174
     0
 93
        1
 44
0.0
173
     0
291
     0
 45
0.0
1001
ACAD
1000
AcDbSavedByObjectVersion
1070
     0
  0
VISUALSTYLE
  5
30
102
{ACAD_REACTORS
330
2A
102
}
330
2A
100
AcDbVisualStyle
  2
3dWireframe
 70
     5
 71
     0
 72
     2
 73
     0
 90
        0
 40
-0.6
 41
-30.0
 62
     5
 63
     7
421
 16777215
 74
     1
 91
        4
 64
     7
 65
   257
 75
     1
175
     1
 42
1.0
 92
        0
 66
   257
 43
1.0
 76
     1
 77
     6
 78
     2
 67
     7
 79
     5
170
     0
171
     0
290
     0
174
     0
 93
        1
 44
0.0
173
     0
291
     0
 45
0.0
1001
ACAD
1000
AcDbSavedByObjectVersion
1070
     0
  0
VISUALSTYLE
  5
32
102
{ACAD_REACTORS
330
2A
102
}
330
2A
100
AcDbVisualStyle
  2
Basic
 70
     7
 71
     1
 72
     0
 73
     1
 90
        0
 40
-0.6
 41
-30.0
 62
     5
 63
     7
421
 16777215
 74
     0
 91
        4
 64
     7
 65
   257
 75
     1
175
     1
 42
1.0
 92
        8
 66
     7
 43
1.0
 76
     1
 77
     6
 78
     2
 67
     7
 79
     5
170
     0
171
     0
290
     0
174
     0
 93
        1
 44
0.0
173
     0
291
     1
 45
0.0
1001
ACAD
1000
AcDbSavedByObjectVersion
1070
     0
  0
VISUALSTYLE
  5
36
102
{ACAD_REACTORS
330
2A
102
}
330
2A
100
AcDbVisualStyle
  2
Brighten
 70
    12
 71
     2
 72
     2
 73
     0
 90
        0
 40
-0.6
 41
-30.0
 62
     5
 63
     7
421
 16777215
 74
     1
 91
        4
 64
     7
 65
   257
 75
     1
175
     1
 42
1.0
 92
        8
 66
     7
 43
1.0
 76
     1
 77
     6
 78
     2
 67
     7
 79
     5
170
     0
171
     0
290
     0
174
     0
 93
        1
 44
50.0
173
     0
291
     1
 45
0.0
1001
ACAD
1000
AcDbSavedByObjectVersion
1070
     0
  0
VISUALSTYLE
  5
3A
102
{ACAD_REACTORS
330
2A
102
}
330
2A
100
AcDbVisualStyle
  2
ColorChange
 70
    16
 71
     2
 72
     2
 73
     3
 90
        0
 40
-0.6
 41
-30.0
 62
     5
 63
     8
421
  8421504
 74
     1
 91
        4
 64
     7
 65
   257
 75
     1
175
     1
 42
1.0
 92
        8
 66
     8
424
  8421504
 43
1.0
 76
     1
 77
     6
 78
     2
 67
     7
 79
     5
170
     0
171
     0
290
     0
174
     0
 93
        1
 44
0.0
173
     0
291
     1
 45
0.0
1001
ACAD
1000
AcDbSavedByObjectVersion
1070
     0
  0
VISUALSTYLE
  5
34
102
{ACAD_REACTORS
330
2A
102
}
330
2A
100
AcDbVisualStyle
  2
Conceptual
 70
     9
 71
     3
 72
     2
 73
     0
 90
        0
 40
-0.6
 41
-30.0
 62
     5
 63
     7
421
 16777215
 74
     2
 91
        2
 64
     7
 65
   257
 75
     1
175
     1
 42
40.0
 92
        8
 66
     7
 43
1.0
 76
     1
 77
     6
 78
     2
 67
     7
 79
     3
170
     0
171
     0
290
     0
174
     0
 93
        1
 44
0.0
173
     0
291
     0
 45
0.0
1001
ACAD
1000
AcDbSavedByObjectVersion
1070
     0
  0
VISUALSTYLE
  5
35
102
{ACAD_REACTORS
330
2A
102
}
330
2A
100
AcDbVisualStyle
  2
Dim
 70
    11
 71
     2
 72
     2
 73
     0
 90
        0
 40
-0.6
 41
-30.0
 62
     5
 63
     7
421
 16777215
 74
     1
 91
        4
 64
     7
 65
   257
 75
     1
175
     1
 42
1.0
 92
        8
 66
     7
 43
1.0
 76
     1
 77
     6
 78
     2
 67
     7
 79
     5
170
     0
171
     0
290
     0
174
     0
 93
        1
 44
-50.0
173
     0
291
     1
 45
0.0
1001
ACAD
1000
AcDbSavedByObjectVersion
1070
     0
  0
VISUALSTYLE
  5
39
102
{ACAD_REACTORS
330
2A
102
}
330
2A
100
AcDbVisualStyle
  2
Facepattern
 70
    15
 71
     2
 72
     2
 73
     0
 90
        0
 40
-0.6
 41
-30.0
 62
     5
 63
     7
421
 16777215
 74
     1
 91
        4
 64
     7
 65
   257
 75
     1
175
     1
 42
1.0
 92
        8
 66
     7
 43
1.0
 76
     1
 77
     6
 78
     2
 67
     7
 79
     5
170
     0
171
     0
290
     0
174
     0
 93
        1
 44
0.0
173
     0
291
     1
 45
0.0
1001
ACAD
1000
AcDbSavedByObjectVersion
1070
     0
  0
VISUALSTYLE
  5
2B
102
{ACAD_REACTORS
330
2A
102
}
330
2A
100
AcDbVisualStyle
  2
Flat
 70
     0
 71
     2
 72
     1
 73
     1
 90
        2
 40
-0.6
 41
30.0
 62
     5
 63
     7
421
 16777215
 74
     0
 91
        4
 64
     7
 65
   257
 75
     1
175
     1
 42
1.0
 92
        8
 66
     7
 43
1.0
 76
     1
 77
     6
 78
     2
 67
     7
 79
     5
170
     0
171
     0
290
     0
174
     0
 93
       13
 44
0.0
173
     0
291
     1
 45
0.0
1001
ACAD
1000
AcDbSavedByObjectVersion
1070
     0
  0
VISUALSTYLE
  5
2C
102
{ACAD_REACTORS
330
2A
102
}
330
2A
100
AcDbVisualStyle
  2
FlatWithEdges
 70
     1
 71
     2
 72
     1
 73
     1
 90
        2
 40
-0.6
 41
30.0
 62
     5
 63
     7
421
 16777215
 74
     1
 91
        4
 64
     7
 65
   257
 75
     1
175
     1
 42
1.0
 92
        0
 66
   257
 43
1.0
 76
     1
 77
     6
 78
     2
 67
     7
 79
     5
170
     0
171
     0
290
     0
174
     0
 93
       13
 44
0.0
173
     0
291
     1
 45
0.0
1001
ACAD
1000
AcDbSavedByObjectVersion
1070
     0
  0
VISUALSTYLE
  5
2D
102
{ACAD_REACTORS
330
2A
102
}
330
2A
100
AcDbVisualStyle
  2
Gouraud
 70
     2
 71
     2
 72
     2
 73
     1
 90
        2
 40
-0.6
 41
30.0
 62
     5
 63
     7
421
 16777215
 74
     0
 91
        4
 64
     7
 65
   257
 75
     1
175
     1
 42
1.0
 92
        0
 66
     7
 43
1.0
 76
     1
 77
     6
 78
     2
 67
     7
 79
     5
170
     0
171
     0
290
     0
174
     0
 93
       13
 44
0.0
173
     0
291
     1
 45
0.0
1001
ACAD
1000
AcDbSavedByObjectVersion
1070
     0
  0
VISUALSTYLE
  5
2E
102
{ACAD_REACTORS
330
2A
102
}
330
2A
100
AcDbVisualStyle
  2
GouraudWithEdges
 70
     3
 71
     2
 72
     2
 73
     1
 90
        2
 40
-0.6
 41
30.0
 62
     5
 63
     7
421
 16777215
 74
     1
 91
        4
 64
     7
 65
   257
 75
     1
175
     1
 42
1.0
 92
        0
 66
   257
 43
1.0
 76
     1
 77
     6
 78
     2
 67
     7
 79
     5
170
     0
171
     0
290
     0
174
     0
 93
       13
 44
0.0
173
     0
291
     1
 45
0.0
1001
ACAD
1000
AcDbSavedByObjectVersion
1070
     0
  0
VISUALSTYLE
  5
38
102
{ACAD_REACTORS
330
2A
102
}
330
2A
100
AcDbVisualStyle
  2
Linepattern
 70
    14
 71
     2
 72
     2
 73
     0
 90
        0
 40
-0.6
 41
-30.0
 62
     5
 63
     7
421
 16777215
 74
     1
 91
        4
 64
     7
 65
   257
 75
     7
175
     7
 42
1.0
 92
        8
 66
     7
 43
1.0
 76
     1
 77
     6
 78
     2
 67
     7
 79
     5
170
     0
171
     0
290
     0
174
     0
 93
        1
 44
0.0
173
     0
291
     1
 45
0.0
1001
ACAD
1000
AcDbSavedByObjectVersion
1070
     0
  0
VISUALSTYLE
  5
33
102
{ACAD_REACTORS
330
2A
102
}
330
2A
100
AcDbVisualStyle
  2
Realistic
 70
     8
 71
     2
 72
     2
 73
     0
 90
        0
 40
-0.6
 41
-30.0
 62
     5
 63
     7
421
 16777215
 74
     1
 91
        0
 64
     7
 65
   257
 75
     1
175
     1
 42
1.0
 92
        8
 66
     8
424
  7895160
 43
1.0
 76
     1
 77
     6
 78
     2
 67
     7
 79
     5
170
     0
171
     0
290
     0
174
     0
 93
       13
 44
0.0
173
     0
291
     0
 45
0.0
1001
ACAD
1000
AcDbSavedByObjectVersion
1070
     0
  0
VISUALSTYLE
  5
37
102
{ACAD_REACTORS
330
2A
102
}
330
2A
100
AcDbVisualStyle
  2
Thicken
 70
    13
 71
     2
 72
     2
 73
     0
 90
        0
 40
-0.6
 41
-30.0
 62
     5
 63
     7
421
 16777215
 74
     1
 91
        4
 64
     7
 65
   257
 75
     1
175
     1
 42
1.0
 92
       12
 66
     7
 43
1.0
 76
     1
 77
     6
 78
     2
 67
     7
 79
     5
170
     0
171
     0
290
     0
174
     0
 93
        1
 44
0.0
173
     0
291
     1
 45
0.0
1001
ACAD
1000
AcDbSavedByObjectVersion
1070
     0
  0
ENDSEC
  0
EOF
